<?xml version="1.0" encoding="utf-8"?>
<!-- Generator: Adobe Illustrator 24.0.0, SVG Export Plug-In . SVG Version: 6.00 Build 0)  -->
<svg version="1.1" id="Layer_1" xmlns="http://www.w3.org/2000/svg" xmlns:xlink="http://www.w3.org/1999/xlink" x="0px" y="0px"
	 viewBox="0 0 203 280" style="enable-background:new 0 0 203 280;" xml:space="preserve">
<style type="text/css">
	.st0{fill:#FFFFFF;}
	.st1{fill:none;stroke:#4D4E5B;stroke-width:2;stroke-miterlimit:10;}
	.st2{fill:#4D4E5B;}
</style>
<path class="st0" d="M193.6,279.4H9.4c-4.5,0-8.1-3.6-8.1-8.1V8.7c0-4.5,3.6-8.1,8.1-8.1h184.2c4.5,0,8.1,3.6,8.1,8.1v262.5
	C201.8,275.8,198.1,279.4,193.6,279.4z"/>
<title>DGB - card</title>
<g>
	<path class="st1" d="M200.7,2c1.3,1.3,2,3,2,4.8v266.4c0,3.7-3.1,6.7-6.8,6.7H7.1c-3.7,0-6.8-3-6.8-6.7l0,0V6.8
		c0-3.7,3.1-6.7,6.8-6.7h188.8C197.7,0,199.4,0.7,200.7,2z M3,277.3c1.1,1.1,2.5,1.7,4.1,1.6H196c3.2,0,5.7-2.5,5.8-5.7V6.8
		c0-3.2-2.6-5.7-5.8-5.7H7.1c-1.5,0-3,0.6-4.1,1.7s-1.7,2.5-1.7,4v266.5C1.3,274.7,1.9,276.2,3,277.3L3,277.3z"/>
	<polyline class="st1" points="163,278.9 171.6,270.7 133.4,270.7 128.6,274.6 13.4,274.6 10.7,270.7 10.7,255.9 6,251 6,54.7 
		11.6,48.8 11.6,30.1 1.3,41.9 	"/>
	<polyline class="st1" points="40,1.1 30.5,10.9 55.1,10.9 60.5,6 189.4,6 184.3,10.9 196.2,10.9 196.2,33.1 192.6,34.4 192.6,41.9 
		198,46.4 198,186 194.4,191.1 195,250.9 201.6,243.6 	"/>
	<circle class="st1" cx="23.2" cy="198" r="11.5"/>
	<circle class="st1" cx="23.2" cy="223.1" r="11.5"/>
	<circle class="st1" cx="23.2" cy="246.9" r="11.5"/>
	<circle class="st1" cx="23.2" cy="266.3" r="7.1"/>
	<circle class="st1" cx="23.2" cy="21.7" r="12.4"/>
	<line class="st1" x1="34.3" y1="27" x2="195" y2="27"/>
	<path class="st1" d="M55.1,10.9"/>
	<polyline class="st1" points="195,19.4 155,19.4 155,10.9 184.3,10.9 	"/>
</g>
<path class="st2" d="M164.1,110.4c-0.3,17.4-7.2,32-20.2,43.3c-8.3,7.2-18.2,11.6-29.1,13.3c-2.7,0.4-5.5,0.5-8.5,0.7
	c0,3.2,0,6.3,0,9.5c-0.2,0-0.3,0-0.5,0c0-3.1,0-6.3,0-9.4c-3.7-0.4-7.2-0.9-10.5-1.3c0.2-1.7,0.3-3.1,0.4-4.6
	c3.3,0.3,6.6,0.6,10,0.9c0-1.1,0-1.8,0-2.8c-1.6-0.1-3.1-0.3-4.8-0.4c0.1-1.5,0.2-3,0.3-4.7c-6.4-0.8-12.5-2.6-18.2-5.9
	c-0.8,1.4-1.6,2.7-2.5,4.2c-9.4-5.5-16.4-13.2-21-23.2c1.5-0.7,2.9-1.4,3.9-1.8c-1.4-5.9-2.7-11.6-4.1-17.5c-1.8,0-3.9,0-6.4,0
	c1.5,22.6,12.6,38.6,33,48.5c-2.2,1.7-1.3,3-0.1,4.4c-5.9-2-11-4.9-15.8-8.7c-10.8-8.5-17.6-19.6-20.6-32.9c-0.8-3.3-0.9-6.6-1.3-10
	c-0.1-0.5-0.5-1-0.8-1.6c-0.2,0.1-0.4,0.1-0.6,0.2c0,1.2,0,2.4,0,3.7c-0.2-0.2-0.3-0.2-0.3-0.3c-0.2-3.4-0.2-3.4-3.8-3.5
	c-1.3,0-2.6,0-3.8-0.2c0.7,0,1.5,0,2.2,0c0.7,0,1.5-0.1,2.3-0.2c0.1-0.6,0.2-1.2,0.4-2.1c0.1,0.9,0.2,1.4,0.3,2
	c1.6,0.4,2.3-0.1,2.3-1.7c0-2.2,0.3-4.4,0.6-6.6c-0.1,2.7-0.2,5.3-0.4,8c1.7,0.6,1.6-0.5,1.6-1.4c0-7.2,1.5-14.1,4.2-20.7
	c3.6-8.8,9.1-16.3,16.3-22.5c10.2-8.7,22-13,35.3-13.6c0.5,0,1.1-0.1,1.8-0.2c0-2.8,0-5.5,0-8.3c0.1,0,0.2,0,0.3,0c0,2.7,0,5.4,0,8
	c0.7,0.4,1.2,0.7,2.1,1.2c-0.8,0.3-1.3,0.5-1.6,0.6c0,1.8,0,3.4,0,5c0.7,0.4,1.4,0.8,2.1,1.2c0.5-0.2,1.2-0.6,2.3-1.1
	c-0.1,2-0.3,3.6-0.4,5.3c6.4,0.8,12.5,2.6,18.2,5.9c0.8-1.4,1.6-2.7,2.4-4.1c0.2,0,0.4-0.1,0.6-0.1c0.4,0.8,0.8,1.6,1.2,2.4
	c0.1-0.1,0.5-0.4,0.9-0.7c7.3,4.8,12.9,11.1,17.2,19.1c-0.4,0.2-0.9,0.4-1.4,0.6c0.1,0.1,0.1,0.2,0.2,0.3c0.5,0,1,0,1.6,0
	c0.2,0.4,0.4,0.9,0.6,1.5c-1.4,0.7-2.8,1.3-4.3,2.1c2.6,5.9,3.9,12.1,4.1,18.5c2.5,0.4,4.9,0.7,7.3,1.1c1-18.6-11.2-45.3-42.6-52.9
	c0.3-1.4,0.5-2.7,0.9-4.5c2.5,0.7,5.4,1.3,8.1,2.3c18.5,6.8,30.6,19.8,36.3,38.7C163.6,99,164.5,104.7,164.1,110.4
	C164.1,110.5,164.1,110.4,164.1,110.4L164.1,110.4z M143.8,134.3c0.8,0.5,1.8,1,2.9,1.6c0.1-0.1,0.1-0.3,0.2-0.4
	c-1-0.7-1.9-1.4-3-2.1c4.2-6.7,6.4-13.9,7-21.7c1.3,0,2.3,0,3.3,0c0-0.2,0-0.3,0-0.5c-2.5-0.2-5-0.5-7.4-0.7
	c1.2-0.1,2.5-0.3,4.2-0.5c-0.8-7.2-2.2-14.1-4.7-20.8c0.9-0.5,1.8-1,2.7-1.6c-0.1-0.1-0.1-0.3-0.2-0.4c-1,0.4-2,0.8-3.1,1.3
	c-3.6-7-8.8-12.5-15.2-16.9c0.6-1.1,1.1-2,1.6-2.9c-0.1-0.1-0.3-0.2-0.4-0.3c-0.6,0.9-1.3,1.8-1.9,2.5c-6.8-3.3-13.8-5.5-21.2-6.9
	c0-1,0-2.2,0-3.3c-0.1,0-0.3,0-0.4,0c-0.1,1.1-0.3,2.3-0.4,3.2c-2.9,1-1,3.7-2.1,5.5c0-1.9,0-3.6,0-5.2C98.5,64.2,92,66,85.7,69
	c-0.4-0.6-0.7-1.2-1-1.8c-0.3-0.5-0.6-1-1-1.4c-0.1,0.1-0.3,0.2-0.4,0.3c0.5,1.1,1,2.1,1.6,3.2c-6.2,4.2-11.8,9.1-16.5,15
	c-1.1-0.7-2.3-1.4-3.4-2c-0.1,0.1-0.2,0.3-0.3,0.5c1.1,0.8,2.2,1.5,3.4,2.4c-4.3,6.6-6.4,13.9-7.1,21.8c-1.6,0-3,0-4.4,0
	c0,0.1,0,0.3,0,0.5c1.4,0.1,2.8,0.2,4.3,0.3c0.1,0.9,0.1,1.6,0.2,2.5c1.6,0.1,3.2,0.3,4.6,0.4c0.5-3.6,0.8-7.1,1.6-10.4
	c0.8-3.3,2.2-6.4,3.5-9.8c1.7,1,3,1.7,4.3,2.4c-3.8,9.8-4.7,13.9-3.9,17.6c0.7-0.1,1.4-0.2,2.2-0.4c0.1-9,3-16.8,9.2-23.3
	c6.3-6.5,14.1-9.7,23.1-9.9c-0.1-2.2-0.2-4.3-0.3-6.6c1.9,0.2,3.6,0.4,5.3,0.5c-0.1,1.4-0.2,2.6-0.3,3.9c0.5,0,1,0,1.5,0
	c0.2-1.2,0.5-2.3,0.7-3.6c1.8,0.5,3.5,0.9,5.2,1.4c-0.4,1.4-0.8,2.5-1,3.4c3.5,1.8,6.8,3.5,10.2,5.3c0.7-0.9,1.4-1.7,2.1-2.7
	c0.4,0.3,0.7,0.5,0.9,0.7c7.2,5.8,11.7,13.3,13.9,22.3c0.3,1.2-0.1,1.7-1.3,1.8c-0.8,0-1.5,0.3-2.3,0.4c0.2,0.8,0.4,1.5,0.6,2.1
	c0.6-0.1,1.2-0.2,1.7-0.2c0.6-0.1,1.2-0.1,1.9-0.1c0.8,8.4-0.6,16.2-4.8,23.6c-1.5-0.8-2.8-1.5-4.1-2.3c2.7-5.1,4.2-10.2,4.3-15.8
	c-2.3-0.2-1.6,1.6-1.7,2.5c-1.9,12.7-8.8,21.6-20.7,26.3c-3.4,1.4-7.2,1.8-10.9,2.7c-0.1,1-0.3,2.3-0.5,3.6
	c-0.3-0.8-0.3-1.5-0.2-2.2c0.1-1.5-0.5-1.9-2-2.1c-12-0.9-20.9-6.8-26.7-17.4c-2.3-4.2-3.3-8.7-3.7-13.4c-0.9,0-1.6,0-2.5,0
	c0,1,0,1.9,0,2.8c-1.6,0.2-3,0.3-4.6,0.5c-0.1-1.3-0.2-2.4-0.3-3.4c-1.7,0-3.3,0-5.3,0c1.5,6.4,3,12.5,4.4,18.5
	c-0.1,0.3-0.9,0.7-1.5,1.1c-0.6,0.4-1.3,0.8-1.9,1.2c0.1,0.1,0.2,0.3,0.3,0.4c1.3-0.7,2.7-1.3,4.1-2.1c3.7,7,8.8,12.6,15.3,16.9
	c-0.8,1.4-1.6,2.7-2.4,3.9c0.2,0.1,0.3,0.2,0.5,0.3c0.8-1.2,1.6-2.5,2.4-3.6c6.8,3.3,13.9,5.6,21.3,6.9c-0.1,1.3-0.2,2.7-0.3,4.1
	c0.2,0,0.4,0,0.6,0.1c0.2-1.4,0.3-2.8,0.5-4.2c0.6-0.1,1.2-0.2,1.7-0.3c0.1-1.1,0.1-2.1,0.1-3.1c0.1,0,0.1,0,0.2,0
	c0.1,1,0.1,2,0.2,3.1c1.5,0,2.8,0.1,4.1,0c5.5-0.5,10.8-2.1,15.8-4.6c0.7,1.2,1.4,2.4,2,3.5c0.2-0.1,0.3-0.2,0.5-0.3
	c-0.6-1.2-1.1-2.3-1.5-3.2c2.9-2.5,5.8-4.7,8.5-7.2C138.4,139.7,141,137,143.8,134.3L143.8,134.3z M105.3,79.7
	c-13.7-2.2-32.1,16.9-28.7,29.9C97.3,108.1,104.4,99.7,105.3,79.7z M135.4,109.5c0.8-17.1-14.8-30.7-28.7-29.8
	C108,100.3,115.3,108,135.4,109.5z M76.3,111c0.8,8.7,4.3,15.7,10.9,21.1c5.2,4.3,11.3,6.5,18.1,6.6
	C103.4,117.8,94.2,112.4,76.3,111z M107,138.7c16.8-0.2,28.5-15.1,28.3-27.6C118.8,110.4,106.1,122.7,107,138.7z M131.3,153.1
	c-7.7,4.7-16,6.7-24.8,7c0,1,0,1.8,0,2.7c15.7-0.6,29-6.2,39.5-17.9c8.6-9.7,13.1-21.1,13.6-34.5c-1.6,0.3-2.9,0.6-4.7,1
	c1,0.5,1.4,0.7,1.8,0.9c-0.5,8.3-2.8,15.9-7,22.9c-0.4,0.7-1.2,1.1-1.4,1.4c-0.3,1-0.6,1.7-0.9,2.6c-1.6-1.1-2.8-1.9-4.1-2.9
	c-3.9,5.3-8.6,9.6-14.2,12.9C129.8,150.4,130.5,151.7,131.3,153.1L131.3,153.1z M105.7,56C89.3,56.8,75.6,63,65.2,75.6
	C57,85.4,53,96.9,53,109.8c1,0,1.6,0,2.2,0c-0.3-5.6,0.6-11,2.2-16.2c1.6-5.1,4.1-9.8,7.3-14.2c1.3,0.9,2.6,1.8,3.9,2.7
	c3.9-5.3,8.7-9.5,14.5-13c-0.9-1-1.6-1.8-2.5-2.7c0.3-2,0.6-2.3,1.9-1.9c0.9-0.7,1.4-1.3,2.2-1.6c4.7-2.1,9.4-3.6,14.6-4.1
	c2.2-0.2,4.3-0.4,6.5-0.7C105.7,57.4,105.7,56.9,105.7,56L105.7,56z M139.8,109.8c1.1-17.7-15.6-35.9-33.5-34.6
	c-0.4,1.5,0.7,1.5,1.7,1.6c8,0.5,14.9,3.6,20.6,9.1c6.4,6.2,9.4,13.8,9.9,22.6C138.5,109.3,138.4,110.2,139.8,109.8L139.8,109.8z
	 M102.3,52.8c-2.2,0.3-4.5,0.6-6.8,1c-2.3,0.4-2.3,0.5-1.3,2.7c2.1-0.3,4.2-0.7,6.3-0.9C102.8,55.4,102.9,55.4,102.3,52.8z
	 M65.1,148.7c2,1.8,3.7,3.4,5.4,4.9c1.6,1.4,1.8,1.3,2.8-0.8c-2.1-1.8-4.2-3.7-6.5-5.7C66.3,147.6,65.8,148,65.1,148.7L65.1,148.7z
	 M158.7,95c0.5,2.7,0.9,5.2,1.4,7.6c0.1,0.4,0.8,1,1.1,0.9c0.5-0.1,1.2-0.8,1.2-1.1c-0.4-2.7-0.9-5.3-1.5-8.1
	C159.9,94.6,159.3,94.8,158.7,95L158.7,95z M160,91.2c-1.2-2.8-2.4-5.5-3.5-8.1c-2.1,0.5-2.3,0.7-1.9,1.7c1,2.4,2.1,4.7,3.2,7.2
	C158.5,91.8,159.1,91.5,160,91.2z M139.7,152.4c-2.1,1.4-3.8,2.7-5.7,3.7c-1.6,0.9-1.8,1.7-0.1,3c2.4-1.6,4.8-3.2,7.4-4.9
	C140.6,153.4,140.1,152.9,139.7,152.4L139.7,152.4z M83,60.3c2.2-0.8,4.3-1.8,6.6-2.4c1.9-0.5,1.5-1.5,0.7-2.9
	c-2.2,0.8-4.4,1.7-6.6,2.5C82,58.1,81.8,58.9,83,60.3L83,60.3z M155.3,133c-1.5,2.7-2.9,5.1-4.4,7.6c0.6,0.4,1.2,0.8,2,1.4
	c1.6-2.7,3-5.2,4.6-7.9C156.5,133.6,156,133.3,155.3,133L155.3,133z M58.2,135c-1.2-2.7-2.3-5.3-3.5-7.9c-0.7,0.3-1.3,0.5-2.1,0.8
	c1.2,2.8,2.4,5.5,3.6,8.2C56.9,135.6,57.5,135.3,58.2,135z M61.8,78c-1.1-0.1-2.3-0.4-2.5-0.1c-1.5,2.2-2.8,4.6-4.2,7.1
	c1,0.4,1.5,0.6,2.1,0.9C58.7,83.3,60.1,80.9,61.8,78L61.8,78z M147.2,70.3c-2.3-2.1-4.5-4-6.8-6c-0.5,0.8-0.9,1.3-1.3,1.8
	c2.2,1.9,4.2,3.8,6.4,5.7C146,71.3,146.5,70.9,147.2,70.3L147.2,70.3z M122.2,163.9c2.4-0.9,4.5-1.6,6.7-2.5c1.9-0.8,1.9-1,0.6-2.7
	c-2.6,1-5.2,2.1-7.9,3.1C121.7,162.5,121.9,163,122.2,163.9L122.2,163.9z M78.9,59.7c-2.6,1.7-4.9,3.3-7.4,5
	c0.5,0.7,0.9,1.3,1.3,1.8c2.5-1.6,4.8-3.1,7.3-4.7C79.7,61.2,79.4,60.6,78.9,59.7z M118.2,162.6c-2.8,0.4-5.6,0.9-8.4,1.3
	c0.1,0.8,0.2,1.3,0.3,2.1c2.4-0.3,4.7-0.7,7-0.9C118.7,164.9,119.1,164.2,118.2,162.6z M51.5,124.2c0.2,0.1,0.4,0.3,0.6,0.4
	c0.5-0.4,1.5-0.9,1.5-1.2c-0.4-2.6-1-5.2-1.5-7.9c-0.8,0.1-1.3,0.2-2.2,0.4C50.5,118.8,51,121.5,51.5,124.2z M105.7,164
	c-2.4-0.3-4.6-0.6-6.9-0.8c-0.4,0-1,0.6-1.1,1c-0.1,0.4,0.4,1.3,0.6,1.3c2.4,0.3,4.9,0.4,7.3,0.6C105.7,165.3,105.7,164.7,105.7,164
	z M50,103.6c-0.1,2.1-0.2,4.2-0.4,6.3c1,0,1.6,0,2.3,0c0.1-2.2,0.2-4.2,0.3-6.3C51.3,103.6,50.7,103.6,50,103.6z M160.5,110.7
	c-0.1,1.2-0.1,2.3-0.3,3.3c-0.1,0.9,0,1.5,1.1,1.6c1.1,0.1,1.4-0.4,1.4-1.3c0-1.1,0-2.3,0-3.5C162,110.7,161.3,110.7,160.5,110.7
	L160.5,110.7z M162.7,109.9c0-1.2,0-2.3,0-3.4c-2.5-0.1-2.6,0.1-2.1,3.4C161.3,109.9,162,109.9,162.7,109.9z M49.7,110.2
	c-0.1,1.5-0.1,2.5,1.2,2.2c0.4-0.1,0.7-0.7,1-1.1C51.3,111,50.7,110.7,49.7,110.2z"/>
</svg>
