<?xml version="1.0" encoding="utf-8"?>
<!-- Generator: Adobe Illustrator 25.4.1, SVG Export Plug-In . SVG Version: 6.00 Build 0)  -->
<svg version="1.1" id="Livello_1" xmlns="http://www.w3.org/2000/svg" xmlns:xlink="http://www.w3.org/1999/xlink" x="0px" y="0px"
	 viewBox="0 0 271.1 45.1" style="enable-background:new 0 0 271.1 45.1;" xml:space="preserve">
<style type="text/css">
	.st0{fill:#2AA8F8;}
	.st1{fill:#FFFFFF;}
</style>
<path class="st0" d="M103.3,17.7l-1.1,2l-1.1,2.1c-0.1,0.2-0.4,0.4-0.6,0.3h-1.7c-2.2,0-4.4,0-6.6,0c-0.4,0.1-0.7-0.2-0.8-0.6
	c0-0.2,0-0.4,0.1-0.5c1.2-2.1,2.4-4.3,3.6-6.4s2.3-4.1,3.4-6.1s2.2-4,3.3-5.9c0.4-0.7,0.8-1.5,1.2-2.2c0,0,0.1-0.1,0.1-0.1
	c0.2-0.3,0.2-0.3,0.4,0l0.8,1.4c1,1.8,2,3.5,3,5.3l3,5.3c1,1.7,2,3.4,2.9,5.2c0.7,1.2,1.4,2.5,2.1,3.7c0.2,0.3,0.1,0.7-0.2,0.9
	c-0.1,0.1-0.3,0.1-0.4,0.1c-2.8,0-5.5,0-8.3,0c-0.4,0-0.8-0.2-0.9-0.5c-0.7-1.2-1.4-2.5-2.1-3.7L103.3,17.7z"/>
<path class="st1" d="M118.8,27.4c0.2-0.4,0.4-0.7,0.6-1l1.7-3c0.1-0.3,0.4-0.4,0.7-0.4h8.3c0.7,0,1,0.5,0.6,1.1
	c-1.1,1.9-2.1,3.8-3.2,5.7c-1.3,2.2-2.5,4.4-3.8,6.7l-3.2,5.6l-1.6,2.8c0,0.1-0.1,0.1-0.2,0.2c-0.1-0.1-0.1-0.1-0.2-0.2l-3.2-5.8
	c-1.1-2-2.3-4-3.4-6.1s-2.3-4.1-3.4-6.1c-0.6-1-1.1-2-1.6-2.9c-0.2-0.3-0.2-0.7,0.1-0.9c0.1-0.1,0.3-0.2,0.5-0.1h8.3
	c0.3,0,0.6,0.2,0.8,0.5c0.7,1.2,1.4,2.5,2.1,3.7L118.8,27.4z"/>
<path class="st1" d="M204.9,22.3v-9c0-0.7,0.2-0.9,0.9-0.9c2.6,0,5.3,0,8,0c2.2,0,4.3,0.8,6,2.2c2,1.6,3.3,4,3.5,6.5
	c0.3,2.4-0.2,4.8-1.6,6.8c-1.5,2.4-4.1,3.9-6.9,4.2c-0.4,0.1-0.8,0.1-1.2,0.1h-7.8c-0.7,0-0.9-0.2-0.9-0.9L204.9,22.3z M209.5,22.3
	v5.2c0,0.2,0,0.3,0.3,0.3c1.5,0,3,0,4.5-0.1c1.9-0.1,3.6-1.4,4.2-3.3c0.3-1,0.4-2,0.3-3c-0.1-1.2-0.6-2.3-1.4-3.1
	c-1-1-2.4-1.6-3.8-1.5c-1.2,0-2.4,0-3.6,0c-0.4,0-0.4,0-0.4,0.4L209.5,22.3z"/>
<path class="st0" d="M69.4,22.3v-8.8c0-0.7,0.2-0.8,0.8-0.8c2.6,0,5.3,0,7.9,0c2.1,0,4.1,0.8,5.7,2.2c1.8,1.5,2.9,3.6,3.2,5.9
	c0.5,2.9-0.3,5.9-2.2,8.1c-1.5,1.8-3.6,2.9-5.9,3.1C78.3,32,77.6,32,76.9,32h-6.4c-0.1,0-0.3,0-0.4,0c-0.5-0.1-0.6-0.3-0.6-0.8V22.3
	z M73.9,22.3v5c0,0.3,0,0.4,0.4,0.4c1.2,0,2.3,0,3.4,0c0.4,0,0.8,0,1.2-0.1c1.5-0.3,2.9-1.3,3.5-2.7c0.6-1.5,0.7-3.2,0.1-4.7
	c-0.4-1.1-1.2-2.1-2.2-2.6c-0.8-0.4-1.8-0.6-2.7-0.6c-1.1,0-2.1,0-3.2,0c-0.4,0-0.4,0-0.4,0.4V22.3z"/>
<path class="st1" d="M265.8,24.9l0.9,1.1l4.2,5.2c0.2,0.2,0.3,0.5,0.2,0.7c-0.1,0.2-0.4,0.3-0.6,0.3h-3.6c-0.4,0-0.7-0.1-0.9-0.4
	c-1.4-1.7-2.8-3.5-4.1-5.2c-0.2-0.2-0.4-0.5-0.6-0.7c-0.1-0.1-0.3-0.2-0.4-0.2c-0.4,0-0.7,0-1.1,0s-0.4,0.1-0.4,0.4
	c0,1.7,0,3.5,0,5.2v0.3c0,0.3-0.2,0.6-0.5,0.6c0,0,0,0-0.1,0c-1.1,0-2.3,0-3.4,0c-0.3,0-0.6-0.3-0.6-0.6c0-0.1,0-0.2,0-0.3v-18
	c0-0.7,0.2-0.9,0.9-0.9c2.3,0,4.6,0,6.9,0c2.5-0.1,4.8,1.3,6,3.5c1.4,2.3,1.1,5.2-0.6,7.3c-0.5,0.6-1.1,1.1-1.7,1.5
	C266,24.8,266,24.8,265.8,24.9z M261.1,21.8c0.4,0,0.8,0,1.2,0c0.3,0,0.7-0.1,1-0.2c1-0.5,1.6-1.7,1.3-2.9c-0.2-1-1-1.8-2-1.9
	c-1-0.1-2.1,0-3.2,0c-0.2,0-0.2,0.1-0.2,0.3v4.4c0,0.2,0.1,0.3,0.3,0.3L261.1,21.8z"/>
<path class="st1" d="M153.7,22.3v-9c0-0.6,0.2-0.8,0.8-0.8c2.4,0,4.7,0,7.1,0c1.6,0,3.2,0.6,4.4,1.7c1.3,1.1,2.1,2.6,2.3,4.3
	c0.2,1.7-0.3,3.4-1.4,4.7c-0.5,0.7-1.1,1.2-1.9,1.6c-0.2,0.1-0.2,0.2-0.1,0.4c1.6,2,3.3,4.1,4.9,6.2c0.3,0.4,0.3,0.7-0.1,0.8
	c-0.1,0.1-0.2,0.1-0.3,0.1h-3.8c-0.3,0-0.6-0.2-0.8-0.4c-1.6-2-3.1-3.9-4.7-5.9c-0.1-0.1-0.2-0.2-0.4-0.2c-0.4,0-0.7,0-1.1,0
	s-0.4,0.1-0.4,0.4c0,1.7,0,3.4,0,5.2c0,0.1,0,0.2,0,0.3c0,0.4-0.3,0.7-0.6,0.7c0,0-0.1,0-0.1,0h-3.2c-0.5,0-0.7-0.2-0.7-0.7
	L153.7,22.3z M158.3,19.2c0,0.7,0,1.4,0,2.2c0,0.3,0.1,0.4,0.4,0.4h2.9c0.6,0,1.2-0.3,1.6-0.8c0.4-0.5,0.6-1.2,0.6-1.9
	c0-1.3-1.1-2.3-2.4-2.3h-2.7c-0.3,0-0.4,0.1-0.4,0.4C158.3,17.8,158.3,18.5,158.3,19.2z"/>
<path class="st0" d="M47.7,22.3v-8.8c0-0.7,0.2-0.8,0.8-0.8h6.7c1.6,0,3.2,0.6,4.4,1.7c1.6,1.4,2.4,3.4,2.2,5.5
	c-0.1,1.4-0.7,2.7-1.7,3.7c-0.5,0.4-0.9,0.8-1.4,1.2c-0.2,0.1-0.2,0.2,0,0.4l2.5,3.1l2.2,2.8c0.1,0.1,0.1,0.2,0.2,0.3
	c0.1,0.2,0.1,0.5-0.1,0.6c-0.1,0-0.1,0.1-0.2,0.1c-0.2,0-0.3,0.1-0.5,0h-3c-0.5,0-1-0.2-1.3-0.7c-1.4-1.8-2.9-3.6-4.3-5.4
	c-0.1-0.2-0.4-0.3-0.6-0.3c-0.3,0-0.5,0-0.8,0s-0.4,0-0.4,0.4v5.1c0,0.6-0.3,0.9-0.9,0.9h-2.9c-0.6,0-0.8-0.2-0.8-0.8V22.3z
	 M52.2,19.3c0,0.7,0,1.4,0,2.1c0,0.2,0.1,0.3,0.3,0.3c0.8,0,1.7,0,2.6,0c0.6,0,1.1-0.2,1.5-0.6c0.7-0.7,1-1.7,0.7-2.6
	c-0.2-1-1.2-1.8-2.2-1.8c-0.8,0-1.7,0-2.5,0c-0.3,0-0.4,0.1-0.3,0.4C52.3,17.9,52.2,18.6,52.2,19.3L52.2,19.3z"/>
<path class="st1" d="M186.6,12.5c0.7,0,1.4,0,2.2,0c0.5-0.1,0.9,0.3,1,0.7l3.1,9.2c0.8,2.4,1.5,4.7,2.3,7.1c0.2,0.7,0.4,1.3,0.6,2
	c0.1,0.3,0,0.6-0.2,0.7c-0.1,0.1-0.2,0.1-0.3,0.1h-3.6c-0.4,0-0.7-0.2-0.8-0.7c-0.2-0.7-0.4-1.4-0.6-2.1c0-0.2-0.2-0.3-0.4-0.3h-6.4
	c-0.2,0-0.4,0.1-0.4,0.3c-0.2,0.7-0.4,1.3-0.6,2c-0.2,0.6-0.4,0.8-1,0.8h-3.3c-0.1,0-0.2,0-0.3,0c-0.3,0-0.5-0.3-0.5-0.5
	c0,0,0,0,0-0.1c0-0.1,0-0.3,0.1-0.4c1-3,2-6.1,3-9.1l2.5-7.4c0.2-0.5,0.3-1,0.5-1.5c0.1-0.5,0.5-0.8,1-0.7L186.6,12.5z M186.6,17.6
	c0,0.1-0.1,0.1-0.1,0.1c-0.7,2.3-1.4,4.5-2.1,6.8c-0.1,0.3-0.1,0.4,0.3,0.4h3.7h0.3L186.6,17.6z"/>
<path class="st0" d="M17.2,19.9c-0.5,0-1,0-1.5,0c-0.4,0-0.8-0.2-0.9-0.6c-0.2-0.3-0.3-0.6-0.5-0.9c-0.6-0.8-1.4-1.3-2.4-1.5
	c-1.8-0.6-3.8-0.2-5.3,0.9c-1,0.8-1.7,1.9-1.9,3.1c-0.3,1.2-0.2,2.5,0.2,3.6c0.6,1.7,2,2.9,3.7,3.3c1.4,0.4,2.9,0.2,4.2-0.5
	c0.8-0.4,1.5-1.1,1.9-1.9c0.2-0.4,0.6-0.7,1.1-0.6c1,0,2,0,3,0c0.6,0,0.8,0.3,0.6,0.8c-0.4,1.3-1,2.5-1.9,3.5
	c-1.4,1.6-3.4,2.7-5.5,3.1c-2.1,0.4-4.3,0.1-6.3-0.8C3.7,30.6,2,29,1.1,27c-0.6-1.2-0.9-2.4-1-3.7c-0.2-2,0.2-4.1,1.1-5.9
	c0.9-1.6,2.2-3,3.8-3.9c1.3-0.7,2.8-1.2,4.4-1.3c2.5-0.2,5,0.5,7,2c1.6,1.2,2.7,2.8,3.2,4.7c0.2,0.5-0.1,0.9-0.7,0.9H17.2z"/>
<path class="st0" d="M39.4,32h-1.5c-0.5,0.1-0.9-0.2-1-0.7c0,0,0,0,0-0.1c-0.2-0.7-0.4-1.4-0.6-2c0-0.2-0.2-0.3-0.4-0.3c0,0,0,0,0,0
	h-6.2c-0.2,0-0.3,0.1-0.4,0.3c-0.2,0.7-0.4,1.4-0.6,2c-0.2,0.5-0.4,0.7-0.9,0.7h-3.3c-0.1,0-0.2,0-0.2,0c-0.3,0-0.5-0.2-0.5-0.5
	c0-0.1,0-0.1,0-0.2c0.1-0.4,0.2-0.7,0.3-1.1c0.7-2.2,1.4-4.3,2.2-6.5l2.4-7.4c0.3-1,0.7-2,1-3c0.1-0.4,0.5-0.7,0.9-0.6h4.3
	c0.4-0.1,0.8,0.2,0.9,0.7c0,0,0,0,0,0c1,3.1,2,6.2,3.1,9.3c0.8,2.3,1.5,4.6,2.2,6.8c0.2,0.6,0.4,1.1,0.5,1.7s0,0.8-0.5,0.8
	C40.8,32,40,32,39.4,32L39.4,32z M32.8,17.8L32.8,17.8c-0.2,0.4-0.3,0.7-0.4,1c-0.5,1.9-1.1,3.7-1.7,5.6c-0.1,0.3-0.1,0.4,0.3,0.4
	h3.5c0.3,0,0.3,0,0.2-0.3c-0.5-1.7-1-3.4-1.5-5.1C33.1,18.8,32.9,18.3,32.8,17.8z"/>
<path class="st1" d="M233,22.3v-9c0-0.7,0.2-0.9,0.9-0.9H244c0.7,0,0.9,0.2,0.9,0.9c0,0.9,0,1.8,0,2.6c0,0.6-0.2,0.9-0.9,0.9h-6
	c-0.4,0-0.4,0-0.4,0.4v2.4c0,0.4,0,0.4,0.4,0.4h5.2c0.1,0,0.3,0,0.4,0c0.3,0,0.5,0.3,0.5,0.6c0,1,0,2,0,3c0,0.3-0.3,0.6-0.6,0.6
	c0,0,0,0,0,0H238c-0.4,0-0.4,0-0.4,0.4v2.7c0,0.4,0,0.4,0.4,0.4h6.2c0.2,0,0.4,0,0.5,0.1c0.2,0.1,0.3,0.3,0.3,0.5v3.1
	c0,0.3-0.3,0.6-0.6,0.6c0,0,0,0,0,0h-10.7c-0.2,0-0.3,0-0.5-0.1c-0.2-0.1-0.4-0.4-0.3-0.7V22.3z"/>
<path class="st1" d="M140,24.3v7c0,0.1,0,0.2,0,0.4c0,0.3-0.3,0.6-0.6,0.6h-3.3c-0.3,0-0.6-0.2-0.7-0.6c0-0.2,0-0.4,0-0.5
	c0-4.6,0-9.2,0-13.8c0-0.5,0-0.5-0.5-0.5h-3.2c-0.6,0-0.8-0.2-0.8-0.8v-2.8c-0.1-0.4,0.2-0.8,0.6-0.8c0.1,0,0.1,0,0.2,0
	c0.4,0,0.8,0,1.1,0h10.9c0.1,0,0.3,0,0.4,0c0.3,0,0.6,0.3,0.6,0.7c0,0,0,0,0,0c0,1,0,2,0,3c0,0.3-0.2,0.6-0.6,0.7c0,0-0.1,0-0.1,0
	h-3.4c-0.4,0-0.4,0-0.4,0.4L140,24.3z"/>
</svg>
