<?xml version="1.0" encoding="utf-8"?>
<!-- Generator: Adobe Illustrator 24.0.0, SVG Export Plug-In . SVG Version: 6.00 Build 0)  -->
<svg version="1.1" id="Livello_1" xmlns="http://www.w3.org/2000/svg" xmlns:xlink="http://www.w3.org/1999/xlink" x="0px" y="0px"
	 viewBox="0 0 203 280" style="enable-background:new 0 0 203 280;" xml:space="preserve">
<style type="text/css">
	.st0{fill:#FFFFFF;}
	.st1{fill:none;stroke:#4D4E5B;stroke-miterlimit:10;}
	.st2{fill:#4D4E5B;}
</style>
<g>
	<path class="st0" d="M2,278c-1.3-1.3-2-3-2-4.8V6.7C0,3,3.1,0,6.8,0h189.4c1.8,0,3.5,0.7,4.8,2c1.3,1.2,2,3,2,4.7v266.5
		c0,1.8-0.7,3.5-2,4.7c-1.3,1.3-3,2-4.8,2H6.8C5,280,3.3,279.3,2,278z"/>
</g>
<g>
	<g>
		<path class="st1" d="M10.8,257.2"/>
	</g>
	<g>
		<g>
			<g>
				<g>
					<path class="st2" d="M2.4,277.7c-1.3-1.3-2-3-2-4.8V6.4c0-3.7,3.1-6.7,6.8-6.7h189.4c1.8,0,3.5,0.7,4.8,2c1.3,1.2,2,3,2,4.7
						v266.5c0,1.8-0.7,3.5-2,4.7c-1.3,1.3-3,2-4.8,2H7.2C5.4,279.7,3.7,279,2.4,277.7z M200.7,2.4c-1.1-1.1-2.6-1.7-4.1-1.7H7.2
						C4,0.7,1.4,3.2,1.4,6.4V273c0,3.2,2.6,5.7,5.8,5.7l0,0h189.4c1.5,0,3-0.6,4.1-1.7s1.7-2.5,1.7-4V6.4
						C202.4,4.9,201.8,3.4,200.7,2.4L200.7,2.4z"/>
				</g>
			</g>
			<g>
				<polygon class="st2" points="184.8,212.6 19.1,212.6 14.6,208.7 14.6,33.7 15.6,33.7 15.6,208.3 19.5,211.6 184.4,211.6 
					188.5,206.6 188.5,32.4 185.5,28.9 150.5,28.9 140.4,11.5 120.2,11.5 117,15.8 88.3,15.8 84.8,11.7 37.3,11.5 37.3,10.5 
					85.2,10.7 88.8,14.8 116.5,14.8 119.7,10.5 141,10.5 151.1,27.9 186,27.9 189.5,32 189.5,206.9 				"/>
			</g>
			<g>
				<g>
					<path class="st2" d="M28,72.1c-5.6,0-10.3-4.7-10.3-10.3S22.4,51.5,28,51.5s10.3,4.7,10.3,10.3S33.8,72.1,28,72.1z M28,52.5
						c-5.1,0-9.2,4.1-9.2,9.2c0,5.1,4.1,9.2,9.2,9.2s9.2-4.1,9.2-9.2C37.3,56.7,33.1,52.5,28,52.5z"/>
				</g>
			</g>
			<g>
				<g>
					<path class="st2" d="M28,75.3c-7.4,0-13.5-6.1-13.5-13.5S20.6,48.3,28,48.3s13.5,6.1,13.5,13.5S35.6,75.3,28,75.3z M28,49.6
						c-6.7,0-12.1,5.4-12.1,12.1S21.3,73.8,28,73.8s12.1-5.4,12.1-12.1C40.2,55.1,34.7,49.6,28,49.6z"/>
				</g>
			</g>
			<g>
				<g>
					<path class="st2" d="M28.4,36.6C21.6,36.6,16,31,16,24.2s5.6-12.3,12.4-12.3s12.4,5.6,12.4,12.4S35.3,36.6,28.4,36.6z
						 M28.4,13.1c-6.1,0-11,4.9-11,11s4.9,11,11,11s11-4.9,11-11C39.6,18.2,34.5,13.1,28.4,13.1z"/>
				</g>
			</g>
			<g>
				<g>
					<path class="st2" d="M28.4,40.5c-8.9,0-16.2-7.3-16.2-16.2S19.5,8.1,28.4,8.1s16.2,7.3,16.2,16.2S37.5,40.5,28.4,40.5z
						 M28.4,9.6c-8,0-14.5,6.5-14.5,14.5s6.5,14.5,14.5,14.5s14.5-6.5,14.5-14.5C43,16.3,36.4,9.6,28.4,9.6z"/>
				</g>
			</g>
			<g>
				<path class="st2" d="M185.3,235.4H18.6l-4-3.8v-13.1l2.9-3.3h168.2l3.9,3.5v13.8L185.3,235.4z M19,234.4h166l3.5-2.4v-12.9
					l-3.3-3H17.9l-2.3,2.7v12.3L19,234.4z"/>
			</g>
			<g>
				<polygon class="st2" points="189,232.7 55.5,231.8 41.3,219.1 15.1,219.1 15.1,218.1 41.7,218.1 55.9,230.8 189,231.7 				"/>
			</g>
		</g>
		<g>
			<path class="st2" d="M50,268.6H22.9v-27.1H50V268.6z M23.9,267.6H49v-25.1H23.9V267.6z"/>
		</g>
	</g>
	<g>
		<path class="st2" d="M56.8,107.3c0.6-2.3,1.1-4.6,1.7-6.8c0.1-0.3,0.5-0.6,0.8-0.7c2.2-0.1,4.4,0,6.9,0c-0.3,1.2-0.5,2.1-0.7,3.1
			s-0.5,2-0.8,3c-0.2,0.7-0.1,1.2,0.8,1.2c1.8,0,3.6,0,5.4,0c0.3,0,0.9-0.2,0.9-0.5c0.6-2.1,1.2-4.2,1.9-6.7c-1.8,0-3.3,0-4.8,0
			c-2.8,0-2.8,0.1-2-2.6c0.4-1.3,0.7-2.6,1-3.9c0.2-0.9,0.7-1.2,1.5-1.2c1.7,0,3.3,0,5,0c1,0,1.5-0.4,1.7-1.3
			c0.3-1.5,0.8-2.9,1.1-4.3c0.4-1.4,0.3-1.5-1.1-1.5c-1.5,0-2.9,0-4.4,0c-0.5,0-0.9,0-1.6-0.1c0.1-0.5,0.1-0.9,0.2-1.3
			c1.2-4.5,2.4-8.9,3.5-13.4c0.2-0.8,0.1-1.7-0.2-2.4c-2-4.6-4.2-9.1-6.3-13.6c-0.2-0.4-0.3-0.9-0.5-1.5c0.6,0,1-0.1,1.5-0.1
			c6.8,0,13.6,0,20.4,0c1.1,0,1.6,0.4,2,1.3c3.4,7.4,6.8,14.8,10.2,22.1c0.5,1.1,0.6,2.1,0.3,3.3c-2.6,9.5-5.2,19-7.8,28.5
			c-0.5,1.8-0.5,1.8,1.5,1.8c5.5,0,11.1,0,16.6,0c1,0,1.6,0.3,2.1,1.3c2.6,5.8,5.3,11.6,8,17.4c0.2,0.3,0.2,0.7,0.4,1.2
			c-16.3,0-32.4,0-48.8,0c0.6-2.4,1.2-4.6,1.8-7.1c-2.4,0-4.6,0-6.8,0c-0.2,0-0.6,0.6-0.7,0.9c-0.5,1.7-0.9,3.5-1.4,5.2
			c-0.1,0.4-0.6,1-1,1c-2.2,0.1-4.4,0-6.8,0c0.1-0.5,0.1-1,0.2-1.3c0.4-1.6,0.9-3.1,1.2-4.7c0.2-1.2,0.9-1.5,2-1.5
			c1.6,0.1,3.2,0,4.8,0c0.9,0,1.3-0.3,1.5-1.2c0.4-1.6,0.8-3.2,1.3-4.8c0.3-0.9-0.1-1.2-0.9-1.2c-1.6,0-3.3,0-4.9,0
			c-1.1,0-1.4-0.4-1.1-1.4c0.4-1.5,0.8-3,1.2-4.5c0.1-0.4,0.2-0.9,0.3-1.6C61.5,107.3,59.2,107.3,56.8,107.3L56.8,107.3z M83.3,92.4
			c-2.5,0-4.6,0-6.8,0c-0.2,0-0.6,0.3-0.7,0.5c-0.6,2.1-1.2,4.2-1.9,6.6c2.5,0,4.6,0,6.8,0c0.3,0,0.7-0.4,0.8-0.7
			C82.2,96.8,82.7,94.8,83.3,92.4z"/>
		<path class="st2" d="M98.4,52.5c0.8,0,1.3,0,1.8,0c15.2,0,30.4,0,45.6,0c1.2,0,1.9,0.4,2.5,1.3c2.5,3.5,5,6.9,7.5,10.3
			c0.6,0.8,0.8,1.6,0.5,2.6c-4.5,16.3-8.9,32.7-13.4,49c-0.2,0.6-0.5,1.2-0.9,1.6c-4,3.2-8.1,6.4-12.1,9.5c-0.1,0.1-0.3,0.2-0.6,0.3
			c-0.3-0.5-0.5-0.9-0.7-1.3c-3.3-7.3-6.7-14.5-10-21.8c-0.6-1.2-0.7-2.3-0.3-3.6c2.4-8.6,4.7-17.2,7-25.9c0.4-1.5-0.1-2.1-1.6-2.1
			c-5,0-9.9,0-14.9,0c-0.9,0-1.5-0.2-1.9-1.1c-2.7-5.8-5.3-11.7-8-17.5C98.7,53.5,98.6,53.1,98.4,52.5z"/>
		<path class="st2" d="M56.8,107.3c-0.6,2.1-1.1,4.2-1.7,6.3c-0.2,0.8-0.6,1.1-1.4,1.1c-1.8,0-3.5,0-5.3,0c-1,0-1.3-0.4-1-1.4
			c0.5-1.7,0.9-3.5,1.4-5.2c0.1-0.4,0.6-1,0.9-1C52.1,107.1,54.5,107.2,56.8,107.3L56.8,107.3z"/>
	</g>
</g>
</svg>
