<svg id="Layer_1" data-name="Layer 1" xmlns="http://www.w3.org/2000/svg" viewBox="0 0 202.91 279.46"><defs><style>.cls-1{fill:#fff;}.cls-2{fill:none;}.cls-3{fill:#4d4e5b;}</style></defs><title>DGBSUPER - card</title><path class="cls-1" d="M2,1.94A6.76,6.76,0,0,1,6.77,0H195.43a6.73,6.73,0,0,1,6.77,6.7V272.76a6.73,6.73,0,0,1-6.77,6.7H6.77A6.73,6.73,0,0,1,0,272.76V6.7A6.66,6.66,0,0,1,2,1.94Z" transform="translate(0 0)"/><polygon class="cls-2" points="202.91 12.28 202.29 12.28 202.29 12.38 202.91 12.28"/><polygon class="cls-3" points="1.11 46.99 0.09 46.17 0.09 48.1 1.11 48.92 1.11 46.99"/><polygon class="cls-3" points="201.27 12.53 202.29 12.38 202.29 12.28 201.27 12.28 201.27 12.53"/><path class="cls-3" d="M1.11,26.89a11.93,11.93,0,0,1-1-1.15V32l1,.85Z" transform="translate(0 0)"/><polygon class="cls-3" points="1.1 34.08 0.09 33.22 0.09 44.89 1.11 45.71 1.1 34.08"/><polygon class="cls-3" points="1.11 50.1 0.09 49.28 0.09 128.54 1.11 127.71 1.11 50.1"/><path class="cls-3" d="M6.86,1h4.77a12.79,12.79,0,0,1,6.78,0h9.72c-.34-.35-.7-.68-1.06-1H6.86A6.8,6.8,0,0,0,2.09,1.94a6.66,6.66,0,0,0-2,4.76V24.21c.32.45.65.89,1,1.32V6.7A5.74,5.74,0,0,1,6.85,1Z" transform="translate(0 0)"/><rect class="cls-3" x="201.27" y="241.38" width="1.02" height="6.76"/><polygon class="cls-3" points="201.27 240.38 202.29 240.38 202.29 13.31 201.27 13.46 201.27 240.38"/><path class="cls-3" d="M201.27,272.76a5.67,5.67,0,0,1-1.71,4.05,5.79,5.79,0,0,1-4.05,1.65H6.86a5.73,5.73,0,0,1-5.75-5.7V132.59l-1,.84V272.76a6.73,6.73,0,0,0,6.76,6.7H195.51a6.75,6.75,0,0,0,6.78-6.7V249.15h-1Z" transform="translate(0 0)"/><path class="cls-3" d="M29.37,1H175.3V0H28.43C28.76.32,29.06.66,29.37,1Z" transform="translate(0 0)"/><polygon class="cls-3" points="1.11 128.89 0.09 129.72 0.09 132.13 1.11 131.3 1.11 128.89"/><path class="cls-3" d="M195.51,1a5.78,5.78,0,0,1,3.82,1.44,1.93,1.93,0,0,1,1.41,1.85h0a5.5,5.5,0,0,1,.53,2.36v4.66h1V6.7A6.75,6.75,0,0,0,195.51,0h-19.3V1Z" transform="translate(0 0)"/><path class="cls-3" d="M14.43,238.79H193.31V161.7H14.43Zm1-76.09H192.31v75.09H15.43Z" transform="translate(0 0)"/><polygon class="cls-3" points="17.9 59.23 1.11 45.71 1.11 46.99 16.9 59.71 16.9 118.35 1.11 131.3 1.11 132.59 17.9 118.83 17.9 59.23"/><polygon class="cls-3" points="1.11 131.3 0.09 132.13 0.09 133.43 1.11 132.59 1.11 131.3"/><polygon class="cls-3" points="1.11 45.71 0.09 44.89 0.09 46.17 1.11 46.99 1.11 45.71"/><polygon class="cls-3" points="15.48 60.49 1.11 48.92 1.11 50.1 14.56 60.93 14.56 116.82 1.11 127.71 1.11 128.89 15.48 117.26 15.48 60.49"/><polygon class="cls-3" points="1.11 127.71 0.09 128.54 0.09 129.72 1.11 128.89 1.11 127.71"/><polygon class="cls-3" points="1.11 48.92 0.09 48.1 0.09 49.28 1.11 50.1 1.11 48.92"/><path class="cls-3" d="M13.39,32.82l-.92-.11v9.66L1.11,32.88v1.19L13.39,44.33Z" transform="translate(0 0)"/><polygon class="cls-3" points="1.1 32.88 0.09 32.03 0.09 33.22 1.1 34.08 1.1 32.88"/><path class="cls-3" d="M1.85,13.71A13.17,13.17,0,1,0,18.41,1H11.63A13.18,13.18,0,0,0,1.85,13.71Zm25.42,0A12.25,12.25,0,1,1,15,1.46,12.24,12.24,0,0,1,27.27,13.71Z" transform="translate(0 0)"/><path class="cls-3" d="M11.63,1h6.78A12.79,12.79,0,0,0,11.63,1Z" transform="translate(0 0)"/><path class="cls-3" d="M12.47,32.71v-.3h.92v.41c.54,0,1.08.08,1.63.08A19.2,19.2,0,0,0,33,20.5h-.3v-.92h.63c.13-.39.23-.79.33-1.19a4,4,0,0,1-.91-.16,18.24,18.24,0,0,1-31.59,7.3v1.36A19.07,19.07,0,0,0,12.47,32.71Z" transform="translate(0 0)"/><path class="cls-3" d="M34,10.92c-.08-.51-.17-1-.28-1.52a3.45,3.45,0,0,1-.87.3c.09.41.16.84.23,1.26a3.82,3.82,0,0,1,.68-.07Z" transform="translate(0 0)"/><path class="cls-3" d="M30.63,2.57A18,18,0,0,0,29.37,1H28.13a18.58,18.58,0,0,1,1.71,2.05A4,4,0,0,1,30.63,2.57Z" transform="translate(0 0)"/><path class="cls-3" d="M28.13,1h1.24c-.31-.34-.61-.68-.94-1H27.07C27.43.32,27.79.65,28.13,1Z" transform="translate(0 0)"/><path class="cls-3" d="M1.11,25.53c-.36-.43-.69-.87-1-1.32v1.53c.32.4.66.78,1,1.15Z" transform="translate(0 0)"/><path class="cls-3" d="M12.47,32.41v.3l.92.11v-.41Z" transform="translate(0 0)"/><path class="cls-3" d="M36.19,17.48A3.72,3.72,0,0,0,34,10.92c0,.31.1.61.13.93a2.82,2.82,0,0,1-.28,5.62c-.06.31-.15.61-.23.92h.14A3.6,3.6,0,0,0,35.4,18v-.52Z" transform="translate(0 0)"/><path class="cls-3" d="M30.92,14.65a2.83,2.83,0,0,1,2.28-2.78,6.88,6.88,0,0,0-.13-.91,3.74,3.74,0,0,0-.37,7.27c.08-.29.17-.58.23-.88A2.84,2.84,0,0,1,30.92,14.65Z" transform="translate(0 0)"/><path class="cls-3" d="M33.75,11.81h.37a7.18,7.18,0,0,0-.13-.93h-.24a3.82,3.82,0,0,0-.68.07c0,.3.1.6.13.91A2.56,2.56,0,0,1,33.75,11.81Z" transform="translate(0 0)"/><path class="cls-3" d="M33.75,17.48a2.87,2.87,0,0,1-.82-.13c-.06.3-.15.59-.23.88a4,4,0,0,0,.91.16c.08-.31.17-.61.23-.92Z" transform="translate(0 0)"/><path class="cls-3" d="M32.11,3.18a2.83,2.83,0,0,1,1.36,5.31c.09.3.17.6.24.91a3.75,3.75,0,0,0-3.08-6.83c.18.26.36.52.53.79A2.59,2.59,0,0,1,32.11,3.18Z" transform="translate(0 0)"/><path class="cls-3" d="M32.11,8.85A2.84,2.84,0,0,1,29.27,6h0a2.8,2.8,0,0,1,1.09-2.21c-.17-.26-.34-.51-.52-.76a3.74,3.74,0,0,0,2.27,6.72,3.54,3.54,0,0,0,.73-.07c-.07-.3-.15-.6-.23-.9A2.74,2.74,0,0,1,32.11,8.85Z" transform="translate(0 0)"/><path class="cls-3" d="M33.47,8.49a2.69,2.69,0,0,1-.86.31c.08.3.16.6.23.9a3.45,3.45,0,0,0,.87-.3C33.64,9.09,33.56,8.79,33.47,8.49Z" transform="translate(0 0)"/><path class="cls-3" d="M31.16,3.36c-.17-.27-.35-.53-.53-.79a4,4,0,0,0-.79.48c.18.25.35.5.52.76A2.75,2.75,0,0,1,31.16,3.36Z" transform="translate(0 0)"/><path class="cls-3" d="M181.59,14.78l-6,4.8H33.28c-.1.32-.22.62-.33.92H176l6-4.81h4.73l14.62-2.23v-.93l-14.69,2.25Z" transform="translate(0 0)"/><polygon class="cls-3" points="201.27 12.53 201.27 13.46 202.29 13.31 202.29 12.38 201.27 12.53"/><path class="cls-3" d="M32.65,20.5H33c.11-.3.23-.6.33-.92H32.7Z" transform="translate(0 0)"/><polygon class="cls-3" points="177.04 11.88 177.26 11.56 178.01 12.09 177.88 12.28 201.27 12.28 201.27 11.37 177.83 11.37 176.21 9.75 176.21 1 175.29 1 175.29 10.13 177.04 11.88"/><rect class="cls-3" x="201.27" y="11.36" width="1.02" height="0.92"/><rect class="cls-3" x="175.3" width="0.92" height="1"/><path class="cls-3" d="M177,11.88l-3.88,5.6h-137a3.48,3.48,0,0,1-.79.52l-1.65.4h140l4.24-6.12h-.43Z" transform="translate(0 0)"/><path class="cls-3" d="M35.4,17.48V18a3.48,3.48,0,0,0,.79-.52Z" transform="translate(0 0)"/><polygon class="cls-3" points="177.26 11.56 177.04 11.88 177.45 12.28 177.88 12.28 178.01 12.09 177.26 11.56"/><path class="cls-3" d="M179.87,2.36a2,2,0,0,0-1.93,1.93V7.35a1.92,1.92,0,0,0,1.93,1.93h18.94a1.92,1.92,0,0,0,1.93-1.91v-3a5.72,5.72,0,0,0-1.41-1.9,2.25,2.25,0,0,0-.52-.08Zm19.95,1.93V7.35a1,1,0,0,1-1,1H179.87a1,1,0,0,1-1-1V4.29a1,1,0,0,1,1-1h18.94a1,1,0,0,1,1,1Z" transform="translate(0 0)"/><path class="cls-3" d="M200.74,4.34h0a1.93,1.93,0,0,0-1.41-1.85A5.69,5.69,0,0,1,200.74,4.34Z" transform="translate(0 0)"/><polygon class="cls-3" points="4.92 15.37 6.58 13.71 4.92 12.04 4.92 15.37"/><polygon class="cls-3" points="25.57 12.04 23.91 13.71 25.57 15.37 25.57 12.04"/><polygon class="cls-3" points="182.29 260.69 186.47 256.52 186.41 256.52 182.24 260.69 182.29 260.69"/><polygon class="cls-3" points="186.65 245.67 184.98 244.01 184.93 244.01 186.6 245.69 186.6 248.19 186.65 248.19 186.65 245.67"/><polygon class="cls-3" points="182.68 261.61 181.32 261.61 179.46 263.47 21.48 263.47 15.43 257.42 15.43 242.62 183.31 242.4 184.01 243.09 185.36 243.09 187.56 245.29 187.56 249.11 186.6 249.11 186.6 249.35 187.56 249.35 187.56 255.36 186.6 255.36 186.6 255.6 187.56 255.6 187.56 256.73 186.95 257.34 186.95 257.4 187.6 256.74 187.6 245.28 184.02 241.69 184.02 241.89 183.02 241.89 183.02 241.4 14.93 241.62 14.43 241.62 14.43 257.83 21.07 264.47 179.88 264.47 185.95 258.4 185.95 258.34 182.68 261.61"/><rect class="cls-3" x="186.6" y="250.26" width="0.04" height="4.18"/><rect class="cls-3" x="201.27" y="240.38" width="1.02" height="1"/><polygon class="cls-3" points="183.02 241.4 183.72 241.39 184.02 241.69 184.02 241.38 193.67 241.38 193.67 240.88 194.67 240.88 194.67 241.38 201.27 241.38 201.27 240.38 183.02 240.38 183.02 241.4"/><polygon class="cls-3" points="184.02 241.89 184.02 241.69 183.72 241.39 183.02 241.4 183.02 241.89 184.02 241.89"/><polygon class="cls-3" points="195.33 248.25 194.62 248.96 194.01 248.34 194.01 252.48 188.37 258.12 186.95 258.12 186.95 257.4 185.95 258.4 185.95 259.12 188.78 259.12 195.01 252.89 195.01 249.15 201.27 249.15 201.27 248.15 195.23 248.15 195.33 248.25"/><rect class="cls-3" x="201.27" y="248.15" width="1.02" height="1"/><polygon class="cls-3" points="186.95 257.34 185.95 258.34 185.95 258.4 186.95 257.4 186.95 257.34"/><polygon class="cls-3" points="192.52 243.88 192.52 246.85 194.01 248.34 194.01 248.15 195.23 248.15 193.52 246.44 193.52 244.29 194.67 243.15 194.67 241.38 193.67 241.38 193.67 242.73 192.52 243.88"/><rect class="cls-3" x="193.67" y="240.88" width="1" height="0.5"/><polygon class="cls-3" points="194.01 248.34 194.62 248.96 195.33 248.25 195.23 248.15 194.01 248.15 194.01 248.34"/><path class="cls-3" d="M107,245.67h.5v-.77a1.34,1.34,0,0,0-1.34-1.34H87.86a1.34,1.34,0,0,0-1.34,1.34v2.47a1.34,1.34,0,0,0,1.34,1.34h18.26a1.34,1.34,0,0,0,1.34-1.34v-.78H107Zm-.5,1.7a.34.34,0,0,1-.34.34H87.86a.34.34,0,0,1-.34-.34V244.9a.34.34,0,0,1,.34-.34h18.26a.34.34,0,0,1,.34.34Z" transform="translate(0 0)"/><path class="cls-3" d="M110.22,251.93h.27v-.75a1.44,1.44,0,0,0-1.43-1.44H87.92a1.46,1.46,0,0,0-1.44,1.44v2.35A1.43,1.43,0,0,0,87.89,255h21.17a1.43,1.43,0,0,0,1.43-1.43v-.68h-.27Zm-.8,1.6a.36.36,0,0,1-.36.36H87.92a.37.37,0,0,1-.37-.36v-2.35a.37.37,0,0,1,.37-.36h21.14a.36.36,0,0,1,.36.36h0Z" transform="translate(0 0)"/><path class="cls-3" d="M103.05,256H87.79a1.23,1.23,0,0,0-1.23,1.23h0v2.61a1.24,1.24,0,0,0,1.23,1.23h15.26a1.24,1.24,0,0,0,1.23-1.23v-.78h-.41v-.92h.41v-.91A1.23,1.23,0,0,0,103.05,256Zm.32,3.84a.31.31,0,0,1-.31.31H87.79a.31.31,0,0,1-.31-.31v-2.61a.31.31,0,0,1,.31-.31h15.26a.31.31,0,0,1,.32.3h0Z" transform="translate(0 0)"/><polygon class="cls-3" points="114.36 245.67 107.46 245.67 107.46 246.59 114.36 246.59 116.92 249.11 186.6 249.11 186.6 248.19 117.3 248.19 115.2 246.13 117.32 244.01 184.93 244.01 184.01 243.09 116.94 243.09 114.36 245.67"/><polygon class="cls-3" points="184.98 244.01 186.65 245.67 186.65 248.19 186.6 248.19 186.6 249.11 187.56 249.11 187.56 245.29 185.36 243.09 184.01 243.09 184.93 244.01 184.98 244.01"/><rect class="cls-3" x="106.96" y="245.67" width="0.5" height="0.92"/><polygon class="cls-3" points="114.36 251.93 110.49 251.93 110.49 252.84 114.36 252.84 116.92 255.36 186.6 255.36 186.6 254.44 117.3 254.44 115.2 252.38 117.32 250.26 186.6 250.26 186.6 249.35 116.94 249.35 114.36 251.93"/><polygon class="cls-3" points="186.65 250.26 186.65 254.44 186.6 254.44 186.6 255.36 187.56 255.36 187.56 249.35 186.6 249.35 186.6 250.26 186.65 250.26"/><rect class="cls-3" x="110.22" y="251.93" width="0.27" height="0.92"/><polygon class="cls-3" points="117.3 260.69 115.2 258.64 117.32 256.52 186.41 256.52 186.6 256.33 186.6 255.6 116.94 255.6 114.36 258.18 104.28 258.18 104.28 259.1 114.36 259.1 116.92 261.61 181.32 261.61 182.24 260.69 117.3 260.69"/><polygon class="cls-3" points="187.56 255.6 186.6 255.6 186.6 256.33 186.41 256.52 186.47 256.52 182.29 260.69 182.24 260.69 181.32 261.61 182.68 261.61 185.95 258.34 185.95 257.19 186.95 257.19 186.95 257.34 187.56 256.73 187.56 255.6"/><polygon class="cls-3" points="185.95 257.19 185.95 258.34 186.95 257.34 186.95 257.19 185.95 257.19"/><rect class="cls-3" x="103.87" y="258.18" width="0.41" height="0.92"/><path class="cls-3" d="M101.47,53.65A35.26,35.26,0,1,1,66.24,88.93,35.35,35.35,0,0,1,101.47,53.65Zm11.84,40.8a19.86,19.86,0,0,0,1.75-2c1.54-2.33,3.46-3.49,6.33-2.44a13,13,0,0,0,2.83.34c-.85-1.47-1.47-2.75-2.29-3.9a2.8,2.8,0,0,1-.16-3.51,46.28,46.28,0,0,0,2.1-4.18c-1.83.41-3.29.65-4.7,1a2.56,2.56,0,0,1-3.06-.9c-.9-1.16-1.87-2.26-2.79-3.4l-.72.49a15.27,15.27,0,0,0-.2,2.23c.1,2.77-.83,4.79-3.7,5.66a14.59,14.59,0,0,0-2.52,1.34,30.94,30.94,0,0,0,3.57,1.59c1.8.55,2.83,1.52,2.88,3.52A32.11,32.11,0,0,0,113.31,94.45ZM94.89,66.27c-.18,1.8-.38,3.2-.42,4.62a2.79,2.79,0,0,1-1.85,2.82c-1.36.59-2.63,1.38-4.21,2.22,1.77.78,3.16,1.47,4.6,2A2.23,2.23,0,0,1,94.68,80c.17,1.57.54,3.11.82,4.69,1.62-1.55,2.88-3.6,4.63-4.2s4,.25,6.26.48a18.13,18.13,0,0,0-1.47-2.56c-1.61-2-1.79-3.94-.26-6.08A17.48,17.48,0,0,0,106,69.5a8.87,8.87,0,0,0-1.68.35c-3.39,1.51-6,.59-8.13-2.37A14.4,14.4,0,0,0,94.89,66.27ZM103.46,96c-.18,1.77-.39,3.18-.43,4.6a2.76,2.76,0,0,1-1.86,2.82c-1.34.56-2.6,1.35-4.2,2.2a43.93,43.93,0,0,0,4.3,1.91,2.75,2.75,0,0,1,2.07,2.64c.16,1.44.47,2.86.77,4.66,1.33-1.48,2.43-2.58,3.36-3.8a2.38,2.38,0,0,1,2.69-.93c1.5.31,3,.47,4.89.75a23,23,0,0,0-1.61-2.78c-1.56-1.94-1.82-3.82-.26-5.91a18.82,18.82,0,0,0,1.43-2.88,7.45,7.45,0,0,0-1.55.24c-3.5,1.54-6.29.69-8.45-2.42A7.33,7.33,0,0,0,103.46,96ZM79.69,95c1.51.67,2.84,1.37,4.23,1.86A2.71,2.71,0,0,1,86,99.52a43.93,43.93,0,0,0,.81,4.62,23.62,23.62,0,0,0,1.86-2.06c1.49-2.16,3.27-3.34,6-2.32a14,14,0,0,0,3,.4c-1.13-2-2.85-3.67-2.92-5.44s1.46-3.74,2.27-5.61c0-.09,0-.23-.06-.47-1.4.3-2.79.52-4.14.91a2.92,2.92,0,0,1-3.43-1,42.89,42.89,0,0,0-3.31-3.19A12,12,0,0,0,86,86.8c.28,3.68-1,6.34-4.77,7.38A6,6,0,0,0,79.69,95ZM92,59.3c-7,2-12.21,5.63-15.18,10.85-.44.77-.65,2.22-.11,2.47,1.5.7,2.18-.66,2.9-1.34l1-1a53.11,53.11,0,0,1,21.53-11.84C103.15,58.25,97.12,57.86,92,59.3ZM76,76.13A.91.91,0,0,0,76,76c-.1-1.15-.87-1.66-1.85-1-1.39.88-2.16,3.49-2.52,5a3,3,0,0,0,0,1.9c.54,1.24,2,.84,2.64-.06a3.56,3.56,0,0,0,.43-1l.66-2.14c.13-.42.25-.84.39-1.25A4.93,4.93,0,0,0,76,76.13Z" transform="translate(0 0)"/></svg>