<svg viewBox="0 0 203 280" xmlns="http://www.w3.org/2000/svg"><path d="m2 1.94a6.78 6.78 0 0 1 4.77-1.94h188.66a6.74 6.74 0 0 1 6.77 6.7v266.06a6.74 6.74 0 0 1 -6.77 6.7h-188.66a6.74 6.74 0 0 1 -6.77-6.7v-266.06a6.66 6.66 0 0 1 2-4.76z" fill="#fff"/><g fill="#4d4e5b"><path d="m2 1.94a6.78 6.78 0 0 1 4.77-1.94h188.66a6.74 6.74 0 0 1 6.77 6.7v266.06a6.74 6.74 0 0 1 -6.77 6.7h-188.66a6.74 6.74 0 0 1 -6.77-6.7v-266.06a6.66 6.66 0 0 1 2-4.76zm197.47 274.87a5.63 5.63 0 0 0 1.71-4.05v-266.06a5.73 5.73 0 0 0 -5.75-5.7h-188.66a5.73 5.73 0 0 0 -5.77 5.7v266.06a5.73 5.73 0 0 0 5.75 5.7h188.68a5.76 5.76 0 0 0 4.04-1.65z"/><path d="m45.14 168.94h156.05v1h-156.05z"/><path d="m45.14 180.53h156.05v1h-156.05z"/><path d="m.18 168.94h10.78v1h-10.78z"/><path d="m.18 180.53h10.78v1h-10.78z"/><path d="m0 246.18h201.19v1h-201.19z"/><path d="m77.48 114.89c.38-.5.55-1 .83-1a2.64 2.64 0 0 0 1.9-2.8c0-6.52.05-13.05.07-19.58q0-16.09.08-32.19c0-1.82-.31-2.23-2-2.92a4.1 4.1 0 0 1 -.92-.77l.22-.33h20.94v20.88h-1.45a77.14 77.14 0 0 0 -1.6-8.31 31 31 0 0 0 -3.08-6.57 5.3 5.3 0 0 0 -4.19-2.54v20.6a2.48 2.48 0 0 0 2.51-1.89 50 50 0 0 0 1.42-5.41 17.41 17.41 0 0 0 .21-1.85h1.3v25.39h-1.19c-.28-2-.43-4-.89-5.92a13.76 13.76 0 0 0 -1.64-3.68c-.29-.49-1-.73-1.81-1.3v6.12 20.24a2.42 2.42 0 0 0 1.9 2.73c.28.08.45.55.84 1.07z"/><path d="m104.73 55.23h20.82v20.94h-1.4c-.48-2.67-.88-5.34-1.46-8a15.53 15.53 0 0 0 -3.46-7.17 5.46 5.46 0 0 0 -4-2.16v20.5a2.17 2.17 0 0 0 2.39-1.58c.69-2 1.13-4.09 1.64-6.15a7.32 7.32 0 0 0 .08-1.37h1.35v25.35l-1.3.08c-.27-3.47-.2-7-2.5-9.79a7.1 7.1 0 0 0 -1.69-1.06c0 .72-.08 1.13-.08 1.55v24.31c0 1.5.31 2.68 2 3.13.19 0 .31.4.47.62-.29.17-.57.5-.86.51-2.06 0-4.12 0-6.18 0h-5.93c.36-.55.49-1 .77-1.12a2.72 2.72 0 0 0 1.88-2.93q0-20 .05-39.95c0-3.85 0-7.71.1-11.56.06-1.72-.3-2.38-2.13-3.1-.32-.13-.55-.48-.82-.74z"/><path d="m122.92 169.6-.71-.7 14.1-14.11h65.32v1h-64.91z"/><path d="m44.44 183.28h-32.72l-4.44-8.4 4.44-8.39h32.72l4.44 8.39zm-32.12-1h31.51l3.92-7.4-3.92-7.39h-31.51l-3.91 7.39z"/><path d="m189.38 28.81h-149.74l-5.16-9.75 5.16-9.75h149.74l5.16 9.75zm-149-1.16h148.3l4.55-8.59-4.55-8.58h-148.34l-4.54 8.58z"/><path d="m20.14 43.76-9.53-7.17v-26.43l9.53-7.16 9.52 7.16v26.43zm-8.4-7.76 8.4 6.31 8.39-6.31v-25.27l-8.39-6.31-8.4 6.31z"/><path d="m179.05 21.67h-5.84a.7.7 0 0 1 -.71-.7v-8.23a.72.72 0 0 1 .22-.51.7.7 0 0 1 .49-.2h5.84a.71.71 0 0 1 .71.71v8.26a.7.7 0 0 1 -.71.67zm-5.55-1h5.26v-7.67h-5.26z"/><path d="m182.72 23.89h-5.84a.71.71 0 0 1 -.71-.71v-2h1v1.72h5.26v-7.66h-3.17v-1h3.46a.71.71 0 0 1 .71.71v8.23a.71.71 0 0 1 -.71.71z"/><path d="m186.39 26.1h-5.84a.71.71 0 0 1 -.71-.71v-2h1v1.71h5.26v-7.65h-3.17v-1h3.46a.71.71 0 0 1 .71.71v8.23a.71.71 0 0 1 -.71.71z"/></g></svg>