<?xml version="1.0" encoding="utf-8"?>
<!-- Generator: Adobe Illustrator 24.0.0, SVG Export Plug-In . SVG Version: 6.00 Build 0)  -->
<svg version="1.1" id="Livello_1" xmlns="http://www.w3.org/2000/svg" xmlns:xlink="http://www.w3.org/1999/xlink" x="0px" y="0px"
	 viewBox="0 0 203 280" style="enable-background:new 0 0 203 280;" xml:space="preserve">
<style type="text/css">
	.st0{fill:#FFFFFF;}
	.st1{fill:#4D4E5B;}
	.st2{fill:none;stroke:#4D4E5B;stroke-miterlimit:10;}
</style>
<g>
	<path class="st0" d="M2,278c-1.3-1.3-2-3-2-4.8V6.7C0,3,3.1,0,6.8,0h189.4c1.8,0,3.5,0.7,4.8,2c1.3,1.2,2,3,2,4.7v266.5
		c0,1.8-0.7,3.5-2,4.7c-1.3,1.3-3,2-4.8,2H6.8C5,280,3.3,279.3,2,278z"/>
</g>
<g>
	<g>
		<path class="st1" d="M2,278c-1.3-1.3-2-3-2-4.8V6.7C0,3,3.1,0,6.8,0h189.4c1.8,0,3.5,0.7,4.8,2c1.3,1.2,2,3,2,4.7v266.5
			c0,1.8-0.7,3.5-2,4.7c-1.3,1.3-3,2-4.8,2H6.8C5,280,3.3,279.3,2,278z M200.3,2.7c-1.1-1.1-2.6-1.7-4.1-1.7H6.8C3.6,1,1,3.5,1,6.7
			v266.6c0,3.2,2.6,5.7,5.8,5.7c0,0,0,0,0,0h189.4c1.5,0,3-0.6,4.1-1.7c1.1-1.1,1.7-2.5,1.7-4V6.7C202,5.2,201.4,3.7,200.3,2.7
			L200.3,2.7z"/>
	</g>
	<g>
		<path class="st1" d="M189.1,9.2H13.9c-2,0-3.6,1.9-3.6,4.2v244.2c0,0.2,0,0.4,0,0.6c0.4,0.2,0.7,0.5,1,0.9c0-0.5-0.1-1-0.1-1.5
			V13.4c0-0.8,0.3-1.6,0.8-2.2c0.5-0.6,1.2-0.9,1.8-0.9h175.2c0.7,0,1.4,0.3,1.8,0.9c0.5,0.6,0.8,1.4,0.8,2.2v244.9
			c0.3,0,0.7,0,1,0.1V13.5C192.7,11.1,191.1,9.2,189.1,9.2z"/>
	</g>
	<g>
		<path class="st1" d="M183.2,247.9c0.1,0,0.1,0,0.2,0c0.3,0,0.5,0,0.8,0.1v-75.8H18.9v76.1c0.3-0.2,0.6-0.3,1-0.4l0-74.6h163.3
			V247.9z"/>
	</g>
	<g>
		<path class="st1" d="M17.3,167.6V34.3h167.1v133.3H17.3z M18.3,35.4v131.1h165.2V35.4L18.3,35.4z"/>
	</g>
	<g>
		<path class="st1" d="M50.9,263c0,0.4-0.1,0.8-0.2,1.1h101.5c0-0.4,0-0.8,0.1-1.1H50.9z"/>
	</g>
	<g>
		<path class="st1" d="M22.5,267.6c-5.1,0-9.3-4.2-9.3-9.3s4.2-9.3,9.3-9.3s9.3,4.2,9.3,9.3S27.6,267.6,22.5,267.6z M22.5,250
			c-4.6,0-8.3,3.7-8.3,8.3c0,4.6,3.7,8.3,8.3,8.3s8.3-3.7,8.3-8.3C30.8,253.7,27.1,250,22.5,250z"/>
	</g>
	<g>
		<path class="st1" d="M181,267.7c-5.1,0-9.3-4.2-9.3-9.3s4.2-9.3,9.3-9.3s9.3,4.2,9.3,9.3S186.2,267.7,181,267.7z M181,250
			c-4.6,0-8.3,3.7-8.3,8.3c0,4.6,3.7,8.3,8.3,8.3c4.6,0,8.3-3.7,8.3-8.3C189.4,253.8,185.6,250,181,250z"/>
	</g>
	<g>
		<path class="st1" d="M181,269.7c-6.3,0-11.4-5.1-11.4-11.4S174.8,247,181,247s11.4,5.1,11.4,11.4S187.3,269.7,181,269.7z M181,248
			c-5.7,0-10.4,4.7-10.4,10.4c0,5.7,4.7,10.4,10.4,10.4c5.7,0,10.4-4.7,10.4-10.4C191.4,252.6,186.7,248,181,248z"/>
	</g>
	<g>
		<path class="st1" d="M22.5,269.7c-6.3,0-11.4-5.1-11.4-11.4S16.2,247,22.5,247s11.4,5.1,11.4,11.4S28.8,269.7,22.5,269.7z
			 M22.5,248c-5.7,0-10.4,4.7-10.4,10.4c0,5.7,4.7,10.4,10.4,10.4s10.4-4.7,10.4-10.4C32.9,252.6,28.2,248,22.5,248z"/>
	</g>
	<g>
		<path class="st2" d="M10.8,257.2"/>
	</g>
	<g>
		<polygon class="st1" points="44.9,271.1 44.1,270.4 50,263.3 41.8,254.7 32.5,254.7 32.5,253.7 42.2,253.7 51.4,263.3 		"/>
	</g>
	<g>
		<path class="st1" d="M44.9,271.1H21.5c-2.9,0-5.7-1.2-7.6-3.4c-2.2-2.4-3.4-5.5-3.5-8.7l-0.1-3l1,0l0.1,3c0.1,3,1.2,5.8,3.2,8
			c1.7,1.9,4.2,3,6.9,3h23.4V271.1z"/>
	</g>
	<g>
		<polygon class="st1" points="158.1,271.1 151.6,263.3 160.8,253.7 171,253.7 171,254.7 161.2,254.7 152.9,263.3 158.9,270.4 		"/>
	</g>
	<g>
		<path class="st1" d="M181.5,271.1h-23.4v-1h23.4c2.6,0,5.1-1.1,6.9-3c2-2.2,3.1-5.1,3.2-8l0.1-3l1,0l-0.1,3
			c-0.1,3.2-1.3,6.3-3.5,8.7C187.2,269.9,184.4,271.1,181.5,271.1z"/>
	</g>
	<g>
		<path class="st1" d="M50.8,248.5c0,0.4-0.1,0.8-0.2,1.1h101.8c0-0.4,0-0.8,0.1-1.1H50.8z"/>
	</g>
	<g>
		<rect x="42.1" y="252" transform="matrix(0.7301 -0.6833 0.6833 0.7301 -159.73 100.4582)" class="st1" width="10.4" height="1"/>
	</g>
	<g>
		
			<rect x="155.5" y="247.3" transform="matrix(0.6836 -0.7298 0.7298 0.6836 -134.8989 193.7039)" class="st1" width="1" height="10.4"/>
	</g>
</g>
<g>
	<g>
		<path class="st1" d="M110.4,53.3c10.3,0,20.7,0,31,0c1.2,0,2.7-0.5,3.5,0.8c0.9,1.5-0.4,2.7-1.1,3.7c-2.5,3.7-5.9,6.2-10,7.9
			c-0.9,0.4-2,1-2.8,0c-1-1.3-2.3-1-3.5-1c-11.6,0-23.2,0.1-34.8,0c-2,0-3,0.2-3,2.6c0.1,8.2,0.2,16.3,0,24.5
			c-0.1,2.8,0.9,3.4,3.5,3.4c12.4-0.1,24.8-0.1,37.1-0.1c1.8,0,4.1-0.3,4.7,1.5c0.5,1.5-0.8,3.3-2.1,4.5c-1.4,1.3-2.7,2.7-4.3,3.7
			c-1.6,1-3.4,2.5-5.5,0.7c-0.5-0.4-1.5-0.2-2.2-0.2c-9.4,0-18.9,0.1-28.3,0c-2.1,0-2.9,0.6-2.8,2.8c0.2,5.7,0,11.5,0.1,17.2
			c0,1.4,0.3,2.8-1,3.9c-5.7,4.6-11.9,8-19.3,8.3c-1.9,0.1-4.2,0.2-2.1-3c1.1-1.6,1.4-3.7,1.4-5.8c0-6.6,0.1-13.3,0.2-19.9
			c0.1-12.5,0.1-25.1,0.3-37.6c0.1-3.4-0.6-6-3.7-7.6c-0.6-0.3-1.2-1-1.6-1.6c-0.9-1.2-2.6-2.4-1.9-3.9c0.4-0.9,2.3-1.1,3.7-1.2
			c1.5-0.2,3.2-0.2,4.3-0.9c5.1-3.2,10.7-2.7,16.3-2.7C94.4,53.4,102.4,53.4,110.4,53.3C110.4,53.4,110.4,53.4,110.4,53.3z"/>
	</g>
</g>
<g>
	<path class="st1" d="M179.9,32.6H23.1c-5.6,0-10.2-4.6-10.2-10.2s4.6-10.2,10.2-10.2h156.9c5.6,0,10.2,4.6,10.2,10.2
		S185.5,32.6,179.9,32.6z M23.1,13.3c-5,0-9.2,4.1-9.2,9.2c0,5,4.1,9.2,9.2,9.2h156.9c5,0,9.2-4.1,9.2-9.2c0-5-4.1-9.2-9.2-9.2H23.1
		z"/>
</g>
</svg>
