<svg viewBox="0 0 203 280" xmlns="http://www.w3.org/2000/svg"><path d="m200.69 2a6.64 6.64 0 0 1 2 4.76v266.4a6.75 6.75 0 0 1 -6.78 6.7h-188.83a6.74 6.74 0 0 1 -6.78-6.7v-266.45a6.75 6.75 0 0 1 6.78-6.71h188.84a6.75 6.75 0 0 1 4.77 2z" fill="#fff"/><g fill="#4d4e5b"><path d="m200.69 2a6.64 6.64 0 0 1 2 4.76v266.4a6.75 6.75 0 0 1 -6.78 6.7h-188.83a6.74 6.74 0 0 1 -6.78-6.7v-266.45a6.75 6.75 0 0 1 6.78-6.71h188.84a6.75 6.75 0 0 1 4.77 2zm-197.69 275.21a5.74 5.74 0 0 0 4.05 1.65h188.87a5.74 5.74 0 0 0 5.76-5.7v-266.45a5.74 5.74 0 0 0 -5.76-5.71h-188.84a5.72 5.72 0 0 0 -4.08 1.68 5.64 5.64 0 0 0 -1.69 4v266.48a5.64 5.64 0 0 0 1.69 4z"/><path d="m191.06 244.11v35.75h-180.12v-35.75zm-1 34.75v-33.75h-178.06v33.75z"/><path d="m186.4 244.11v35.75h-28.4v-35.75zm-1 34.75v-33.75h-26.4v33.75z"/><path d="m11.45 269.34h147.04v1h-147.04z"/><path d="m185.89 269.34h4.66v1h-4.66z"/><path d="m179.62 254.7a10.21 10.21 0 0 1 3.08 7.3 10.51 10.51 0 1 1 -10.51-10.31 10.58 10.58 0 0 1 7.43 3.01zm2.06 7.29a9.49 9.49 0 1 0 -9.49 9.31 9.42 9.42 0 0 0 9.49-9.31z"/><path d="m189.08 142.88a6.54 6.54 0 0 1 2 4.68v87.33a6.69 6.69 0 0 1 -6.74 6.62h-165.24a6.75 6.75 0 0 1 -4.77-1.94 6.49 6.49 0 0 1 -2-4.68v-87.33a6.69 6.69 0 0 1 6.75-6.62h165.24a6.76 6.76 0 0 1 4.76 1.94zm-174 96a5.74 5.74 0 0 0 4.05 1.64h165.19a5.68 5.68 0 0 0 5.72-5.62v-87.34a5.68 5.68 0 0 0 -5.72-5.62h-165.22a5.68 5.68 0 0 0 -5.73 5.62v87.33a5.57 5.57 0 0 0 1.68 3.98z"/><path d="m43.68 17.82a15.39 15.39 0 0 1 4.64 11 15.27 15.27 0 0 1 -4.64 11 15.88 15.88 0 0 1 -11.18 4.49 15.69 15.69 0 0 1 -15.82-15.52 15.26 15.26 0 0 1 4.63-11 16 16 0 0 1 22.37 0zm3.62 11a14.86 14.86 0 0 0 -25.3-10.3 14.31 14.31 0 0 0 0 20.53 15 15 0 0 0 20.93 0 14.27 14.27 0 0 0 4.37-10.26z"/><path d="m36.42 14.86a5.37 5.37 0 0 1 1.63 3.85 5.5 5.5 0 0 1 -5.55 5.45 5.56 5.56 0 0 1 -3.93-1.59 5.37 5.37 0 0 1 -1.63-3.86 5.52 5.52 0 0 1 5.56-5.45 5.6 5.6 0 0 1 3.92 1.6zm.58 3.85a4.54 4.54 0 0 0 -9.07 0 4.37 4.37 0 0 0 1.33 3.15 4.55 4.55 0 0 0 7.74-3.15z"/><path d="m46.19 21.83a5.4 5.4 0 0 1 -2.22 9 5.57 5.57 0 0 1 -7-3.5 5.33 5.33 0 0 1 .33-4.16 5.47 5.47 0 0 1 3.23-2.71 5.63 5.63 0 0 1 5.66 1.37zm-2.53 8.08a4.44 4.44 0 0 0 2.91-5.61 4.55 4.55 0 0 0 -5.71-2.86 4.49 4.49 0 0 0 -2.64 2.21 4.33 4.33 0 0 0 -.27 3.4 4.56 4.56 0 0 0 5.71 2.86z"/><path d="m42.45 33.08a5 5 0 0 1 .57.65 5.38 5.38 0 0 1 -1.23 7.61 5.63 5.63 0 0 1 -7.79-1.2 5.33 5.33 0 0 1 -1-4.06 5.4 5.4 0 0 1 2.22-3.55 5.64 5.64 0 0 1 7.23.55zm-7.13 7a4.6 4.6 0 0 0 5.87.45 4.39 4.39 0 0 0 1-6.21 4.59 4.59 0 0 0 -6.34-1 4.4 4.4 0 0 0 -1 6.21 4.73 4.73 0 0 0 .47.55z"/><path d="m30.39 33.08a5.38 5.38 0 0 1 .61 7.06 5.62 5.62 0 0 1 -7.75 1.2 5.39 5.39 0 0 1 -1.25-7.61 5.62 5.62 0 0 1 7.75-1.2 5.17 5.17 0 0 1 .64.55zm-7.14 7a4.89 4.89 0 0 0 .55.45 4.59 4.59 0 0 0 6.33-1 4.4 4.4 0 0 0 -1-6.21 4.6 4.6 0 0 0 -6.34 1 4.39 4.39 0 0 0 .46 5.76z"/><path d="m26.65 21.81a5.39 5.39 0 0 1 1.35 5.55 5.58 5.58 0 0 1 -7 3.49 5.48 5.48 0 0 1 -3.23-2.7 5.34 5.34 0 0 1 -.32-4.15 5.43 5.43 0 0 1 2.76-3.17 5.62 5.62 0 0 1 4.24-.33 5.68 5.68 0 0 1 2.2 1.31zm-7.12 7a4.57 4.57 0 0 0 7.47-1.76 4.43 4.43 0 0 0 -2.91-5.61 4.57 4.57 0 0 0 -3.46.27 4.42 4.42 0 0 0 -2.25 2.59 4.31 4.31 0 0 0 .27 3.39 4.11 4.11 0 0 0 .88 1.13z"/><path d="m45.79 13.52a19.62 19.62 0 0 1 5.87 12.28v.26l-.21.17a8.1 8.1 0 0 0 -2.15 10.25l.13.24-.13.28a20.28 20.28 0 0 1 -17.8 10.37 20.08 20.08 0 0 1 -20.24-19.86 20.07 20.07 0 0 1 20.24-19.85 20.42 20.42 0 0 1 14.29 5.86zm4.83 12.1a19.24 19.24 0 0 0 -38.34 1.89 19.06 19.06 0 0 0 19.22 18.86 19.29 19.29 0 0 0 16.78-9.66 9 9 0 0 1 -1-4.07 9.1 9.1 0 0 1 3.34-7.02z"/><path d="m63.33 26.12a9.13 9.13 0 0 1 2.76 6.52 9.39 9.39 0 1 1 -9.39-9.22 9.49 9.49 0 0 1 6.63 2.7zm-12.55 12.32a8.43 8.43 0 0 0 5.92 2.41 8.22 8.22 0 1 0 -8.37-8.21 8.13 8.13 0 0 0 2.45 5.8z"/><path d="m60.11 40.13.45.9-20.24 9.6-1 .47a9.31 9.31 0 0 1 -4.25.64h-.81c-12.67 0-23-10.84-23-24.18h1c0 12.78 9.86 23.18 22 23.18h.86a8.29 8.29 0 0 0 4.23-.74z"/><path d="m192.19 7.66v19.05h-129.71l-.15-.13a8.45 8.45 0 0 0 -10.87-.35l-.74.59-.09-.93a19.17 19.17 0 0 0 -19.13-17.23v-1zm-1 18.05v-17h-153.4a20.13 20.13 0 0 1 13.77 16.22 9.34 9.34 0 0 1 5.14-1.51 9.44 9.44 0 0 1 6.17 2.29z"/><path d="m189.36 10.05v14.26h-138.92l-.08-.4a18.8 18.8 0 0 0 -9.6-12.91l-1.76-.95zm-1 13.26v-12.26h-145.54a19.84 19.84 0 0 1 8.46 12.26z"/><path d="m108.17 86.46a30 30 0 0 0 7-5.25 38.11 38.11 0 0 0 -5.64 6.65c4.59 4.17 11.25 7 20.71 7.75-.14-15.84-13.36-28.66-29.71-28.79.72 7.69 2.88 14.53 7.64 19.64z"/><path d="m109.44 102.36a38.78 38.78 0 0 0 5.78 6.77 31.1 31.1 0 0 0 -7.25-5.45c-4.83 4.74-6.91 11.73-7.46 21.22 16.4-.08 29.68-13 29.78-28.86-9.55.58-16.29 2.63-20.85 6.32z"/><path d="m92.13 104.61a33.41 33.41 0 0 0 -5.7 4.52 28.68 28.68 0 0 0 4.57-5.59c-4.56-4-11.17-6.66-20.6-7.43.14 15.85 13.37 28.67 29.72 28.79-.65-8.03-2.84-15.13-7.99-20.29z"/><path d="m91.21 87.13a28.35 28.35 0 0 0 -4.78-5.92c-.32-.31-.66-.61-1-.9l.07-.06c.29.32.6.65.92 1a32.57 32.57 0 0 0 6 4.69c4.07-4.49 6.8-10.7 7.65-19.08-16.32.15-29.51 13-29.66 28.77 8.21-.83 15.48-3.39 20.8-8.5z"/><path d="m64 92.43c0-18.28 15.28-33.1 34.13-33.1 18.57 0 33.66 14.37 34.12 32.26.1-1.1.16-2.22.16-3.36 0-19.78-16.54-35.82-36.94-35.82s-36.94 16-36.94 35.82a35.86 35.86 0 0 0 23.34 33.31 33 33 0 0 1 -17.87-29.11z"/></g></svg>