<?xml version="1.0" encoding="utf-8"?>
<!-- Generator: Adobe Illustrator 24.0.0, SVG Export Plug-In . SVG Version: 6.00 Build 0)  -->
<svg version="1.1" id="Livello_1" xmlns="http://www.w3.org/2000/svg" xmlns:xlink="http://www.w3.org/1999/xlink" x="0px" y="0px"
	 viewBox="0 0 203 280" style="enable-background:new 0 0 203 280;" xml:space="preserve">
<style type="text/css">
	.st0{fill:#FFFFFF;}
	.st1{fill:#4D4E5B;}
	.st2{fill:none;stroke:#4D4F5C;stroke-miterlimit:10;}
	.st3{fill:none;stroke:#4D4F5C;stroke-width:2;stroke-miterlimit:10;}
	.st4{fill:none;stroke:#4D4E5B;stroke-width:2;stroke-miterlimit:10;}
	.st5{fill:none;stroke:#4D4E5B;stroke-miterlimit:10;}
</style>
<path class="st0" d="M2,278.3c-1.3-1.3-2-3-2-4.8V7c0-3.7,3.1-6.7,6.8-6.7h189.4c1.8,0,3.5,0.7,4.8,2c1.3,1.2,2,3,2,4.7v266.5
	c0,1.8-0.7,3.5-2,4.7c-1.3,1.3-3,2-4.8,2H6.8C5,280.3,3.3,279.6,2,278.3z"/>
<image style="overflow:visible;" width="1280" height="720" xlink:href="E479A32C.jpg"  transform="matrix(1 0 0 1 -7509 -7808)">
</image>
<g>
	<path class="st1" d="M201,2.3c-1.3-1.3-3-2-4.8-2H6.8C3.1,0.3,0,3.3,0,7c0,0,0.7,100.8,1,100.6V7c0-3.2,2.6-5.7,5.8-5.7h189.4
		c1.5,0,3,0.6,4.1,1.7c1.1,1.1,1.7,2.5,1.7,4v266.6c0,1.5-0.6,2.9-1.7,4c-1.1,1.1-2.6,1.7-4.1,1.7H37.7l158.5,1c1.8,0,3.5-0.7,4.8-2
		c1.3-1.2,2-3,2-4.7V7.1C203,5.3,202.3,3.6,201,2.3z"/>
	<path class="st1" d="M41.6,42.4v56.6l0,0.2c0.3,0,0.6,0.1,0.8,0.1V43.9h142.8v147c0.3-0.1,0.6-0.1,0.8-0.2V42.4H41.6z"/>
	<path class="st1" d="M59.3,223.8H42.4l-0.8,1.5h16.3C58.7,224.7,58.3,224.2,59.3,223.8z"/>
	<path class="st1" d="M75.2,223.8c1,0.4-0.4,0.9,0.4,1.5h75c0.3-0.5,0.7-1,1.1-1.5H75.2z"/>
	<polyline class="st2" points="185.8,43.8 167,58.7 166.4,197.2 	"/>
	<path class="st3" d="M151.8,225.3c0-18.9,15.3-34.2,34.2-34.2"/>
</g>
<g>
	<path class="st4" d="M16.9,241.6c1.8-0.1,3.6-0.2,5.5-0.2c1.6,0,2.9,0.8,4,2c1.2,1.2,2.5,2.3,3.8,3.4c0.9,0.7,1,1.4,0.5,2.4
		c-1.1,2.1-2.2,4.2-3.1,6.4c-1.6,3.6-2.9,7.4-2.9,11.4c0,2.1,0.8,3,2.8,3.8c8.8,3.2,17.9,3.9,27.2,3.8c2.7,0,5.5-0.3,8.1-0.8
		c2.5-0.5,3.4-2.2,2.8-4.6c-1.3-5.3-5-8.3-9.6-10.6c-2.2-1.1-2.5-1.3-1.9-3.7c0.1-0.6,0.4-1.2,0.6-1.8c2.1-5.8,1.6-11.3-1.8-16.4
		c-1.7-2.5-4-4.6-6-6.8c-1.4-1.6-2.8-3.1-4.1-4.8c-0.4-0.5-0.4-1.4-0.3-2c1.2-4.3,2.4-8.5,3.7-12.7c0.4-1.4,0.9-1.7,2.2-0.9
		c4.9,3.3,8.9,7.3,10.2,13.3c0.1,0.6-0.2,1.3-0.4,2c-0.8,2.1-1.8,4.1-2.4,6.3c-0.5,1.6,0.1,3.2,1.6,4.2c2.1,1.5,3.9,3.3,5.7,5.2
		c1.6,1.6,3.5,3,5.9,2.9c1.8-0.1,3.7-0.3,5.5-0.6c1.3-0.2,2.4-1,2.7-2.4c0.2-1.3,0.4-2.7,0.3-4c-0.2-2.4-0.4-4.7-0.9-7
		c-2.9-13.3-8.1-25.4-18.4-34.9c-3.1-2.8-5.9-5.8-9.3-7.5c4-1.3,8.3-2.4,12.3-4.2c6.1-2.9,10.8-7.4,12.7-14.1c0.9-3.1,1-6.4,1.5-9.6
		c0.1-0.5,0.3-1.1,0.7-1.3c1.7-1,2.6-2.6,3.3-4.3c1.2-3.3,1.6-6.7,1.6-10.1c0-2.4-0.3-4.6-1.7-6.6c-1.2-1.7-2.9-2.1-4.4-2.3
		c-1-5.1-1.7-9.9-3-14.7c-1.5-5.7-4-11-9-14.7c-4.2-3.1-16.3-5.1-21.3-5.7"/>
</g>
<g>
	<path class="st1" d="M2,278.3c-1.3-1.3-2-3-2-4.8V7c0-3.7,3.1-6.7,6.8-6.7h189.4c1.8,0,3.5,0.7,4.8,2c1.3,1.2,2,3,2,4.7v266.5
		c0,1.8-0.7,3.5-2,4.7c-1.3,1.3-3,2-4.8,2H6.8C5,280.3,3.3,279.6,2,278.3z M200.3,3c-1.1-1.1-2.6-1.7-4.1-1.7H6.8C3.6,1.3,1,3.9,1,7
		v266.6c0,3.2,2.6,5.7,5.8,5.7c0,0,0,0,0,0h189.4c1.5,0,3-0.6,4.1-1.7c1.1-1.1,1.7-2.5,1.7-4V7C202,5.5,201.4,4.1,200.3,3L200.3,3z"
		/>
</g>
<path class="st1" d="M154.8,128.4c-2.2,2.3-5.1,2.9-8.4,1.2c-0.4-0.2-1.3,0.4-1.8,0.8c-6,5.2-12.1,10.4-18,15.7
	c-1.2,1.1-2.1,1.1-3.4,0.3c-12.8-7.2-25.6-14.3-38.4-21.4c-1.2-0.7-1.5-1.3-1.3-2.6c1.3-8,2.5-16,3.7-24c0.2-1.1-0.1-1.8-1-2.4
	c-2.5-1.7-3.4-4.9-2.4-7.6c1-2.8,3.7-4.5,6.7-4.4c2.7,0.2,5.1,2.3,5.8,5c0.7,2.9-0.5,5.6-3.1,7.4c-0.5,0.4-1.2,1.2-1.1,1.7
	c0.3,3.9,0.8,7.8,1.3,11.6c0,0.2,0.1,0.4,0.2,0.6c1.4,4.6,4.2,5.4,7,1.6c3.2-4.4,5.8-9.3,8.5-14c0.3-0.4-0.3-1.5-0.7-2.1
	c-1.7-2.5-1.9-5.7-0.3-8.2c1.5-2.4,4.4-3.7,7.2-3.2c2.9,0.5,5.2,2.7,5.8,5.6c0.8,4-1.7,7.8-5.9,8.5c-1.3,0.2-1.8,0.7-2.1,1.9
	c-0.9,4.3-2,8.6-2.9,13c-0.1,0.6-0.1,1.3-0.1,2c0.2,5.7,3.9,7.9,8.4,4.4c4.2-3.2,7.7-7.3,11.4-11.1c0.3-0.3,0.1-1.4-0.1-2.1
	c-1.2-3.3-0.1-6.7,2.7-8.6c2.7-1.8,6.3-1.5,8.7,0.6c2.2,2,3,5.3,1.9,8c-1.3,3.1-4.2,4.9-7.5,4.4c-1.4-0.2-2.1,0.2-2.6,1.3
	c-2.2,4.5-4.5,9-6.6,13.5c-0.7,1.6-1.2,3.6,0.2,5.1c1.4,1.5,3.4,1.1,5.1,0.4c3.7-1.6,7.3-3.4,10.9-5.2c0.4-0.2,0.8-1,0.8-1.5
	c0.2-3.7,1.9-6.2,5.1-7c3.2-0.8,5.9,0.7,7.6,4.2l0,0c0,0,0,0.1,0.1,0.1C157.2,124.6,155.4,127.8,154.8,128.4z"/>
<rect x="88.9" y="9.4" class="st5" width="68.5" height="27.9"/>
<circle class="st5" cx="178.1" cy="23.3" r="17.2"/>
<path class="st5" d="M58.2,236.7h-3.7c1.1,2.2,1.5,4.7,1.4,7.2c-0.1,4.3,0,5.9-2,12.1c0.9,0.7,0.9,1.5,1.5,2.4
	c1.7,0.5,3.2,1.4,4.5,2.5c2.2,1.2,3.8,3.1,4.9,5.2H186v-29.4l-108.5-0.4"/>
<ellipse class="st0" cx="47.1" cy="37.4" rx="35.1" ry="23.4"/>
<g>
	<path class="st1" d="M23.7,73.5c0.1-1.7,0.2-3.1,0.3-4.6c0.3-3.5,0.5-7,0.8-10.5c0-0.6-0.2-0.8-0.7-1.1c-5.3-2.6-10-6.1-13.3-11
		c-5.2-7.8-5.7-16-1.1-24.3c0.3-0.6,0.3-0.9-0.2-1.4c-1.5-1.4-3-2.9-4.5-4.5c0.3-0.2,0.5-0.3,0.8-0.4c4.2-1.7,8.4-3.5,12.7-5.2
		c2-0.8,4.1-1.2,6.2-1.8c0.4-0.1,0.7-0.2,1.1-0.3C39.6,2.8,53.4,2.9,67,9c1.7,0.7,3.2,1.7,4.9,2.6c0.1-0.2,0.2-0.4,0.4-0.7
		c3.8,1.3,7.6,2.6,11.5,3.9c-0.8,1.8-1.5,3.4-2.3,5.1c-0.3,0.7-0.3,1.1,0.1,1.8c5.4,9.2,4,20.1-3.6,28c-6.1,6.4-13.8,9.9-22.4,11.6
		c-6.4,1.3-12.9,1.3-19.4,0.1c-0.7-0.1-1.2,0-1.7,0.6c-3.4,3.7-6.8,7.3-10.2,10.9C24.2,73,24.1,73.2,23.7,73.5z M74.3,33.2
		c0.3,0.7,0.8,1.5,1,2.3c0.7,3.3-1.9,6.7-5.6,7.4c-3.7,0.7-6.5-2.2-5.5-5.8c0.3-1,0.9-2.1,1.6-2.9c0.9-0.9,2-1.5,3.1-2.3
		c-0.4-0.1-0.9-0.3-1.5-0.4c0.2-1.1,0.5-2.2,0.7-3.5c-3,1.9-5.9,3.1-9.1,3.8c-0.7,0.1-0.9,0.4-1.1,1c-0.6,2.6-1.3,5.2-2,7.8
		c-0.1,0.6-0.4,0.8-1,0.9c-2,0.3-4,0.6-5.9,0.9c-1.5,0.2-3,0.5-4.6,0.7c0.3-1.4,0.5-2.6,0.7-3.9c-5.8,2.2-11.1,2.4-15.8-2.7
		c0.2,1.4,0.4,2.6,0.6,3.8c0.1,0.6,0,0.9-0.6,1.1c-3.4,1.5-6.7,3.1-10,4.7c-0.2,0.1-0.4,0.1-0.6,0.2c-1.8-7.8-3.7-15.6-5.4-23.2
		c-0.7-0.1-1.3-0.2-2-0.2c-0.1,0.1-0.3,0.4-0.4,0.7C7,31.4,7.8,38.9,12.7,45.9c3.3,4.7,7.9,7.9,13.1,10.3c0.6,0.3,0.9,0.6,0.8,1.3
		c-0.3,3.3-0.5,6.5-0.7,9.8c0,0.3,0,0.7,0,1.2c0.3-0.3,0.5-0.5,0.7-0.7c2.5-2.6,5-5.2,7.4-7.9c0.5-0.6,1-0.7,1.7-0.6
		c8.8,1.8,17.5,1.3,26-1.6c6.1-2.1,11.6-5.3,15.8-10.3c5.6-6.7,7.2-14.1,3.8-22.4c-0.3-0.7-0.7-1.4-1.1-2.2c-0.2,0.5-0.4,0.8-0.5,1
		c-1.2,2.7-2.4,5.3-3.6,8C75.6,33.3,75.6,33.3,74.3,33.2z M47.2,40.2c0.4,0,0.7,0,1-0.1c1.7-0.2,3.3-0.4,5-0.5c0.6,0,0.9-0.3,1-0.9
		c0.6-2.6,1.3-5.3,2-7.9c0.1-0.6,0.4-0.8,1-0.9c3.9-0.7,7.5-1.8,10.5-4.6c3.5-3.3,3.3-7.3-0.2-10.5C65.1,12.7,62,12.2,59,12
		c-2.3-0.2-4.7-0.2-7-0.2c-1,0-2,0-3.1,0c0.3,1.1,0.6,2.1,0.8,3c0.3,1.1,0.6,2,2,1.7c0.1,0,0.2,0.1,0.3,0.2c-0.3,1.5-0.6,3.1-1,4.9
		c-0.3-0.4-0.5-0.6-0.7-0.8c-1.5-2.1-3.7-3.2-6.2-3.4c-6.3-0.5-12.2,4-14,9.7c-1.7,5.2,1,10.2,6.2,11.3c3,0.6,5.8,0,8.4-1.5
		c4-2.3,6.6-5.5,7.2-10.2c0.1-1,0-2.1,0-3.4c0.2,0.9,0.4,1.5,0.5,2.2c0.3,3.8-1.1,6.9-3.6,9.6c-0.3,0.3-0.6,0.6-0.6,0.9
		C47.8,37.2,47.5,38.6,47.2,40.2z M20.4,43.6c0.2-0.1,0.3-0.1,0.4-0.1c2.2-1.1,4.4-2.1,6.5-3.2c0.2-0.1,0.4-0.6,0.3-0.8
		c-0.4-2.6-0.8-5.1-1.3-7.7c-0.1-0.8,0-1.2,0.7-1.5c0.3-0.1,0.5-0.3,0.7-0.5c0.3-0.4,0.8-0.7,0.9-1.2c1-4.3,3.6-7.4,7.4-9.5
		c1.4-0.8,1.5-0.9,1.4-2.5c0-0.4-0.1-0.9-0.3-1.3c-1-2.6-3.1-3.9-5.7-4.4c-3.8-0.8-7.5-0.1-11,1.2c-2.4,0.9-4.7,1.8-7.1,2.8
		c-1.5,0.6-3,1.3-4.6,2c1,1,2,1.8,2.8,2.7c0.7,0.8,1.4,1.2,2.4,0.6c0.2-0.1,0.5-0.1,0.8-0.2C16.7,27.9,18.5,35.7,20.4,43.6z M31,8.4
		c0,0.1,0,0.2,0,0.2c4,0.9,7.2,2.9,8.6,7c2.7-0.6,5.4-0.5,8.1,0.5c-0.7-2.2-1.3-4.3-1.9-6.4c1.6,0,3.1,0,4.6,0
		c3.5,0.1,7.1,0.1,10.6,0.4c3.3,0.3,6.4,1.5,8.7,4c0.4,0.4,0.7,0.8,1.1,1.3c0.7-1.5,0.7-1.7-0.6-2.4c-1.6-0.9-3.1-1.8-4.7-2.6
		c-9.6-4.3-19.5-5.2-29.8-3.2C34.2,7.5,32.6,8,31,8.4z M80.8,16.3c-0.4-0.1-0.7-0.3-1-0.4c-1.5-0.5-2.9-0.9-4.4-1.5
		c-2.1-0.8-2.1-0.7-2.6,1.5c-0.7,3.3-1.4,6.7-2.2,10c-0.3,1.3-0.7,2.7-1.1,4.1c1.3,0.3,2.6,0.5,3.9,0.9c0.7,0.2,1,0,1.3-0.7
		c1.5-3.5,3-6.9,4.4-10.3C79.9,18.7,80.3,17.6,80.8,16.3z M69.1,41.1c2,0,4.2-1.8,4.4-3.8c0.2-1.5-0.9-3.1-2.4-3.5
		c-1.9-0.5-4.4,1.1-5.1,3.2C65.5,39.1,67,41,69.1,41.1z"/>
	<path class="st1" d="M42.7,22c2.6-0.1,4.2,2,3.8,4.6c-0.5,2.5-2.9,4.8-5.5,5c-2.6,0.2-4.5-1.9-4-4.5C37.5,24.2,39.9,22.1,42.7,22z
		 M39.1,27.5c0,1.2,1,2.2,2.2,2.1c1.4-0.1,2.8-1.4,3-2.8c0.2-1.3-0.7-2.4-2-2.4C40.7,24.3,39.1,25.9,39.1,27.5z"/>
	<path class="st1" d="M57.8,25.4c0.5-2.3,0.9-4.3,1.4-6.4c0-0.2,0.5-0.4,0.7-0.4c0.9,0.2,1.8,0.5,2.6,0.9c1.7,0.9,1.9,2.6,0.6,3.9
		c-0.8,0.8-1.7,1.3-2.8,1.5C59.5,25.1,58.7,25.2,57.8,25.4z M60.6,20.7c-0.2,0.8-0.4,1.6-0.5,2.5c1.3-0.1,2.2-0.8,2.1-1.5
		C62.1,20.8,61.4,20.8,60.6,20.7z"/>
	<path class="st1" d="M25.5,25.7c-0.4-1.6-0.7-3.1-1.1-4.5c-0.2-0.7-0.3-1.4-0.5-2.1c-0.1-0.4-0.1-0.8,0.4-0.9
		c1.3-0.1,2.6-0.3,3.9-0.2c1.5,0.1,2.5,1.6,2.2,3.1c-0.3,1.1-0.8,2-1.8,2.6C27.6,24.4,26.6,25,25.5,25.7z M26,19.9
		c0.2,0.9,0.4,1.8,0.6,2.8c1.6-0.6,2.3-1.6,2-2.4C28.3,19.5,27.4,19.4,26,19.9z"/>
</g>
</svg>
