<svg viewBox="0 0 203 280" xmlns="http://www.w3.org/2000/svg"><path d="m2 278a6.67 6.67 0 0 1 -2-4.75v-266.54a6.76 6.76 0 0 1 6.8-6.71h189.43a6.8 6.8 0 0 1 4.77 2 6.62 6.62 0 0 1 2 4.74v266.54a6.6 6.6 0 0 1 -2 4.74 6.76 6.76 0 0 1 -4.8 2h-189.4a6.85 6.85 0 0 1 -4.8-2.02z" fill="#fff"/><g fill="#4d4e5b"><path d="m2 278a6.67 6.67 0 0 1 -2-4.75v-266.54a6.76 6.76 0 0 1 6.8-6.71h189.43a6.8 6.8 0 0 1 4.77 2 6.62 6.62 0 0 1 2 4.74v266.54a6.6 6.6 0 0 1 -2 4.74 6.76 6.76 0 0 1 -4.8 2h-189.4a6.85 6.85 0 0 1 -4.8-2.02zm198.31-275.32a5.76 5.76 0 0 0 -4.08-1.68h-189.43a5.76 5.76 0 0 0 -5.8 5.71v266.57a5.75 5.75 0 0 0 5.8 5.72h189.43a5.72 5.72 0 0 0 4.08-1.68 5.61 5.61 0 0 0 1.7-4v-266.61a5.62 5.62 0 0 0 -1.7-4.03z"/><path d="m15.79 249.21-.9-1a33.84 33.84 0 0 1 -8.21-22v-213.29a3.72 3.72 0 0 1 3.74-3.69h182.19a3.72 3.72 0 0 1 3.73 3.69v213.27a33.64 33.64 0 0 1 -9.79 23.7l-.87.89v-73.59h-169.89zm178.74-238.21a2.76 2.76 0 0 0 -1.92-.78h-182.19a2.69 2.69 0 0 0 -1.92.78 2.63 2.63 0 0 0 -.8 1.89v213.3a32.72 32.72 0 0 0 7.07 20.24v-70.24h171.92v72.08a32.54 32.54 0 0 0 8.63-22.08v-213.27a2.66 2.66 0 0 0 -.79-1.92z"/><path d="m14.77 155.85v-123.74h171.92v123.74zm1-122.73v121.72h169.91v-121.72z"/><path d="m12.83 28.94a9.37 9.37 0 0 1 -2.23-6.57 10.7 10.7 0 0 1 1.29-5.31 4.06 4.06 0 0 1 3.39-2.35h170.91c2.62 0 4.68 3.37 4.68 7.66a10.77 10.77 0 0 1 -1.29 5.32 4.09 4.09 0 0 1 -3.39 2.31h-170.91a3.49 3.49 0 0 1 -2.45-1.06zm175.06-12.43a2.42 2.42 0 0 0 -1.7-.8h-170.91a3.14 3.14 0 0 0 -2.51 1.85 9.78 9.78 0 0 0 -1.15 4.81c0 3.63 1.68 6.63 3.66 6.63h170.91a3.1 3.1 0 0 0 2.5-1.84 9.68 9.68 0 0 0 1.16-4.82 8.52 8.52 0 0 0 -1.96-5.83z"/><path d="m12.83 172.16a9.38 9.38 0 0 1 -2.23-6.57 10.77 10.77 0 0 1 1.29-5.32 4.08 4.08 0 0 1 3.39-2.35h170.91a4.09 4.09 0 0 1 3.39 2.35 11.59 11.59 0 0 1 0 10.63 4.07 4.07 0 0 1 -3.39 2.35h-170.91a3.52 3.52 0 0 1 -2.45-1.09zm175.06-12.44a2.45 2.45 0 0 0 -1.7-.79h-170.91a3.13 3.13 0 0 0 -2.51 1.84 9.79 9.79 0 0 0 -1.15 4.82c0 3.61 1.68 6.66 3.66 6.66h170.91a3.11 3.11 0 0 0 2.5-1.85 9.64 9.64 0 0 0 1.16-4.81 8.53 8.53 0 0 0 -1.96-5.87z"/><path d="m92.38 264.56a3 3 0 0 1 -1-2.13c0-2.62 4.12-4.66 9.36-4.66s9.36 2.05 9.36 4.66-4.11 4.65-9.36 4.65c-3.74 0-6.83-1.01-8.36-2.52zm0-2.13c0 2 3.82 3.65 8.34 3.65s8.34-1.67 8.34-3.65-3.81-3.66-8.34-3.66-8.34 1.68-8.34 3.66z"/><path d="m14.77 260.59v-84.4h171.92v74.29h-27.49a3.11 3.11 0 0 0 -2.51 1.85 9.72 9.72 0 0 0 -1.15 4.81 11.07 11.07 0 0 0 .36 2.82l.16.63h-42.38l-.13-.33c-1.06-2.8-6.57-4.9-12.82-4.9s-11.76 2.11-12.82 4.9l-.12.33zm1-83.4v82.39h71.33c1.48-3.05 7.1-5.23 13.63-5.23s12.15 2.18 13.64 5.23h40.4a11.61 11.61 0 0 1 -.25-2.44 10.77 10.77 0 0 1 1.29-5.32 4.08 4.08 0 0 1 3.39-2.35h26.48v-72.28z"/><path d="m156.77 263.72a6.33 6.33 0 0 1 -1-1.26 11.61 11.61 0 0 1 0-10.64 4.08 4.08 0 0 1 3.39-2.35h27c2.62 0 4.68 3.37 4.68 7.67a10.77 10.77 0 0 1 -1.29 5.32 4.09 4.09 0 0 1 -3.39 2.35h-27a3.44 3.44 0 0 1 -2.39-1.09zm29.42-13.24h-27a3.11 3.11 0 0 0 -2.51 1.85 10.66 10.66 0 0 0 0 9.63 3.11 3.11 0 0 0 2.51 1.84h27a3.1 3.1 0 0 0 2.5-1.84 9.68 9.68 0 0 0 1.16-4.82c0-3.61-1.68-6.66-3.66-6.66z"/><path d="m72.09 93.34c0-.49.11-1 .15-1.46.43-5.12.83-10.25 1.29-15.37.33-3.72.72-7.43 1.1-11.14.07-.71.21-1.42.32-2.13h.18c.12.65.27 1.29.35 1.95.41 3.09.78 6.18 1.2 9.27a73.89 73.89 0 0 0 2.21 11.54c.19.61.41 1.21.63 1.83 1.07-.37 2.08-.7 3.09-1.07.12 0 .21-.24.26-.39a34.62 34.62 0 0 0 1.51-6.37c.47-2.94.92-5.88 1.28-8.83.46-3.75.81-7.5 1.22-11.25q.42-3.78.85-7.54a1.26 1.26 0 0 1 .17-.54c0 .34.11.68.14 1 .36 3.73.69 7.46 1 11.19.54 5.45 1.06 10.91 2 16.32.23 1.4.61 2.78.91 4.17.07.34.24.44.59.4.9-.11 1.8-.18 2.71-.24.26 0 .35-.11.43-.35a42 42 0 0 0 1.52-6.82c.42-3 .84-6 1.11-9 .42-4.69.73-9.39 1.06-14.09.24-3.37.44-6.75.67-10.12.06-.73.19-1.46.28-2.19h.15c.08.46.19.93.23 1.39q.26 2.91.45 5.82c.25 3.89.45 7.78.73 11.67.22 3.17.47 6.33.81 9.49a80.8 80.8 0 0 0 2.2 13c.3 1.11.29 1.12 1.41 1.24l2.29.2a.89.89 0 0 0 .22 0c.27-1.19.62-2.4.81-3.64.5-3.37 1-6.75 1.37-10.13.43-3.71.75-7.43 1.11-11.14q.38-3.86.76-7.72a.75.75 0 0 1 .16-.45c.1.63.21 1.26.27 1.89.29 2.75.56 5.51.86 8.26.32 3 .6 6 1 9q.74 5.41 1.63 10.81c.25 1.47.72 2.9 1.08 4.35a1 1 0 0 0 .79.8c.88.25 1.73.59 2.65.91.2-.54.41-1.07.58-1.61a51.06 51.06 0 0 0 1.77-8.25c.6-4.28 1.13-8.56 1.71-12.84.08-.65.24-1.28.36-1.92h.13c.05.21.11.42.15.64a5.37 5.37 0 0 1 .11.7c.47 4.67 1 9.34 1.39 14 .41 4.51.75 9 1.13 13.54 0 .4 0 .81.09 1.21s-.06.38-.3.49c-1.29.57-2.59 1.12-3.85 1.76a35.85 35.85 0 0 0 -8.17 5.8 44.07 44.07 0 0 0 -9.8 13.62 56.81 56.81 0 0 0 -4.25 13.44 98 98 0 0 0 -1.35 10.62c-.09 1.1-.27 2.19-.41 3.28h-.25c-.11-.74-.26-1.48-.33-2.23a99 99 0 0 0 -1.73-13 56.72 56.72 0 0 0 -3.55-11.22 44.8 44.8 0 0 0 -9.46-13.79 37.81 37.81 0 0 0 -10.22-7.1c-1-.46-2-.82-3-1.22z"/></g></svg>