<?xml version="1.0" encoding="utf-8"?>
<!-- Generator: Adobe Illustrator 24.0.0, SVG Export Plug-In . SVG Version: 6.00 Build 0)  -->
<svg version="1.1" id="Layer_1" xmlns="http://www.w3.org/2000/svg" xmlns:xlink="http://www.w3.org/1999/xlink" x="0px" y="0px"
	 viewBox="0 0 203 280" style="enable-background:new 0 0 203 280;" xml:space="preserve">
<style type="text/css">
	.st0{fill:#FFFFFF;}
	.st1{fill:none;stroke:#4D4E5B;stroke-width:2;stroke-miterlimit:10;}
	.st2{fill:#4D4E5B;}
</style>
<path class="st0" d="M193.6,279.4H9.4c-4.5,0-8.1-3.6-8.1-8.1V8.7c0-4.5,3.6-8.1,8.1-8.1h184.2c4.5,0,8.1,3.6,8.1,8.1v262.5
	C201.8,275.8,198.1,279.4,193.6,279.4z"/>
<title>DGB - card</title>
<g>
	<path class="st1" d="M200.7,2c1.3,1.3,2,3,2,4.8v266.4c0,3.7-3.1,6.7-6.8,6.7H7.1c-3.7,0-6.8-3-6.8-6.7l0,0V6.8
		c0-3.7,3.1-6.7,6.8-6.7h188.8C197.7,0,199.4,0.7,200.7,2z M3,277.3c1.1,1.1,2.5,1.7,4.1,1.6H196c3.2,0,5.7-2.5,5.8-5.7V6.8
		c0-3.2-2.6-5.7-5.8-5.7H7.1c-1.5,0-3,0.6-4.1,1.7s-1.7,2.5-1.7,4v266.5C1.3,274.7,1.9,276.2,3,277.3L3,277.3z"/>
	<path class="st1" d="M55.1,10.9"/>
</g>
<g>
	<path class="st2" d="M78.1,114.1c0,1.5,0.1,3.1,0,4.6c-0.1,3-0.4,6-0.5,8.9c-0.2,4.4,0.4,4.9,5.6,5.6c0.7,0.1,1.5,0,2.1,0.3
		c1.3,0.6,1.9,1.7,1.8,3.2c0,2.3,0.1,4.6,0,6.8c-0.1,1-0.3,2.3-0.9,3c-1.5,1.8-3.1,3.8-5.1,5c-1.5,0.9-3.8,1-5.7,1
		c-7.2,0.1-14.5,0-21.7,0c-1.4,0-2.8,0.1-4.1,0c-2.6-0.2-3.8-1.6-3.8-4.2c0-2.1,0.1-4.2,0-6.3c-0.1-1.4,0.4-2.5,1.4-3.5
		c1.3-1.2,2.4-2.6,3.7-3.6c0.9-0.7,2-1.3,3.1-1.6c1.3-0.4,2.1-0.9,2.2-2.4c0.2-3.9,0.6-7.8,0.9-11.8c0.4-5.8,0.9-11.6,1.3-17.5
		C58.8,97.9,59,94,59.1,90c0.1-2.1,0-4.2,0-6.4c0-1.8-1.3-2.6-2.9-2.9c-1.6-0.3-3.3-0.6-4.9-0.9c-1.6-0.3-2.4-1.3-2.4-2.9
		c0-2.6,0-5.3,0-7.9c0-0.2,0-0.4,0-0.5c0.4-2.7,5.9-7.5,8.6-7.5c10.6,0,21.3,0,31.9,0c1.8,0,3,0.8,3.5,2.5c3.1,8.5,6.2,17,9.3,25.5
		c0.4,1,0.7,2,1.1,3c0.1,0.2,0.3,0.4,0.5,0.7c0.2-0.2,0.5-0.4,0.6-0.7c2.8-7.7,5.6-15.3,8.4-23c1.2-3.4,4-5.4,6.6-7.6
		c0.5-0.4,1.4-0.4,2.1-0.4c10.2,0,20.3,0,30.5,0c2.5,0,3.6,1.1,3.7,3.6c0,2.2,0,4.3,0,6.5c0,0.5,0,1-0.2,1.4
		c-1.9,3.5-4.2,6.6-8.3,7.5c-1.2,0.3-1.4,0.9-1.4,1.9c0.1,3.1,0.3,6.2,0.5,9.3c0.2,4.2,0.5,8.3,0.7,12.5c0.6,8.2,1.2,16.4,1.8,24.6
		c0.2,2.3,1.2,3.9,3.7,4.3c1,0.2,2,0.5,3,0.7c2.1,0.5,2.7,1.2,2.8,3.3c0,2.4,0.2,4.8-0.1,7.2c-0.1,1.2-0.6,2.7-1.4,3.5
		c-1.6,1.7-3.5,3.1-5.4,4.5c-0.6,0.4-1.5,0.5-2.2,0.5c-10.9,0-21.8,0-32.7,0c-1.9,0-3.7,0.2-5.6,0.1c-2.3-0.1-3.2-1.1-3.2-3.5
		c0-2.5,0-5,0-7.5c0-0.5-0.1-1.1,0.2-1.4c2.3-2.7,4.1-6.2,8.1-6.8c1.4-0.2,1.9-0.8,1.8-2.2c-0.3-5.4-0.5-10.9-0.7-16.3
		c0-0.3-0.2-0.6-0.4-0.9c-0.3,0.4-0.7,0.8-0.8,1.2c-2,5.4-3.7,10.8-6,16.1c-1,2.3-3,4.2-4.8,5.9c-0.6,0.6-2.2,0.7-3.2,0.5
		c-4.3-1.2-8.6-2.4-12.8-3.9c-2.8-0.9-4.4-3.2-5.4-5.9c-1.8-4.6-3.6-9.2-5.4-13.8C78.4,114.1,78.3,114.1,78.1,114.1z M60.2,126.4
		c0.1,0,0.1,0,0.2,0c-0.3,2.1-0.6,4.2-0.9,6.3c0,0.3,0,0.7,0,1c0.4-0.1,0.9-0.2,1-0.4c0.8-1.1,1.9-2.1,2.3-3.4
		c0.6-2.6,0.9-5.3,1.2-7.9c0.6-6.6,1.1-13.3,1.6-19.9c0.3-4.3,0.4-8.7,0.6-13.1c0.2-3.3,0.5-6.7,0.6-10c0.1-3-1.1-4.5-4-5.4
		c-1.2-0.4-2.5-0.7-3.8-0.9c-1.8-0.3-2.8-1.2-2.8-3.1c0-1.2,0-2.4,0-3.6c0-0.3-0.1-0.5-0.2-0.8c-0.3,0.1-0.6,0.2-0.8,0.3
		c-1.8,1.8-3.5,3.6-3,6.5c0.1,0.8,0.1,1.7,0,2.5C52,76.2,52.7,76.8,54,77c1.5,0.3,3,0.4,4.4,0.9c3.4,1.4,5.3,5.8,4.5,10
		c-0.2,1.3-0.5,2.6-0.6,3.9c-0.4,6.4-0.6,12.7-1,19.1C61,116.1,60.5,121.3,60.2,126.4z M77.9,90c-0.1,0-0.2,0.1-0.4,0.1
		c-0.2,4.3-0.5,8.7-0.6,13c0,0.7,0.5,1.4,0.9,2c0.7,1.1,1.7,2,2.2,3.2c2.2,5.6,4.3,11.2,6.4,16.9c1.2,3.3,3.1,5.7,6.7,6.5
		c2.5,0.5,5,1.3,7.4,2c2.8,0.8,4.4,0.3,5.8-2c0.1-0.2-0.1-0.9-0.4-1c-2.6-0.7-5.3-1.3-7.9-2c-2.8-0.7-5.5-1.7-7-4.5
		c-0.8-1.5-1.6-3.1-2.2-4.7c-2.8-7.7-5.6-15.4-8.4-23.1C79.6,94.2,78.7,92.1,77.9,90z M130.5,149.3
		C130.5,149.3,130.5,149.3,130.5,149.3c5.6,0.1,11.1-0.1,16.7,0.1c3.3,0.2,5.1-1.8,7-3.9c0.2-0.2,0.1-0.5,0.2-0.8
		c-0.3,0-0.6,0-0.8,0c-0.9,0.1-1.8,0.3-2.7,0.3c-9.9,0-19.9,0-29.8,0c-6,0-6.2-0.1-6.2-6.2c0-0.3-0.2-0.6-0.3-0.9
		c-0.2,0.1-0.5,0.2-0.7,0.4c-1.7,1.6-3.3,3.3-2.8,6c0.2,1,0.1,2.2,0,3.2c-0.1,1.3,0.3,1.7,1.6,1.7
		C118.7,149.3,124.6,149.3,130.5,149.3z M64.1,149.3C64.1,149.4,64.1,149.4,64.1,149.3c3.8,0,7.7-0.2,11.5,0.1
		c3.3,0.2,5.3-1.5,7.2-3.6c0.2-0.2,0.2-0.5,0.3-0.8c-0.3-0.1-0.6-0.3-0.9-0.3c-4.8,0.1-9.5,0.2-14.3,0.3c-3.5,0.1-7,0.1-10.6,0
		c-2.9,0-3.7-0.8-3.8-3.7c0-1.1,0-2.2,0-3.2c0-0.2-0.2-0.4-0.2-0.6c-0.2,0.1-0.4,0.1-0.6,0.3c-2,2-4.2,3.8-3.4,7.1
		c0.1,0.6,0,1.3,0,2c0,2.1,0.2,2.4,2.3,2.4C55.7,149.4,59.9,149.3,64.1,149.3z M123.9,101.9c-0.2-3.2-0.4-6.5-0.6-9.9
		c0-0.4-0.3-0.7-0.5-1.1c-0.2,0.2-0.5,0.4-0.5,0.6c-1,2.7-1.8,5.5-2.9,8.2c-0.7,1.8-1,3.5,0.4,5.1c0.2,0.3,0.4,0.8,0.4,1.2
		c0.3,3.1,0.7,6.2,0.8,9.3c0.2,5.8,0.4,11.7,0.5,17.5c0,1,0.3,1.2,1.2,0.7c1.6-0.9,2.3-2.2,2.2-4.1
		C124.4,120.3,124.2,111.2,123.9,101.9z M105.9,103.8c0.1-0.2,0.3-0.5,0.5-0.8c0.5-1.3,0.9-2.6,1.3-3.9c2.5-7,5-14.1,7.6-21.1
		c1.4-3.7,2.8-7.5,4.2-11.2c0.1-0.1,0-0.3,0-0.5c-0.2,0-0.5,0-0.6,0.1c-0.9,1.2-2.1,2.3-2.7,3.7c-1.3,3.1-2.2,6.3-3.4,9.4
		c-1.5,4.3-3,8.6-4.7,12.9c-1,2.4-1,5.4-3.6,6.9c0.4,1.5,0.7,3,1.1,4.4C105.6,103.8,105.7,103.8,105.9,103.8z M151.5,73
		c-0.4-0.1-0.6-0.2-0.8-0.2c-2.3,0.6-4.8,0.6-6.3,2.9c-0.2,0.3-0.2,0.8-0.4,1.3c0.3,0.1,0.7,0.3,1,0.2c2.2-0.7,4.3-1.4,5.7-3.3
		C150.9,73.6,151.1,73.4,151.5,73z"/>
	<path class="st2" d="M191.1,141c0,40.5,0,81,0,121.5c0,1.7,0,3.5,0.1,5.2c0,1.3-0.6,1.9-1.9,1.8c-1.1-0.1-2.3,0-3.4,0
		c-57,0-113.9,0-170.9,0c-3.2,0-3.1,0-3.1-3.2c0-11.9,0-23.8,0-35.7c0-16.2,0-32.3,0-48.5c0-25.2,0-50.4,0-75.6c0-4.6,0-4.6,4.6-4.7
		c5,0,10,0,15.1,0c2.4,0,2.7,0.2,2.7,2.7c0,22.5,0,45,0,67.5c0,2.3,0,2.3,2.2,2.3c20.8,0,41.5,0,62.3,0c27.3,0,54.6,0,81.8,0
		c1.3,0,1.7-0.3,1.7-1.6c-0.1-1.9,0-3.7,0-5.6c0-40.8,0-81.6,0-122.4c0-1.7-0.3-2.4-2.2-2c-1.1,0.2-2.4,0-3.6,0
		c-45.5,0-90.9,0-136.4,0c-1.6,0-3.1-0.1-4.7,0c-0.4,0-0.9,0.6-1.2,1.1c-0.2,0.2,0,0.7,0,1.1c0,16.5,0,32.9,0,49.4
		c0,0.8,0,1.6,0,2.3c0,0.4,0,0.7-0.1,1.1c-0.1,0.3-0.4,0.7-0.5,0.7c-2.6-0.7-2.4,3.4-5,2.9c-1-0.2-1.8-0.4-2-1.6
		c0-0.4-0.4-0.8-0.6-1.2c-0.2,0.4-0.5,0.7-0.6,1.1c-0.1,1.2-0.8,1.7-1.9,1.7c-1.2,0-2.5,0.2-2.8-1.5c-0.1-0.4-0.4-0.7-0.5-1
		c-0.2,0.4-0.4,0.8-0.6,1.1c-0.5,0.5-1.1,1.3-1.7,1.4c-1,0.2-2.3,0.3-2.7-1.1c-0.3-1-0.8-1.2-1.7-1.1c-1.4,0.1-1.7-0.6-1.7-1.9
		c0.1-20.5,0.1-40.9,0.1-61.4c0-1.4,0.4-2.7,0.5-4.1c0-0.2,0.1-0.4,0-0.5c-1.3-5.5-0.2-11.1-0.6-16.7c-0.1-1.7,2.1-3.8,3.9-3.8
		c4.8-0.1,9.7-0.1,14.5,0c0.7,0,1.6,0.4,2.1,0.8c1.1,1.1,2.3,1.2,3.7,1.2c50.8,0,101.6,0,152.4,0c2.4,0,2.5,0.1,2.5,2.5
		C191.1,57.1,191.1,99,191.1,141C191.1,141,191.1,141,191.1,141z M101.1,187.6c-27.3,0-54.6,0-81.9,0c-1,0-1.8-0.1-1.8,1.4
		c0,4.4-0.1,8.7-0.1,13.1c0,10.5,0.1,20.9,0.1,31.4c0,3.7,0,3.7,3.7,3.7c53.8,0,107.7,0,161.5,0c1.6,0,2.1-0.4,2-2
		c-0.1-15.3-0.1-30.5,0-45.8c0-1.4-0.3-1.9-1.8-1.9C155.6,187.6,128.4,187.6,101.1,187.6z M189.5,141c0-41.2,0-82.5,0-123.7
		c0-2.9,0-2.9-2.8-2.9c-0.3,0-0.6,0-0.9,0c-48.6,0-97.3,0-145.9,0c-1.3,0-2.5,0.1-3.8-0.1c-1.2-0.1-1.4,0.3-1.4,1.4
		c0.1,3.8,0.1,7.5,0.1,11.3c0,4.2-2.2,6.3-6.3,6.3c-3.5,0-7.1,0-10.6,0c-1.1,0-2.2-0.1-3.1-0.5c-1.1-0.5-1.2-0.4-1.2,0.8
		c0,8.3,0,16.6,0,24.9c0,12.1,0,24.3,0,36.4c0,1.5,0.1,2.5,2,2.3c0.4,0,1,0.6,1.5,1c0.2,0.2,0.4,0.5,0.6,0.8c0.2-0.3,0.4-0.6,0.5-1
		c0.2-1.9,1.6-1.4,2.7-1.5c1.1-0.1,2,0.2,2.1,1.6c0,0.3,0.3,0.7,0.5,1c0.2-0.3,0.6-0.6,0.6-0.9c0.1-1.6,1.1-1.7,2.4-1.7
		c1.3,0,2.3,0.1,2.3,1.7c0,0.3,0.2,0.5,0.3,0.8c0.2-0.3,0.6-0.5,0.6-0.8c0-1.3,0.6-1.7,1.7-1.7c1.2,0,1.4-0.6,1.4-1.7
		c0-17.1,0-34.2,0-51.3c0-2.1-0.1-4.2,0-6.3c0-0.5,0.6-0.9,0.9-1.3c0.3,0.4,0.9,0.8,0.9,1.3c0.1,1,0.5,1.4,1.5,1.3
		c0.8,0,1.7,0,2.5,0c48.5,0,97,0,145.6,0c3.1,0,3.1,0,3.1,3c0,48.5,0,97,0,145.6c0,22.1,0,44.2,0,66.2c0,4.2,0,4.2-4.3,4.2
		c-43.5,0-87,0-130.5,0c-11.2,0-22.5,0-33.7,0c-2.8,0-3-0.3-3-2.9c0-17.9-0.1-35.8,0-53.7c0-7.5,0.3-14.9,0.4-22.3
		c0-0.2-0.1-0.5-0.3-0.7c0-0.1-0.5,0.1-0.6,0.2c-0.5,1.1-1.4,2.2-1.4,3.3c-0.1,26.3-0.1,52.5-0.1,78.8c0,2,0,3.9,0,5.9
		c0,1,0.2,1.5,1.5,1.4c1.7-0.1,3.3,0,5,0c54.3,0,108.5,0,162.8,0c1.7,0,3.4-0.2,5,0c1.4,0.1,1.7-0.5,1.7-1.6c0-0.8,0-1.6,0-2.3
		C189.5,222.8,189.5,181.9,189.5,141z M101.1,239.4C101.1,239.3,101.1,239.3,101.1,239.4c-27.4,0-54.8,0-82.2,0
		c-1,0-1.5,0.1-1.5,1.2c0,4.6,0,9.2,0,13.8c0,0.9,0.4,1.3,1.3,1.2c1.8,0,3.6,0,5.4,0c51.6,0,103.1,0,154.7,0c1.4,0,2.8-0.1,4.1,0
		c1.4,0.1,1.8-0.5,1.7-1.8c-0.1-3.8,0-7.5,0-11.3c0-3.7,0.3-3.1-3.2-3.1C154.7,239.4,127.9,239.4,101.1,239.4z M13.5,140.5
		c0,11.7,0,23.4,0,35.1c0,0.4,0.2,0.7,0.3,1.1c0.3-0.3,0.6-0.5,0.8-0.9c0.6-1.2,1.3-1.1,2-0.1c0.2,0.3,0.5,0.7,0.7,1
		c2.2,3.1,2.2,3.1,4.2-0.2c1.2-2,1.6-2,3,0c0.7,1,1.5,1.8,2.2,2.7c0.7-1,1.5-2,2.1-3c0.9-1.7,1.2-1.8,2.7-0.3
		c0.2,0.2,0.6,0.3,0.8,0.5c0.1-0.3,0.3-0.6,0.3-0.9c0-2-0.1-3.9-0.1-5.9c0-21.2-0.1-42.4,0-63.7c0-1.9-0.6-2.1-2.2-2.1
		c-4.9,0.1-9.8,0.1-14.7,0c-1.7,0-2.1,0.3-2.1,2C13.5,117.4,13.5,128.9,13.5,140.5z M100.9,185.8
		C100.9,185.8,100.9,185.8,100.9,185.8c26.4,0.1,52.8,0.1,79.1,0c5.3,0,4.7,0.8,4.5-4.7c0-1.2-0.3-1.5-1.5-1.5
		c-48.2,0-96.3,0-144.5,0c-1,0-2,0-3,0c-0.4,0-1,0.1-1.1,0.4c-1,2.2-1.6,0.5-2.3-0.2c-0.4-0.4-0.7-0.9-1.1-1.4
		c-0.6-0.8-1.1-0.8-1.6,0.1c-0.5,1-1,1.9-1.5,2.8c-0.9,1.5-1.4,1.5-2.4,0.1c-0.6-1-1.3-1.9-1.9-2.8c-0.5-0.7-0.9-0.9-1.4,0
		c-0.6,1.1-1.2,2.2-2,3.2c-0.2,0.3-1.1,0.4-1.5,0.2c-0.5-0.2-0.9-0.8-1.3-1.2c0,0.6-0.1,1.3-0.1,1.9c0,0.6,0,1.2,0,1.8
		c0,0.9,0.4,1.2,1.3,1.2c2.7,0,5.4,0,8.1,0C51.5,185.8,76.2,185.8,100.9,185.8z M109.5,40c-24.3,0-48.6,0-72.9,0c-0.5,0-1.1,0-1.6,0
		c-0.2,0-0.3,0.3-0.4,0.4c0.2,0.1,0.3,0.4,0.5,0.4c0.3,0.1,0.6,0,0.9,0c48.1,0,96.2,0,144.3,0c0.7,0,1.4,0,2.2,0
		c1,0,1.6,0.5,1.6,1.5c0,0.6,0,1.2,0,1.8c0,43.1,0,86.3,0,129.4c0,2.5-0.4,2.9-2.9,2.9c-47.6,0-95.3,0-142.9,0c-1,0-1.9-0.1-2.9,0
		c-0.4,0-0.7,0.4-1,0.7c0.4,0.2,0.7,0.5,1.1,0.6c0.1,0.1,0.4,0,0.5,0c48.2,0,96.4,0,144.7,0c4.1,0,4.1,0,4.1-4.2
		c0-27.9,0-55.9,0-83.8c0-15.5,0-31,0-46.5c0-3.5,0.4-3.2-3.2-3.2C157.6,40,133.6,40,109.5,40z M13.5,21.8
		C13.5,21.8,13.5,21.8,13.5,21.8c0,2,0,3.9,0,5.9c0,2.5,1.2,3.8,3.7,3.8c4.1,0.1,8.1,0.1,12.2,0c2.2,0,3.5-1.3,3.5-3.5
		c0-4.1,0-8.3-0.1-12.4c0-2.4-1.3-3.5-3.6-3.5c-4.1,0-8.1,0-12.2,0c-2.2,0-3.5,1.4-3.6,3.6C13.4,17.7,13.5,19.7,13.5,21.8z"/>
	<path class="st2" d="M54,206.7c-10.3,0-20.6,0-30.8,0c-2.5,0-4.7-1.8-5.2-4.3c-0.4-1.9,0.9-4.9,3.4-5.4c1.2-0.2,2.3-0.6,3.5-0.6
		c19.6,0,39.2,0,58.8,0c2.3,0,4.2,0.6,5.7,2.5c1.1,1.4,1.4,3,0.6,4.5c-0.9,1.9-2.3,3.3-4.7,3.3C74.8,206.7,64.4,206.7,54,206.7
		C54,206.7,54,206.7,54,206.7z M54,204.7c9.8,0,19.6,0,29.4,0c0.7,0,1.4,0.1,2.1,0c1.6-0.2,2.8-1.6,2.8-3.2c0-1.5-1.1-2.7-2.6-2.9
		c-0.7-0.1-1.4-0.1-2.1-0.1c-19.6,0-39.2,0-58.8,0c-0.9,0-1.8,0-2.7,0.2c-0.6,0.1-1.2,0.5-1.6,1c-0.9,1-1,2.1-0.4,3.3
		c0.7,1.4,1.9,1.8,3.4,1.8C33.7,204.7,43.9,204.7,54,204.7z"/>
	<path class="st2" d="M100.6,215.6c-22.4,0-44.7,0-67.1,0c-0.4,0-0.8,0.1-1.1,0c-0.4-0.2-0.8-0.6-1.2-0.9c0.4-0.3,0.8-0.9,1.2-1
		c1.2-0.1,2.5,0,3.8,0c42.9,0,85.8,0,128.6,0c1.2,0,2.4-0.1,3.6,0c0.4,0,0.8,0.6,1.2,1c-0.4,0.3-0.8,0.8-1.3,0.9c-1,0.1-2,0-3,0
		C143.7,215.6,122.2,215.6,100.6,215.6C100.6,215.6,100.6,215.6,100.6,215.6z"/>
	<path class="st2" d="M167.2,225.4c0-1.7,0-3.3,0-5c0-1.2,0.5-1.7,1.8-1.7c3.3,0,6.6,0,9.9,0c1.5,0,2.2,0.7,2.2,2.2c0,3,0,6.1,0,9.1
		c0,1.9-0.6,2.4-2.5,2.4c-3,0-6,0-9,0c-1.9,0-2.3-0.5-2.3-2.4C167.2,228.5,167.2,226.9,167.2,225.4
		C167.2,225.4,167.2,225.4,167.2,225.4z M173.8,220.5c0,0,0,0.1,0,0.1c-1.1,0-2.3,0.1-3.4,0c-1-0.1-1.3,0.3-1.2,1.2
		c0.1,2.3,0.1,4.7,0,7c0,1.1,0.3,1.5,1.4,1.4c1.5-0.1,3,0,4.5,0c4.2-0.1,3.6,0.5,3.7-3.6c0-0.4,0-0.7,0-1.1
		c-0.1-1.5,0.5-3.7-0.3-4.5C177.4,220.2,175.3,220.6,173.8,220.5z"/>
	<path class="st2" d="M152.8,20.7c3.2,0,6.3,0,9.5,0c1.6,0,2.2,0.6,2.2,2.1c0,2.9,0,5.7,0,8.6c0,1.3-0.6,2-1.9,2
		c-6.5,0-12.9,0-19.4,0c-1.3,0-2-0.5-2-1.9c0-2.9,0.1-5.9,0-8.8c0-1.5,0.6-2,2.1-2C146.5,20.8,149.7,20.8,152.8,20.7
		C152.8,20.8,152.8,20.8,152.8,20.7z M143.2,27c0,4.5,0,4.5,4.1,4.5c4.5,0,4.5,0,4.5-4.4c0-4.3,0-4.3-4.4-4.3
		C143.2,22.8,143.2,22.8,143.2,27z M158.4,22.8c-4.5,0-4.5,0-4.5,4.5c0,0.1,0,0.1,0,0.2c0,4,0,4,4.1,4c4.5,0,4.5,0,4.5-4.5
		C162.6,22.8,162.6,22.8,158.4,22.8z"/>
</g>
</svg>
