<?xml version="1.0" encoding="utf-8"?>
<!-- Generator: Adobe Illustrator 25.4.1, SVG Export Plug-In . SVG Version: 6.00 Build 0)  -->
<svg version="1.1" id="Layer_1" xmlns="http://www.w3.org/2000/svg" xmlns:xlink="http://www.w3.org/1999/xlink" x="0px" y="0px"
	 viewBox="0 0 203 280" style="enable-background:new 0 0 203 280;" xml:space="preserve">
<style type="text/css">
	.st0{fill:#FFFFFF;}
	.st1{fill:none;stroke:#4D4E5B;stroke-miterlimit:10;}
	.st2{fill:#4D4E5B;}
	.st3{fill:none;stroke:#4D4E5B;stroke-width:0.75;stroke-miterlimit:10;}
	.st4{fill:none;stroke:#4D4E5B;stroke-width:0.5;stroke-miterlimit:10;}
	.st5{opacity:0.5;}
</style>
<path class="st0" d="M200.7,2.1c-1.3-1.2-3-2-4.8-2H7.1c-3.7,0-6.8,3-6.8,6.7v266.5c0,3.7,3.1,6.7,6.8,6.7h188.8
	c3.7,0,6.8-3,6.8-6.7V6.9C202.7,5.1,202,3.4,200.7,2.1z"/>
<path class="st1" d="M200.7,2.1c-1.3-1.3-3-2-4.8-2H7.1c-3.7,0-6.8,3-6.8,6.7v266.5c0,3.7,3.1,6.7,6.8,6.7h188.8
	c3.7,0,6.8-3,6.8-6.7V6.9C202.7,5.1,202,3.4,200.7,2.1z M201.8,273.2c-0.1,3.2-2.6,5.7-5.8,5.7H7.1c-1.6,0.1-3-0.5-4.1-1.6
	c-1.1-1.1-1.7-2.6-1.7-4V6.8c0-1.5,0.6-2.9,1.7-4c1.1-1.1,2.6-1.7,4.1-1.7H196c3.2,0,5.8,2.5,5.8,5.7V273.2z"/>
<path class="st1" d="M4,158.6"/>
<path class="st1" d="M1.3,186.2"/>
<polyline class="st2" points="1.9,260.1 7.1,256.7 136.9,256.9 135.5,254.3 6.2,254.3 0.9,257.2 "/>
<path class="st1" d="M144.9,256.9h-8l-2-2.9v-2l6.7-1.6l3.3-3.8l9.6-2.2l6.4,6.2l4.4-2.2l-2.4-4l8.2-11.1l4.4-3.1l2-4.2l-2.9-3.1
	l2.9-7.3l2.2-4.2l4.2-1.8l1.8,2.9l2.4,5.1l2.2,4.7l3.6,11l1.1,7v5.3l-2.9,2.2l2.9,3.1l1.1,6c0,0,2,0.9,2,1.8s0,2.7,0,2.7h-11.6
	l-8.7,1.3l-5.3,1.8l-6.1-2.4c0,0-5.4-0.4-6.3-0.4c-0.9,0-8.7,0-8.7,0l-7.6-2.2l0.2-4.9l10.4-2.4l6.2-1.3"/>
<polyline class="st1" points="165.3,248.4 176,246.2 181.3,246.7 185.6,246.2 191.1,247.6 195.1,250.9 "/>
<polyline class="st2" points="7.8,252 26.7,240 26.7,177.6 24.7,179.8 24.7,238.7 4,252 "/>
<polygon class="st1" points="1.3,185.7 24.2,172.7 177.8,172.7 177.8,174.7 24.7,174.9 1.3,188.8 "/>
<line class="st1" x1="24.7" y1="240.9" x2="24.7" y2="174.9"/>
<line class="st1" x1="0.7" y1="208.9" x2="24.7" y2="196.1"/>
<line class="st1" x1="1.3" y1="231" x2="24.7" y2="217.6"/>
<polygon class="st1" points="177.8,170.7 177.8,198.4 184.7,193.3 186.9,195.1 191.1,198.4 191.1,170.7 "/>
<line class="st1" x1="186.9" y1="195.2" x2="186.9" y2="214.8"/>
<line class="st1" x1="184.4" y1="193.2" x2="184.4" y2="210.3"/>
<polyline class="st1" points="0.7,254.8 5.6,252.6 134.9,252.6 "/>
<polyline class="st1" points="1.3,56.4 6,53.1 8.7,46.2 14.4,42.2 20.2,44.9 24.4,46.2 28.9,46.9 34.4,43.6 35.8,40.7 32.2,38.2 
	32.9,34 32,28.7 42.7,28.7 47.8,27.1 42.2,20.2 38,17.1 29.3,15.1 "/>
<polyline class="st3" points="25.8,1.1 28.7,2.9 31.1,8.9 32.7,15.1 "/>
<polyline class="st4" points="31.7,10.2 37.4,8.1 41.9,5.3 43.9,3.3 44.8,1.1 "/>
<polyline class="st1" points="43.8,22.2 45.8,14 44.8,8.1 42.9,5.3 48.7,5.3 52.9,2 "/>
<polyline class="st3" points="1.3,35.8 3.5,33.8 5.8,31.8 9.6,31.8 "/>
<polyline class="st3" points="3.5,33.8 5.4,37.1 6.4,42 "/>
<line class="st3" x1="7.7" y1="48.6" x2="5" y2="44.9"/>
<polyline class="st3" points="19.2,44.4 20.9,37.9 24.5,41.1 27.8,41.7 29.2,42 32.7,42 34.4,43.6 "/>
<circle class="st1" cx="13.1" cy="234.4" r="9"/>
<polyline class="st3" points="170.9,247.3 169.8,242 169.8,238.7 173.3,235.7 173.3,231.8 "/>
<polyline class="st3" points="186.9,215.8 180.2,220.7 177.8,224 176.9,227.3 "/>
<polyline class="st3" points="181.9,218.6 180.2,214.8 184,209.6 "/>
<polyline class="st4" points="186.9,246.2 180.2,242.4 182.1,234.9 183.6,229.1 181.9,224.9 "/>
<polyline class="st3" points="193.5,231.8 191.1,231.8 186.9,233.6 185.8,239.5 181,239.5 "/>
<polyline class="st4" points="147.6,254.4 155.8,256.2 163.8,258 174.7,256.9 180.2,258 184.4,259.1 "/>
<line class="st3" x1="166.6" y1="250.9" x2="155.8" y2="256.2"/>
<polyline class="st4" points="144,248.6 144,249.6 147.6,250.9 154,250.9 155.8,248.6 "/>
<polyline class="st3" points="44.8,28 39.5,25 38.2,20 29.2,18.5 26.7,15.1 18.8,15.1 12.3,15.1 11.4,8.1 1.3,6.8 "/>
<polyline class="st3" points="15.3,15.1 19.2,22.2 17.2,26.8 22.1,28 22.7,33.8 "/>
<polyline class="st4" points="2.6,17.4 9.6,23.6 12.3,23.6 12.9,28 15.3,33.8 9.6,33.8 "/>
<polyline class="st4" points="31.7,24.4 24.5,22.2 22.1,19.4 19.2,22.2 "/>
<polyline class="st3" points="9.6,23.6 5,15.1 7.3,10.2 "/>
<polyline class="st4" points="29.2,6.8 22.1,8.1 15.3,5.7 9.6,2 "/>
<path class="st1" d="M173.3,31.8c0,0-13.3-11.7-10.9-26.7c0,0,4.3,5,10.9,0c0,0,6.4,5,10.2,0C183.6,5.1,186.9,19.3,173.3,31.8z"/>
<polyline class="st1" points="184.4,8.1 193.5,8.1 193.5,30.1 175.1,30.1 "/>
<line class="st1" x1="181.9" y1="22.2" x2="193.5" y2="22.2"/>
<line class="st1" x1="184" y1="15.1" x2="193.5" y2="15.1"/>
<g class="st5">
	<circle class="st2" cx="53" cy="4.8" r="2.2"/>
	<circle class="st2" cx="59.8" cy="4.8" r="2.2"/>
	<circle class="st2" cx="66.7" cy="4.8" r="2.2"/>
	<circle class="st2" cx="73.6" cy="4.8" r="2.2"/>
	<circle class="st2" cx="80.5" cy="4.8" r="2.2"/>
	<circle class="st2" cx="87.4" cy="4.8" r="2.2"/>
	<circle class="st2" cx="94.3" cy="4.8" r="2.2"/>
	<circle class="st2" cx="101.2" cy="4.8" r="2.2"/>
	<circle class="st2" cx="108.1" cy="4.8" r="2.2"/>
	<circle class="st2" cx="53" cy="10.4" r="2.2"/>
	<circle class="st2" cx="59.8" cy="10.4" r="2.2"/>
	<circle class="st2" cx="66.7" cy="10.4" r="2.2"/>
	<circle class="st2" cx="73.6" cy="10.4" r="2.2"/>
	<circle class="st2" cx="80.5" cy="10.4" r="2.2"/>
	<circle class="st2" cx="87.4" cy="10.4" r="2.2"/>
	<circle class="st2" cx="94.3" cy="10.4" r="2.2"/>
	<circle class="st2" cx="101.2" cy="10.4" r="2.2"/>
	<circle class="st2" cx="108.1" cy="10.4" r="2.2"/>
	<circle class="st2" cx="53" cy="16.1" r="2.2"/>
	<circle class="st2" cx="59.8" cy="16.1" r="2.2"/>
	<circle class="st2" cx="66.7" cy="16.1" r="2.2"/>
	<circle class="st2" cx="73.6" cy="16.1" r="2.2"/>
	<circle class="st2" cx="80.5" cy="16.1" r="2.2"/>
	<circle class="st2" cx="87.4" cy="16.1" r="2.2"/>
	<circle class="st2" cx="94.3" cy="16.1" r="2.2"/>
	<circle class="st2" cx="101.2" cy="16.1" r="2.2"/>
	<circle class="st2" cx="108.1" cy="16.1" r="2.2"/>
	<circle class="st2" cx="114.7" cy="4.8" r="2.2"/>
	<circle class="st2" cx="121.6" cy="4.8" r="2.2"/>
	<circle class="st2" cx="128.5" cy="4.8" r="2.2"/>
	<circle class="st2" cx="135.3" cy="4.8" r="2.2"/>
	<circle class="st2" cx="114.7" cy="10.4" r="2.2"/>
	<circle class="st2" cx="121.6" cy="10.4" r="2.2"/>
	<circle class="st2" cx="128.5" cy="10.4" r="2.2"/>
	<circle class="st2" cx="135.3" cy="10.4" r="2.2"/>
	<circle class="st2" cx="114.7" cy="16.2" r="2.2"/>
	<circle class="st2" cx="121.6" cy="16.2" r="2.2"/>
	<circle class="st2" cx="128.5" cy="16.2" r="2.2"/>
	<circle class="st2" cx="135.3" cy="16.2" r="2.2"/>
	<circle class="st2" cx="141.9" cy="4.8" r="2.2"/>
	<circle class="st2" cx="148.8" cy="4.8" r="2.2"/>
	<circle class="st2" cx="155.7" cy="4.8" r="2.2"/>
	<circle class="st2" cx="162.6" cy="4.8" r="2.2"/>
	<circle class="st2" cx="169.5" cy="4.8" r="2.2"/>
	<circle class="st2" cx="141.9" cy="10.3" r="2.2"/>
	<circle class="st2" cx="148.8" cy="10.3" r="2.2"/>
	<circle class="st2" cx="155.7" cy="10.3" r="2.2"/>
	<circle class="st2" cx="141.9" cy="16.1" r="2.2"/>
	<circle class="st2" cx="148.8" cy="16.1" r="2.2"/>
	<circle class="st2" cx="155.7" cy="16.1" r="2.2"/>
	<circle class="st2" cx="176.1" cy="4.8" r="2.2"/>
	<circle class="st2" cx="183" cy="4.8" r="2.2"/>
	<circle class="st2" cx="189.9" cy="4.8" r="2.2"/>
	<circle class="st2" cx="196.8" cy="4.8" r="2.2"/>
	<circle class="st2" cx="196.8" cy="10.4" r="2.2"/>
	<circle class="st2" cx="196.8" cy="16.1" r="2.2"/>
</g>
<g class="st5">
	<circle class="st2" cx="6.2" cy="259.3" r="2.2"/>
	<circle class="st2" cx="13.1" cy="259.3" r="2.2"/>
	<circle class="st2" cx="19.9" cy="259.3" r="2.2"/>
	<circle class="st2" cx="26.8" cy="259.3" r="2.2"/>
	<circle class="st2" cx="33.7" cy="259.3" r="2.2"/>
	<circle class="st2" cx="40.6" cy="259.3" r="2.2"/>
	<circle class="st2" cx="47.5" cy="259.3" r="2.2"/>
	<circle class="st2" cx="54.4" cy="259.3" r="2.2"/>
	<circle class="st2" cx="61.3" cy="259.3" r="2.2"/>
	<circle class="st2" cx="68.2" cy="259.3" r="2.2"/>
	<circle class="st2" cx="75.1" cy="259.3" r="2.2"/>
	<circle class="st2" cx="81.9" cy="259.3" r="2.2"/>
	<circle class="st2" cx="88.8" cy="259.3" r="2.2"/>
	<circle class="st2" cx="95.7" cy="259.3" r="2.2"/>
	<circle class="st2" cx="102.6" cy="259.3" r="2.2"/>
	<circle class="st2" cx="109.5" cy="259.3" r="2.2"/>
	<circle class="st2" cx="6.2" cy="264.9" r="2.2"/>
	<circle class="st2" cx="13.1" cy="264.9" r="2.2"/>
	<circle class="st2" cx="19.9" cy="264.9" r="2.2"/>
	<circle class="st2" cx="26.8" cy="264.9" r="2.2"/>
	<circle class="st2" cx="33.7" cy="264.9" r="2.2"/>
	<circle class="st2" cx="40.6" cy="264.9" r="2.2"/>
	<circle class="st2" cx="47.5" cy="264.9" r="2.2"/>
	<circle class="st2" cx="54.4" cy="264.9" r="2.2"/>
	<circle class="st2" cx="61.3" cy="264.9" r="2.2"/>
	<circle class="st2" cx="68.2" cy="264.9" r="2.2"/>
	<circle class="st2" cx="75.1" cy="264.9" r="2.2"/>
	<circle class="st2" cx="81.9" cy="264.9" r="2.2"/>
	<circle class="st2" cx="88.8" cy="264.9" r="2.2"/>
	<circle class="st2" cx="95.7" cy="264.9" r="2.2"/>
	<circle class="st2" cx="102.6" cy="264.9" r="2.2"/>
	<circle class="st2" cx="109.5" cy="264.9" r="2.2"/>
	<circle class="st2" cx="6.2" cy="270.6" r="2.2"/>
	<circle class="st2" cx="13.1" cy="270.6" r="2.2"/>
	<circle class="st2" cx="19.9" cy="270.6" r="2.2"/>
	<circle class="st2" cx="26.8" cy="270.6" r="2.2"/>
	<circle class="st2" cx="33.7" cy="270.6" r="2.2"/>
	<circle class="st2" cx="40.6" cy="270.6" r="2.2"/>
	<circle class="st2" cx="47.5" cy="270.6" r="2.2"/>
	<circle class="st2" cx="54.4" cy="270.6" r="2.2"/>
	<circle class="st2" cx="61.3" cy="270.6" r="2.2"/>
	<circle class="st2" cx="68.2" cy="270.6" r="2.2"/>
	<circle class="st2" cx="75.1" cy="270.6" r="2.2"/>
	<circle class="st2" cx="81.9" cy="270.6" r="2.2"/>
	<circle class="st2" cx="88.8" cy="270.6" r="2.2"/>
	<circle class="st2" cx="95.7" cy="270.6" r="2.2"/>
	<circle class="st2" cx="102.6" cy="270.6" r="2.2"/>
	<circle class="st2" cx="109.5" cy="270.6" r="2.2"/>
	<circle class="st2" cx="6.2" cy="276.2" r="2.2"/>
	<circle class="st2" cx="13.1" cy="276.2" r="2.2"/>
	<circle class="st2" cx="19.9" cy="276.2" r="2.2"/>
	<circle class="st2" cx="26.8" cy="276.2" r="2.2"/>
	<circle class="st2" cx="33.7" cy="276.2" r="2.2"/>
	<circle class="st2" cx="40.6" cy="276.2" r="2.2"/>
	<circle class="st2" cx="47.5" cy="276.2" r="2.2"/>
	<circle class="st2" cx="54.4" cy="276.2" r="2.2"/>
	<circle class="st2" cx="61.3" cy="276.2" r="2.2"/>
	<circle class="st2" cx="68.2" cy="276.2" r="2.2"/>
	<circle class="st2" cx="75.1" cy="276.2" r="2.2"/>
	<circle class="st2" cx="81.9" cy="276.2" r="2.2"/>
	<circle class="st2" cx="88.8" cy="276.2" r="2.2"/>
	<circle class="st2" cx="95.7" cy="276.2" r="2.2"/>
	<circle class="st2" cx="102.6" cy="276.2" r="2.2"/>
	<circle class="st2" cx="109.5" cy="276.2" r="2.2"/>
	<circle class="st2" cx="116.1" cy="259.3" r="2.2"/>
	<circle class="st2" cx="123" cy="259.3" r="2.2"/>
	<circle class="st2" cx="129.9" cy="259.3" r="2.2"/>
	<circle class="st2" cx="136.8" cy="259.3" r="2.2"/>
	<circle class="st2" cx="116.1" cy="264.9" r="2.2"/>
	<circle class="st2" cx="123" cy="264.9" r="2.2"/>
	<circle class="st2" cx="129.9" cy="264.9" r="2.2"/>
	<circle class="st2" cx="136.8" cy="264.9" r="2.2"/>
	<circle class="st2" cx="116.1" cy="270.7" r="2.2"/>
	<circle class="st2" cx="123" cy="270.7" r="2.2"/>
	<circle class="st2" cx="129.9" cy="270.7" r="2.2"/>
	<circle class="st2" cx="136.8" cy="270.7" r="2.2"/>
	<circle class="st2" cx="116.1" cy="276.2" r="2.2"/>
	<circle class="st2" cx="123" cy="276.2" r="2.2"/>
	<circle class="st2" cx="129.9" cy="276.2" r="2.2"/>
	<circle class="st2" cx="136.8" cy="276.2" r="2.2"/>
	<circle class="st2" cx="143.4" cy="259.3" r="2.2"/>
	<circle class="st2" cx="143.4" cy="264.8" r="2.2"/>
	<circle class="st2" cx="150.3" cy="264.8" r="2.2"/>
	<circle class="st2" cx="157.1" cy="264.8" r="2.2"/>
	<circle class="st2" cx="164" cy="264.8" r="2.2"/>
	<circle class="st2" cx="170.9" cy="264.8" r="2.2"/>
	<circle class="st2" cx="143.4" cy="270.6" r="2.2"/>
	<circle class="st2" cx="150.3" cy="270.6" r="2.2"/>
	<circle class="st2" cx="157.1" cy="270.6" r="2.2"/>
	<circle class="st2" cx="164" cy="270.6" r="2.2"/>
	<circle class="st2" cx="170.9" cy="270.6" r="2.2"/>
	<circle class="st2" cx="143.4" cy="276.1" r="2.2"/>
	<circle class="st2" cx="150.3" cy="276.1" r="2.2"/>
	<circle class="st2" cx="157.1" cy="276.1" r="2.2"/>
	<circle class="st2" cx="164" cy="276.1" r="2.2"/>
	<circle class="st2" cx="170.9" cy="276.1" r="2.2"/>
	<circle class="st2" cx="177.5" cy="264.9" r="2.2"/>
	<circle class="st2" cx="184.4" cy="264.9" r="2.2"/>
	<circle class="st2" cx="191.3" cy="264.9" r="2.2"/>
	<circle class="st2" cx="177.5" cy="270.6" r="2.2"/>
	<circle class="st2" cx="184.4" cy="270.6" r="2.2"/>
	<circle class="st2" cx="191.3" cy="270.6" r="2.2"/>
	<circle class="st2" cx="177.5" cy="276.2" r="2.2"/>
	<circle class="st2" cx="184.4" cy="276.2" r="2.2"/>
	<circle class="st2" cx="191.3" cy="276.2" r="2.2"/>
	<circle class="st2" cx="196.9" cy="194.2" r="2.2"/>
	<circle class="st2" cx="190" cy="199.7" r="2.2"/>
	<circle class="st2" cx="196.9" cy="199.7" r="2.2"/>
	<circle class="st2" cx="190" cy="205.5" r="2.2"/>
	<circle class="st2" cx="196.9" cy="205.5" r="2.2"/>
	<circle class="st2" cx="190" cy="211" r="2.2"/>
	<circle class="st2" cx="196.9" cy="211" r="2.2"/>
	<circle class="st2" cx="190.1" cy="217.5" r="2.2"/>
	<circle class="st2" cx="197" cy="217.5" r="2.2"/>
	<circle class="st2" cx="197" cy="223" r="2.2"/>
	<circle class="st2" cx="197" cy="228.8" r="2.2"/>
	<circle class="st2" cx="197" cy="234.4" r="2.2"/>
	<circle class="st2" cx="196.9" cy="240.1" r="2.2"/>
	<circle class="st2" cx="196.9" cy="245.6" r="2.2"/>
	<circle class="st2" cx="197" cy="264.5" r="2.2"/>
	<circle class="st2" cx="197" cy="270.2" r="2.2"/>
	<circle class="st2" cx="197" cy="275.8" r="2.2"/>
</g>
<path class="st2" d="M201.8,169.7H24.6c-2.4,0-4.7,0.8-6.5,2.3l-14,7.5c-1,0.8-2.5,0.1-2.8,1.3c-0.1,0.5,0.1,4,0,5.9
	c5.6-3.4,23.1-13.6,23.4-13.6l153.1-0.4c1.4,0-0.9,0.2,0.2-0.7c0.1-0.1,0.4-0.1,0.9-0.1c7,0.1,13.3-0.1,12.2,1.9l0,15.1
	c0,2.8,9.4,1.3,9.4,1.3c2.8,0,1-1.2,1-4.1v-10.3C201.5,172.4,201.9,173.7,201.8,169.7z"/>
<circle class="st1" cx="13.1" cy="213.1" r="9"/>
<circle class="st1" cx="13.1" cy="192" r="9"/>
<polygon class="st2" points="177.8,201 184.8,196.3 191.1,201 191.1,198.6 185,193.3 177.8,198.2 "/>
<g>
	<path class="st2" d="M94.6,71c2.8,0,5.6,0,8.4,0c1.4,0,2.8,0,4.2-0.1c0.4,0,0.5,0.1,0.6,0.5c2.5,8.5,5,17,7.5,25.5
		c2.5,8.5,5,17,7.5,25.5c0.1,0.2,0.1,0.3,0.2,0.5c0-0.5,0-0.9,0-1.3c-0.1-15.3-0.3-30.6-0.3-46c0-1.8-0.9-3.2-1.8-4.6
		c8,0.1,16,0.3,24,0.4c-0.4,0.8-0.7,1.6-1.1,2.4c-0.2,0.4-0.3,0.9-0.4,1.3c-0.1,4-0.1,7.9-0.1,11.9c0,12,0.1,24.1,0.1,36.1
		c0,3.8,0.1,7.7,0.1,11.5c0,0.4-0.1,0.6-0.4,0.8c-2,1.3-3.9,2.6-5.9,3.9c-0.2,0.2-0.6,0.2-0.8,0.2c-22.9,0-45.8,0-68.8,0
		c-0.3,0-0.6-0.1-0.8-0.3c-2.1-1.6-4.1-3.3-6.2-4.9c-0.3-0.2-0.4-0.5-0.4-0.9c0-19.9,0-39.8,0-59.7c0-0.5-0.1-0.8-0.5-1.1
		c-0.5-0.4-1-0.8-1.6-1.3c8.4,0,16.7,0,25,0c-0.1,0.1-0.2,0.3-0.3,0.4c-0.7,1-1.4,2-2.1,3c-0.1,0.2-0.2,0.5-0.2,0.7
		c-0.1,13-0.1,26-0.1,39.1c0,4.2,0,8.3-0.1,12.5c0,0.1,0,0.2,0.1,0.3C85,108.5,90.1,89.9,94.6,71z M82,134.1
		c10.7-0.1,21.4-0.3,32.1-0.4c0-0.2-0.1-0.3-0.1-0.4c-2.3-7.8-4.7-15.7-7-23.5c-0.1-0.4-0.3-0.5-0.6-0.5c-4.6-0.1-9.2-0.2-13.8-0.2
		c-1.3,0-2.6,0-3.9,0C86.4,117.4,84.2,125.7,82,134.1z M89.8,103.3c5.3,0,10.5,0,15.8,0c-2.7-8.5-5.4-17-8.1-25.6
		C94.9,86.4,92.3,94.8,89.8,103.3z"/>
</g>
</svg>
