<svg viewBox="0 0 203 280" xmlns="http://www.w3.org/2000/svg"><path d="m2 1.94a6.78 6.78 0 0 1 4.77-1.94h188.66a6.74 6.74 0 0 1 6.77 6.7v266.06a6.74 6.74 0 0 1 -6.77 6.7h-188.66a6.74 6.74 0 0 1 -6.77-6.7v-266.06a6.66 6.66 0 0 1 2-4.76z" fill="#fff"/><g fill="#4d4e5b"><path d="m2 1.94a6.78 6.78 0 0 1 4.77-1.94h188.66a6.74 6.74 0 0 1 6.77 6.7v266.06a6.74 6.74 0 0 1 -6.77 6.7h-188.66a6.74 6.74 0 0 1 -6.77-6.7v-266.06a6.66 6.66 0 0 1 2-4.76zm197.47 274.87a5.63 5.63 0 0 0 1.71-4.05v-266.06a5.73 5.73 0 0 0 -5.75-5.7h-188.66a5.73 5.73 0 0 0 -5.77 5.7v266.06a5.73 5.73 0 0 0 5.75 5.7h188.68a5.76 5.76 0 0 0 4.04-1.65z"/><path d="m8.28 7.11h185.64v263.51h-185.64zm184.62 1h-183.6v261.52h183.6z"/><path d="m17.92 234.58h83.15v1h-83.15z"/><path d="m17.92 251.41h70.7v1h-70.7z"/><path d="m34.87 256.18a4.41 4.41 0 0 1 3.13-1.25 4.33 4.33 0 0 1 3 1.25 4.18 4.18 0 0 1 1.28 3 4.37 4.37 0 0 1 -7.43 3 4.19 4.19 0 0 1 0-6zm5.43 5.33a3.26 3.26 0 0 0 1-2.31 3.19 3.19 0 0 0 -1-2.31 3.35 3.35 0 0 0 -5.69 2.31 3.22 3.22 0 0 0 1 2.31 3.39 3.39 0 0 0 4.71 0z"/><path d="m19.36 196.45a5.76 5.76 0 0 1 4.05-1.65 5.68 5.68 0 0 1 5.73 5.61 5.73 5.73 0 0 1 -11.45 0 5.55 5.55 0 0 1 1.67-3.96zm8.76 4a4.71 4.71 0 1 0 -4.71 4.55 4.67 4.67 0 0 0 4.71-4.62z"/><path d="m31.35 196.45a5.76 5.76 0 0 1 4-1.65 5.67 5.67 0 0 1 5.72 5.61 5.5 5.5 0 0 1 -1.67 4 5.75 5.75 0 0 1 -9.78-4 5.55 5.55 0 0 1 1.73-3.96zm7.38 7.23a4.49 4.49 0 0 0 1.37-3.27 4.71 4.71 0 1 0 -4.7 4.59 4.73 4.73 0 0 0 3.33-1.32z"/><path d="m43.34 196.44a5.82 5.82 0 0 1 8.1 0 5.54 5.54 0 0 1 1.67 4 5.73 5.73 0 0 1 -11.45 0 5.55 5.55 0 0 1 1.68-4zm7.37 7.24a4.55 4.55 0 0 0 0-6.53 4.77 4.77 0 0 0 -6.65 0 4.54 4.54 0 0 0 -1.38 3.27 4.67 4.67 0 0 0 4.71 4.58 4.75 4.75 0 0 0 3.32-1.32z"/><path d="m46.35 256.18a4.41 4.41 0 0 1 3.08-1.25 4.36 4.36 0 0 1 3.08 1.25 4.21 4.21 0 0 1 1.27 3 4.32 4.32 0 0 1 -4.35 4.27 4.38 4.38 0 0 1 -3.08-1.26 4.17 4.17 0 0 1 -1.27-3 4.24 4.24 0 0 1 1.27-3.01zm5.44 5.33a3.23 3.23 0 0 0 1-2.31 3.18 3.18 0 0 0 -1-2.31 3.34 3.34 0 0 0 -2.36-1 3.3 3.3 0 0 0 -3.33 3.27 3.21 3.21 0 0 0 1 2.31 3.38 3.38 0 0 0 4.72 0z"/><path d="m57.84 256.18a4.38 4.38 0 0 1 3.07-1.25 4.27 4.27 0 1 1 -4.35 4.27 4.21 4.21 0 0 1 1.28-3.02zm5.43 5.33a3.24 3.24 0 0 0 1-2.31 3.34 3.34 0 1 0 -3.34 3.27 3.37 3.37 0 0 0 2.34-.96z"/><path d="m17.86 156.13a3.27 3.27 0 0 1 2.31-.94h38.54a3.31 3.31 0 0 1 2.31.94 3.15 3.15 0 0 1 1 2.27v2.87a3.31 3.31 0 0 1 -3.27 3.21h-38.58a3.25 3.25 0 0 1 -3.27-3.21v-2.87a3.15 3.15 0 0 1 .96-2.27zm42.44 6.7a2.14 2.14 0 0 0 .66-1.56v-2.87a2.16 2.16 0 0 0 -.66-1.56 2.24 2.24 0 0 0 -1.59-.65h-38.54a2.29 2.29 0 0 0 -2.25 2.21v2.87a2.23 2.23 0 0 0 2.25 2.21h38.54a2.24 2.24 0 0 0 1.59-.65z"/><path d="m14.59 28.82h173.94v109.28h-173.94zm172.92 1h-171.9v107.28h171.9z"/><path d="m18.76 28.82h165.6v109.28h-165.6zm164.58 1h-163.56v107.28h163.56z"/><path d="m174.1 11.91a8.53 8.53 0 0 1 6-2.43 8.38 8.38 0 0 1 8.45 8.29 8.16 8.16 0 0 1 -2.48 5.86 8.49 8.49 0 0 1 -6 2.43 8.4 8.4 0 0 1 -8.46-8.29 8.18 8.18 0 0 1 2.49-5.86zm11.23 11a7.2 7.2 0 0 0 2.18-5.15 7.44 7.44 0 1 0 -7.43 7.29 7.44 7.44 0 0 0 5.25-2.13z"/><path d="m19.44 25.53h95.44c17.49 0 22-3.69 22.93-4.82.31-.37.68-.8 1.08-1.2l6.37-6.24c6.52-6.4 9.58-6.2 9.91-6.15l-.14 1 .07-.5-.06.5s-2.89-.2-9.04 5.88l-6.36 6.24a14.87 14.87 0 0 0 -1 1.13c-1.3 1.56-6.27 5.18-23.71 5.18h-95.49z"/><path d="m17.63 28.82h99.78c17.49 0 22-3.69 22.93-4.82a12.91 12.91 0 0 1 1-1.11c1.33-1.25 5-4.71 10-9.62 6.53-6.4 9.59-6.2 9.91-6.15l-.12 1s-2.89-.19-9.06 5.87c-5 4.92-8.66 8.38-10 9.64-.33.32-.66.68-.95 1-1.31 1.57-6.27 5.18-23.71 5.18h-99.78z"/><path d="m20.26 20.05a5.82 5.82 0 0 1 4.13-1.68h16.22s1 .16 2.54-1.37c1.82-1.79 4.36-4.42 4.38-4.45.19-.21 5-5.45 10.29-5.45v1c-4.78 0-9.49 5.09-9.54 5.13s-2.58 2.68-4.41 4.47-3.09 1.71-3.44 1.66h-16a4.84 4.84 0 0 0 -3.43 1.39 4.67 4.67 0 0 0 0 6.69 4.84 4.84 0 0 0 3.41 1.38v1a5.86 5.86 0 0 1 -4.13-1.67 5.65 5.65 0 0 1 0-8.1z"/><path d="m138.26 82.77v1.66c0 .24 0 .48-.08.72-.1.69-.18 1.39-.3 2.08s-.26 1.61-.43 2.41-.38 1.63-.59 2.44c-.17.65-.34 1.31-.55 2-.14.46-.36.9-.54 1.35s-.35.91-.54 1.36-.42 1-.67 1.48c-.41.8-.83 1.6-1.31 2.38s-1.12 1.75-1.72 2.6a25.3 25.3 0 0 1 -1.67 2.19c-.66.78-1.38 1.51-2.1 2.23s-1.4 1.37-2.14 2-1.36 1.07-2.07 1.58-1.37 1-2.09 1.44-1.69 1-2.57 1.47-1.72.84-2.59 1.22c-.55.25-1.11.45-1.68.66l-1.21.43c-.32.11-.63.21-1 .3l-1.17.32-1.82.41c-.53.12-1.07.24-1.61.33s-.83.13-1.24.17c-1 .08-2 .17-3 .22a28.46 28.46 0 0 1 -2.92.06c-1.26-.06-2.53-.2-3.78-.35a22.37 22.37 0 0 1 -2.31-.43c-.79-.17-1.57-.35-2.35-.56s-1.55-.45-2.32-.71-1.23-.47-1.84-.72c-.87-.36-1.75-.72-2.59-1.13s-1.42-.76-2.11-1.17-1.29-.77-1.9-1.21c-1-.7-2-1.41-2.87-2.18s-1.88-1.62-2.75-2.5a31.09 31.09 0 0 1 -3.21-3.76 26.92 26.92 0 0 1 -2.22-3.56c-.46-.9-1-1.78-1.41-2.68a19.82 19.82 0 0 1 -.84-2.09c-.46-1.37-.91-2.74-1.31-4.12a20.39 20.39 0 0 1 -.44-2.2c-.13-.72-.21-1.46-.33-2.18a5.79 5.79 0 0 0 -.3-1.7.62.62 0 0 1 0-.27c0-1.3 0-2.6 0-3.89a1 1 0 0 1 0-.17l.33-1.41v-.14c.07-.73.11-1.47.23-2.2s.29-1.4.46-2.09.31-1.3.5-2 .41-1.36.66-2 .52-1.35.8-2c.17-.4.38-.79.57-1.19.32-.64.63-1.29 1-1.92s.82-1.46 1.29-2.15c.62-.93 1.28-1.84 2-2.72a28.56 28.56 0 0 1 3.3-3.57c1-1 2.16-1.87 3.28-2.75a26.73 26.73 0 0 1 2.41-1.69c.87-.53 1.77-1 2.68-1.48s1.72-.94 2.72-1.34 1.83-.71 2.76-1c.59-.19 1.2-.32 1.8-.49.36-.09.72-.22 1.09-.29.76-.16 1.52-.28 2.28-.42.56-.1 1.11-.2 1.66-.28s1.12-.14 1.68-.16c1.32-.06 2.64-.12 4-.12a16.42 16.42 0 0 1 1.84.2h.23c.78.07 1.56.13 2.33.23s1.31.21 2 .35 1.2.3 1.8.46 1.1.29 1.64.46 1.12.34 1.66.55c1 .37 1.91.72 2.83 1.15s2 1 3 1.6 2.16 1.36 3.2 2.11a28.19 28.19 0 0 1 4 3.41c.68.72 1.41 1.41 2 2.17.8 1 1.56 2 2.28 3s1.26 1.91 1.82 2.9c.45.78.81 1.62 1.19 2.44.23.47.44.94.63 1.43.24.64.47 1.29.69 1.93s.4 1.16.57 1.74.27 1 .38 1.54c.18.84.36 1.67.51 2.52.09.52.1 1.06.17 1.59s.15.84.2 1.26.07.87.09 1.31-.07.75-.07 1.13zm-36.26-30.68h-2.5a1.62 1.62 0 0 0 -.31 0c-.77.11-1.53.21-2.29.33s-1.44.21-2.15.39c-1 .26-2.06.57-3.07.91a26.85 26.85 0 0 0 -2.67 1 30.85 30.85 0 0 0 -3 1.55c-1.07.63-2.1 1.32-3.1 2.05a22.73 22.73 0 0 0 -2.21 1.82c-.88.83-1.71 1.72-2.54 2.6a18.16 18.16 0 0 0 -1.16 1.49c-.35.46-.68.94-1 1.43-.53.81-1.07 1.61-1.54 2.46s-.88 1.76-1.27 2.65c-.31.7-.58 1.42-.83 2.14s-.49 1.57-.74 2.35c-.11.31-.09.36.24.36q7.2 0 14.41 0a.72.72 0 0 0 .76-.48 12.24 12.24 0 0 1 1.79-2.71 17.5 17.5 0 0 1 2-2.09 18.63 18.63 0 0 1 2.55-1.85 14.75 14.75 0 0 1 3.46-1.49 22.11 22.11 0 0 1 2.27-.56 17.24 17.24 0 0 1 3.21-.26c.58 0 1.15.09 1.72.14a9.52 9.52 0 0 1 1.21.16c.67.16 1.33.34 2 .56.79.27 1.57.57 2.33.9a14.76 14.76 0 0 1 2.39 1.42 16.13 16.13 0 0 1 3.2 3 15 15 0 0 1 2 3 .49.49 0 0 0 .52.3h13.41 1.2c.18 0 .28-.06.22-.25-.15-.52-.31-1-.47-1.54s-.4-1.26-.65-1.88c-.32-.79-.66-1.58-1-2.34s-.91-1.65-1.39-2.46c-.34-.59-.73-1.16-1.13-1.72a22.23 22.23 0 0 0 -1.43-1.92c-.88-1-1.79-2-2.75-2.94s-1.89-1.67-2.88-2.45a22.67 22.67 0 0 0 -2.32-1.53c-.82-.49-1.67-.93-2.52-1.36-.69-.35-1.41-.67-2.12-1-.43-.19-.88-.34-1.33-.49s-1.09-.37-1.65-.53-1.34-.33-2-.49l-.82-.17c-.25-.06-.5-.13-.75-.17-.56-.09-1.13-.16-1.69-.23a9.41 9.41 0 0 0 -1.05-.13c-.83.01-1.67.03-2.56.03zm0 61.31v.06h.4c.69 0 1.38 0 2.07-.06s1.17-.13 1.75-.21 1.16-.12 1.72-.24c.84-.18 1.68-.39 2.51-.63s1.8-.52 2.68-.83 1.45-.59 2.16-.91a19.18 19.18 0 0 0 1.93-1c1.17-.71 2.33-1.44 3.45-2.22.86-.61 1.66-1.29 2.46-2a20.32 20.32 0 0 0 1.56-1.52c.65-.69 1.31-1.38 1.9-2.13.72-.93 1.37-1.91 2-2.88a20.53 20.53 0 0 0 2.11-3.83c.39-.92.76-1.86 1.1-2.8.25-.67.43-1.36.64-2 .07-.24 0-.34-.3-.32s-.46 0-.69 0c-.95 0-1.9 0-2.85 0-3.55 0-7.11 0-10.67 0a.9.9 0 0 0 -1 .59 14.18 14.18 0 0 1 -2.41 3.4 16.63 16.63 0 0 1 -5.21 3.84 15.59 15.59 0 0 1 -3.24 1.14c-.43.11-.88.17-1.32.25a9 9 0 0 1 -1.14.19 15.37 15.37 0 0 1 -4.5-.29c-.66-.17-1.35-.22-2-.43a18.57 18.57 0 0 1 -2.38-.92 21.1 21.1 0 0 1 -2.4-1.36 15.12 15.12 0 0 1 -3.22-2.86 14.44 14.44 0 0 1 -2.11-3.1c-.09-.2-.17-.47-.51-.47-3.37 0-6.75 0-10.12 0h-4.57c-.17 0-.27.06-.21.26s.12.53.2.78c.36 1.07.68 2.16 1.12 3.2a36.34 36.34 0 0 0 1.73 3.55 35.19 35.19 0 0 0 2 3 20.44 20.44 0 0 0 1.71 2.13c.83.91 1.71 1.79 2.6 2.63a22.56 22.56 0 0 0 1.83 1.59c.57.44 1.15.85 1.75 1.24.86.55 1.73 1.08 2.62 1.58a20.47 20.47 0 0 0 1.93 1c.66.29 1.35.52 2 .78a21.66 21.66 0 0 0 3.55 1.06c.78.15 1.57.27 2.34.45a15.25 15.25 0 0 0 2.51.32c.86.01 1.69-.03 2.52-.03zm-21.55-33h-9.22c-.5 0-.56.06-.56.55a1.34 1.34 0 0 0 0 .2v3.24c0 .71 0 .71.7.71h18a3.6 3.6 0 0 1 .57 0 .41.41 0 0 1 .29.18 3 3 0 0 1 .17.53 8.54 8.54 0 0 0 .41 1.33 22.21 22.21 0 0 0 1.33 2.38 9.61 9.61 0 0 0 2 2.24 12.89 12.89 0 0 0 3.68 2.09 10.88 10.88 0 0 0 3.08.67 16.85 16.85 0 0 0 2.75-.07 10.89 10.89 0 0 0 2-.4 11.74 11.74 0 0 0 2.86-1.31 10.66 10.66 0 0 0 2.81-2.41c.48-.62.9-1.28 1.32-1.94a10.28 10.28 0 0 0 1.13-2.82c.1-.38.15-.45.54-.48h18.69c.21 0 .31-.1.31-.34 0-1.27 0-2.54 0-3.81 0-.51 0-.54-.55-.54q-9.27 0-18.55 0a.41.41 0 0 1 -.47-.37 10.41 10.41 0 0 0 -1-2.69 9 9 0 0 0 -1.63-2.3 17.65 17.65 0 0 0 -2-1.85 20.8 20.8 0 0 0 -2.54-1.4 3.58 3.58 0 0 0 -.71-.27c-.34-.1-.69-.17-1-.25a11.19 11.19 0 0 0 -1.59-.32 12.51 12.51 0 0 0 -4.31.37 16.68 16.68 0 0 0 -2.26.86 9.19 9.19 0 0 0 -2.84 1.82 18.51 18.51 0 0 0 -1.65 1.79 8.13 8.13 0 0 0 -1.34 2.34c-.18.49-.33 1-.49 1.5a1.49 1.49 0 0 1 -.2.57.78.78 0 0 1 -.51.16c-3.07.04-6.14.03-9.21.03z"/><path d="m101.81 89.81a7.14 7.14 0 0 1 -6.93-5.81 7.17 7.17 0 0 1 6.1-8.23 7.11 7.11 0 0 1 5.93 1.85 6.88 6.88 0 0 1 2.3 4.56 6.73 6.73 0 0 1 -1.9 5.41 7 7 0 0 1 -5.5 2.22zm.19-4.71a2.35 2.35 0 1 0 -.08-4.7 2.35 2.35 0 0 0 .08 4.7z"/></g></svg>