<?xml version="1.0" encoding="utf-8"?>
<!-- Generator: Adobe Illustrator 24.0.0, SVG Export Plug-In . SVG Version: 6.00 Build 0)  -->
<svg version="1.1" id="Layer_1" xmlns="http://www.w3.org/2000/svg" xmlns:xlink="http://www.w3.org/1999/xlink" x="0px" y="0px"
	 viewBox="0 0 203 280" style="enable-background:new 0 0 203 280;" xml:space="preserve">
<style type="text/css">
	.st0{fill:#FFFFFF;}
	.st1{fill:none;stroke:#4D4E5B;stroke-miterlimit:10;}
	.st2{fill:#4D4E5B;}
	.st3{fill:#4D4E5B;stroke:#4D4E5B;stroke-miterlimit:10;}
	.st4{fill:#FFFFFF;stroke:#4D4E5B;stroke-miterlimit:10;}
</style>
<path class="st0" d="M200.7,2.1c1.3,1.3,2,3,2,4.8v266.4c0,3.7-3.1,6.7-6.8,6.7H7.1c-3.7,0-6.8-3-6.8-6.7c0,0,0,0,0,0V6.8
	c0-3.7,3.1-6.7,6.8-6.7h188.8C197.7,0.1,199.4,0.9,200.7,2.1z"/>
<title>DGB - card</title>
<polygon class="st1" points="28.7,10.9 17,10.9 11.2,21 17,31.2 28.7,31.2 34.6,21 "/>
<polygon class="st1" points="30.3,8.2 15.5,8.2 8.1,21 15.5,33.9 30.3,33.9 37.7,21 "/>
<path class="st1" d="M200.7,2.1c1.3,1.3,2,3,2,4.8v266.4c0,3.7-3.1,6.7-6.8,6.7H7.1c-3.7,0-6.8-3-6.8-6.7c0,0,0,0,0,0V6.8
	c0-3.7,3.1-6.7,6.8-6.7h188.8C197.7,0.1,199.4,0.8,200.7,2.1z M3,277.3c1.1,1.1,2.5,1.7,4.1,1.6h188.9c3.2,0,5.7-2.5,5.8-5.7V6.8
	c0-3.2-2.6-5.7-5.8-5.7H7.1c-1.5,0-3,0.6-4.1,1.7c-1.1,1.1-1.7,2.5-1.7,4v266.5C1.3,274.7,1.9,276.2,3,277.3L3,277.3z"/>
<polygon class="st1" points="27.2,38.8 18.6,38.8 14.3,46.2 18.6,53.7 27.2,53.7 31.5,46.2 "/>
<polygon class="st1" points="28.3,36.8 17.4,36.8 12,46.2 17.4,55.7 28.3,55.7 33.8,46.2 "/>
<path class="st1" d="M24,121.1c-11.3-26.7-5.3-40.3-5.3-40.3L4,86.3v69.3l14.6,5.8C18.6,161.4,12.7,147.8,24,121.1"/>
<path class="st1" d="M4,158.6"/>
<path class="st1" d="M26.9,121.1c-13.5-29.3-4-44.6-4-44.6L4,83.2v75.4l19,7.4C23,166,13.4,150.5,26.9,121.1"/>
<path class="st1" d="M178.4,239.9c-3.8,2.7-4.4,7.3-4.4,7.3H47.6l4-7.3"/>
<path class="st1" d="M178.4,239.9c-3.8-2.7-4.4-7.3-4.4-7.3H47.6l4,7.3"/>
<polyline class="st1" points="49.6,239.9 46,243 46,247.2 25.6,247.2 25.6,243.6 22.2,239.9 "/>
<polyline class="st1" points="49.6,239.9 46,236.8 46,232.6 25.6,232.6 25.6,236.2 22.2,239.9 "/>
<polyline class="st1" points="84.7,259.1 81.1,256 81.1,251.8 34.7,251.8 34.7,255.4 31.4,259.1 "/>
<polyline class="st1" points="84.7,259.1 81.1,262.2 81.1,266.4 34.7,266.4 34.7,262.8 31.4,259.1 "/>
<polyline class="st1" points="142.2,268.2 122,268.2 121.3,266.7 116.4,266.7 115.7,268.2 109.3,268.2 113.8,262.9 109.9,258.7 "/>
<polyline class="st1" points="140,268.2 160.3,268.2 160.9,266.7 165.8,266.7 166.6,268.2 172.9,268.2 168.5,262.9 172.4,258.7 "/>
<polyline class="st1" points="142.2,249.7 122,249.7 121.3,251.2 116.4,251.2 115.7,249.7 109.3,249.7 113.8,255 109.9,259.2 "/>
<polyline class="st1" points="140,249.7 160.3,249.7 160.9,251.2 165.8,251.2 166.6,249.7 172.9,249.7 168.5,255 172.4,259.2 "/>
<polyline class="st1" points="88.3,259.1 84.2,254.4 84.2,249.7 32.5,249.7 32.5,254.4 28.5,259.1 "/>
<polyline class="st1" points="88.3,258.7 84.2,263.4 84.2,268.1 32.5,268.1 32.5,263.4 28.5,259.1 "/>
<polyline class="st1" points="105.5,250.3 93.2,250.3 93.2,252.9 90,257 90,259.1 92.9,263.4 105.5,263.4 108.4,259.1 108.4,257 
	105.3,252.9 105.3,250.3 92.9,250.3 "/>
<polyline class="st1" points="109.3,267.7 107,265.4 109.2,262.9 111.4,260.3 "/>
<line class="st1" x1="109.2" y1="262.8" x2="112" y2="265.5"/>
<polyline class="st1" points="86.7,257.1 89,254.9 86.8,252.4 84.2,249.7 "/>
<line class="st1" x1="86.8" y1="252.3" x2="84" y2="255"/>
<polyline class="st1" points="109.7,249.9 107.4,252.2 109.6,254.7 111.8,257.3 "/>
<line class="st1" x1="109.6" y1="254.8" x2="112.4" y2="252.1"/>
<polyline class="st1" points="86.6,260.5 88.9,262.7 86.7,265.3 84.2,268.1 "/>
<line class="st1" x1="86.7" y1="265.4" x2="84.5" y2="262.8"/>
<path class="st1" d="M187.7,264.3h-11.2c-1,0-1.7-0.8-1.7-1.7v-7.4c0-1,0.8-1.7,1.7-1.7h11.2c1,0,1.7,0.8,1.7,1.7v7.4
	C189.4,263.5,188.7,264.3,187.7,264.3z"/>
<path class="st1" d="M188.9,266.4h-13.3c-1.4,0-2.6-1.2-2.6-2.6v-10.1c0-1.4,1.2-2.6,2.6-2.6h13.3c1.4,0,2.6,1.2,2.6,2.6v10.1
	C191.4,265.3,190.3,266.4,188.9,266.4z"/>
<ellipse class="st2" cx="182.2" cy="258.7" rx="1.3" ry="1.7"/>
<line class="st1" x1="175.3" y1="253.9" x2="189.2" y2="263.4"/>
<line class="st1" x1="175.3" y1="263.8" x2="188.6" y2="254"/>
<line class="st1" x1="181.9" y1="239.9" x2="201.7" y2="239.9"/>
<polyline class="st1" points="177.4,244.1 180.9,248.3 191.4,248.3 194.7,251.5 202,251.5 "/>
<polyline class="st1" points="178.4,235.3 180.9,232.6 189,232.6 190.9,230.3 202,230.3 "/>
<path class="st1" d="M176.2,230.3c0.4-0.2,14.7,0,14.7,0"/>
<polyline class="st1" points="133,273.2 141.2,273.2 145.6,278.9 "/>
<polyline class="st1" points="134.9,271.1 148.6,271.1 153.1,276.7 200.9,276.1 "/>
<polyline class="st1" points="146.2,275.2 148.9,275.2 152,278.9 "/>
<polyline class="st1" points="155.3,273.2 186.3,273.2 190.9,268.2 202.7,268.2 "/>
<polyline class="st1" points="186.9,276.1 191.8,270.7 201.7,270.7 "/>
<polyline class="st1" points="0.3,249.7 9.4,249.7 11.7,247.2 21.1,247.2 23.3,244.7 "/>
<line class="st1" x1="0.3" y1="240.3" x2="19" y2="240.3"/>
<polyline class="st1" points="0.3,230.7 11.8,230.7 13.4,233.3 21.2,233.3 23.3,236.2 "/>
<line class="st1" x1="24.3" y1="230.7" x2="11.8" y2="230.7"/>
<polyline class="st1" points="4.3,278.2 9.7,273.9 20.5,273.9 23.9,278.2 "/>
<polyline class="st1" points="43.7,278.2 46.2,276.1 58,276.1 61.6,271.1 "/>
<polyline class="st1" points="38.3,278.2 43,273.9 55.2,273.9 57.3,271.1 "/>
<polyline class="st1" points="2.5,276.7 8.8,271.1 22.2,271.1 "/>
<polyline class="st1" points="0.5,274.7 7.8,268.2 22.2,268.2 "/>
<line class="st1" x1="9.4" y1="249.7" x2="13.3" y2="254.4"/>
<line class="st1" x1="11.7" y1="247.2" x2="17" y2="253.4"/>
<polyline class="st1" points="16.2,249.7 29.4,249.7 32.5,252.8 "/>
<polyline class="st1" points="18.1,251.2 27.9,251.2 31.4,254.8 "/>
<circle class="st3" cx="61.6" cy="270.4" r="1"/>
<circle class="st3" cx="57.3" cy="270.4" r="1"/>
<circle class="st3" cx="13.3" cy="255" r="1"/>
<circle class="st3" cx="17.4" cy="254" r="1"/>
<circle class="st3" cx="132" cy="273.2" r="1"/>
<circle class="st3" cx="134.6" cy="270.7" r="1"/>
<circle class="st3" cx="146.2" cy="275.2" r="1"/>
<circle class="st3" cx="155.3" cy="273.2" r="1"/>
<rect x="13.4" y="29.3" class="st4" width="19" height="5.3"/>
<path class="st2" d="M170.2,91.5c0.6-2.1,1.3-4.1,2-6.2c-13.9,0-55.5,0-69.3,0c-1,0-1.7,0.2-2.4,1.1c-5.7,7.1-11.5,14.2-17.2,21.2
	c-0.8,1-1.7,2-2.8,3.3c-2.1-8.7-4.1-17-6.1-25.4H52.1c5.6,20.5,11.1,40.9,16.7,61.5c0.5-0.5,0.8-0.9,1.1-1.2
	c4.1-4.8,8.2-9.7,12.3-14.5c10.4-12.3,20.8-24.5,31.2-36.8c0.8-1,1.6-1.3,2.9-1.3c8.6,0,45,0,53.5,0
	C169.9,92.6,170.1,92.1,170.2,91.5z"/>
<g>
	<g>
		<path class="st2" d="M69.4,155.2l-3.3,3.5c0,0-1.9-6.8-2.3-7.9c-0.9-3.3-1.8-6.6-2.7-9.8c-0.4-1.3-0.7-2.6-1.1-3.9l-6.6-24.5
			c-0.9-3.4-1.9-6.8-2.8-10.2c-1.7-6.3-5.9-22.8-5.9-22.8c2.2-0.1,19-0.2,25.3-0.2c2.5,0,5,0,7.5,0c0,0,0.1,0,0.1,0c0,0,0,0,0,0
			c1.4,0,1.8,1.1,1.9,1.6c0,0,0,0.1,0,0.1c0.6,2.4,1.1,4.7,1.7,7.1l1.1,4.6c0.4,1.6,0.8,3.2,1.2,4.9c0.9-1.1,1.8-2.2,2.7-3.3
			c1.3-1.6,2.6-3.3,4-4.9c1.4-1.7,2.7-3.3,4.1-5c0.2-0.2,0.3-0.4,0.5-0.6c0.5-0.6,1-1.2,1.5-1.8c1.3-1.4,2.9-2.3,4.8-2.6
			c0.7-0.1,1.4-0.2,2.2-0.2c3.2,0,6.4,0,9.5,0c2.8,0,5.6,0,8.5,0c8.5,0,58.7,0.2,58.7,0.2s-1.1,4.3-1.2,4.5l-0.2,0.5
			c-0.4,1.4-0.9,2.8-1.3,4.2c-0.2,0.7-0.5,1.5-0.7,2.2c-0.3,0.9-0.6,1.9-0.9,2.8c-0.3,0.9-0.5,1.8-0.8,2.7c-0.1,0.4-0.2,0.9-0.4,1.3
			c0,0.1-0.1,0.2-0.1,0.3l0,0.1l-0.4,1.2h-7.4c-5.3,0-38.4,0-43.6,0h-0.9c-1.6,0-3.3,0-5,0c-4,4.8-8.2,9.7-12.8,15.1
			c-2.2,2.6-4.4,5.2-6.6,7.8c-1.5,1.7-2.9,3.4-4.4,5.1c-3.7,4.4-7.4,8.7-11,13c-0.9,1.1-1.9,2.2-2.8,3.4c-1.7,2-3.4,4-5.1,6
			c-0.6,0.7-1.3,1.5-1.9,2.1c-0.3,0.3-0.6,0.7-0.9,1c-0.4,0.4-0.8,0.9-1.2,1.4L69.4,155.2z M67.5,151.8h0.3l0.1-0.1
			c0.4-0.5,0.8-0.9,1.2-1.4c0.3-0.3,0.6-0.7,0.9-1c0.6-0.7,1.3-1.4,1.8-2.1c1.7-2,3.4-4,5.1-6c0.9-1.1,1.9-2.3,2.8-3.4
			c3.6-4.3,7.3-8.6,11-13c1.5-1.7,2.9-3.4,4.4-5.1c2.2-2.6,4.4-5.2,6.6-7.8c4.7-5.5,8.9-10.6,13-15.4c0.5-0.6,1.2-0.9,2-0.9
			c1.8,0,3.6,0,5.3,0h0.9c5.3,0,38.4,0,43.6,0h4.9c0-0.1,0.1-0.2,0.1-0.3c0.3-0.9,0.5-1.8,0.8-2.7c0.3-1,0.6-1.9,0.9-2.9
			c0.2-0.7,0.4-1.4,0.7-2.1c0.4-1.4,0.9-2.8,1.3-4.2l0.1-0.5c0-0.1,0-0.3,0-0.4c-0.3,0-0.5,0-0.8,0c-8.5,0-44.9,0-53.4,0
			c-2.8,0-5.6,0-8.5,0c-3.2,0-6.4,0-9.5,0c-0.6,0-1.1,0-1.6,0.1c-1.2,0.2-2.1,0.7-2.9,1.5c-0.5,0.5-0.9,1.1-1.4,1.7
			c-0.2,0.2-0.3,0.4-0.5,0.6c-1.4,1.7-2.7,3.3-4.1,5c-1.3,1.6-2.6,3.3-4,4.9c-1.2,1.5-2.4,2.9-3.5,4.4l-1.1,1.4
			c-0.1,0.1-0.1,0.1-0.2,0.2c0,0,0,0-0.1,0.1l-2,2.2l-0.9-2.9c0,0,0-0.1,0-0.1c0-0.1,0-0.1-0.1-0.2l-0.1-0.4c-0.6-2.5-1.2-5-1.8-7.5
			l-1.1-4.6c-0.5-2.1-1-4.1-1.5-6.2c-2.2,0-4.3,0-6.5,0c-6.3,0-12.7,0-19.1,0c-0.7,0-1.4,0-2.1,0.1c0,0.1,0,0.2,0,0.3c0,0,0,0,0,0
			c0.1,0.1,0.2,0.3,0.2,0.6c1.6,5.8,3.1,11.5,4.8,17.8c0.9,3.4,1.9,6.8,2.8,10.3l6.6,24.5c0.4,1.3,0.7,2.6,1.1,3.9
			c0.9,3.2,1.8,6.5,2.7,9.8C67.2,150.4,67.4,151.1,67.5,151.8z M45.8,84.6L45.8,84.6L45.8,84.6z"/>
	</g>
</g>
<path class="st2" d="M188.9,180.2c1.3,1.2,2,2.9,2,4.7V221c0,3.7-3.1,6.6-6.7,6.6H18.9c-1.8,0-3.5-0.7-4.8-1.9c-1.3-1.2-2-2.9-2-4.7
	l0-36.2c0-3.7,3.1-6.7,6.8-6.6h165.2C185.9,178.3,187.6,179,188.9,180.2z M14.9,225c1.1,1.1,2.5,1.6,4,1.6h165.2
	c3.1,0,5.7-2.5,5.7-5.6v-36.2c0-3.1-2.6-5.6-5.7-5.6H18.9c-3.1,0-5.7,2.5-5.7,5.6l0,36.2C13.2,222.5,13.8,224,14.9,225L14.9,225z"/>
</svg>
