<svg viewBox="0 0 203 280" xmlns="http://www.w3.org/2000/svg"><path d="m202.39 279.43a1.75 1.75 0 0 1 -1.25.51h-197.21a3.89 3.89 0 0 1 -3.93-3.84v-272.26a4 4 0 0 1 3.93-3.84h195.07a4 4 0 0 1 2.78 1.12 3.81 3.81 0 0 1 1.15 2.72v274.37a1.69 1.69 0 0 1 -.54 1.22z" fill="#fff"/><g fill="#4d4e5b"><path d="m202.39 279.43a1.75 1.75 0 0 1 -1.25.51h-197.21a3.89 3.89 0 0 1 -3.93-3.84v-272.26a4 4 0 0 1 3.93-3.84h195.07a4 4 0 0 1 2.78 1.12 3.81 3.81 0 0 1 1.15 2.72v274.37a1.69 1.69 0 0 1 -.54 1.22zm-200.52-277.6a2.79 2.79 0 0 0 -.85 2v272.27a2.79 2.79 0 0 0 .85 2 2.91 2.91 0 0 0 2.06.83h197.21a.76.76 0 0 0 .75-.73v-274.36a2.79 2.79 0 0 0 -.85-2 2.91 2.91 0 0 0 -2.04-.84h-195.07a2.91 2.91 0 0 0 -2.06.83z"/><path d="m198.57 274.56h-194.23v-269.18h194.23zm-193.21-1h192.19v-267.18h-192.19z"/><path d="m175.52 196.67h-148.13v-132.87h148.13zm-147.11-1h146.09v-130.87h-146.09z"/><path d="m179.56 200.64h-156.21v-140.8h156.21zm-155.19-1h154.17v-138.81h-154.17z"/><path d="m175.52 196.67h-148.13v-132.87h148.13zm-147.11-1h146.09v-130.87h-146.09z"/><path d="m28.26 63.95-.72.7-4.04-3.96.72-.71z"/><path d="m175.37 64.65-.72-.7 4.04-3.97.72.71z"/><path d="m179.41 199.79-.72.7-4.04-3.97.72-.7z"/><path d="m24.22 200.49-.72-.7 4.04-3.97.72.7z"/><path d="m177.09 53.85a6.57 6.57 0 0 1 -4.62 1.87 6.39 6.39 0 1 1 0-12.78 6.57 6.57 0 0 1 4.62 1.87 6.3 6.3 0 0 1 0 9zm-8.51-8.33a5.31 5.31 0 0 0 -1.58 3.81 5.51 5.51 0 0 0 11 0 5.3 5.3 0 0 0 -1.61-3.81 5.59 5.59 0 0 0 -7.79 0z"/><path d="m172.47 45.21.94 2.82h3.03l-2.45 1.75.93 2.82-2.45-1.74-2.46 1.74.94-2.82-2.45-1.75h3.03z"/><path d="m163.23 53.85a6.64 6.64 0 0 1 -4.62 1.87 6.53 6.53 0 0 1 -4.61-1.87 6.3 6.3 0 0 1 0-9 6.56 6.56 0 0 1 11.14 4.52 6.32 6.32 0 0 1 -1.91 4.48zm-8.51-8.33a5.31 5.31 0 0 0 -1.62 3.81 5.51 5.51 0 1 0 5.51-5.39 5.52 5.52 0 0 0 -3.89 1.58z"/><path d="m158.61 45.21.94 2.82h3.03l-2.45 1.75.94 2.82-2.46-1.74-2.45 1.74.94-2.82-2.46-1.75h3.04z"/><path d="m149.37 53.85a6.39 6.39 0 1 1 0-9 6.3 6.3 0 0 1 0 9zm-8.51-8.33a5.3 5.3 0 0 0 -1.61 3.81 5.51 5.51 0 0 0 11 0 5.3 5.3 0 0 0 -1.61-3.81 5.59 5.59 0 0 0 -7.79 0z"/><path d="m144.75 45.21.94 2.82h3.04l-2.46 1.75.94 2.82-2.46-1.74-2.45 1.74.94-2.82-2.46-1.75h3.04z"/><path d="m135.51 53.85a6.63 6.63 0 0 1 -9.23 0 6.3 6.3 0 0 1 0-9 6.55 6.55 0 0 1 4.62-1.87 6.46 6.46 0 0 1 6.52 6.39 6.32 6.32 0 0 1 -1.91 4.48zm-8.51-8.33a5.3 5.3 0 0 0 -1.61 3.81 5.51 5.51 0 1 0 5.51-5.39 5.54 5.54 0 0 0 -3.9 1.58z"/><path d="m130.9 45.21.94 2.82h3.03l-2.46 1.75.94 2.82-2.45-1.74-2.46 1.74.94-2.82-2.45-1.75h3.03z"/><path d="m121.66 53.85a6.63 6.63 0 0 1 -9.23 0 6.28 6.28 0 0 1 0-9 6.63 6.63 0 0 1 9.23 0 6.3 6.3 0 0 1 0 9zm-8.51-8.33a5.29 5.29 0 0 0 0 7.62 5.52 5.52 0 0 0 3.85 1.58 5.57 5.57 0 0 0 3.9-1.57 5.32 5.32 0 0 0 0-7.63 5.59 5.59 0 0 0 -7.79 0z"/><path d="m117.04 45.21.94 2.82h3.03l-2.45 1.75.94 2.82-2.46-1.74-2.45 1.74.93-2.82-2.45-1.75h3.03z"/><path d="m189.22 39.92h-174.87v-27.37h174.87zm-173.85-1h172.83v-25.38h-172.83z"/><path d="m185.55 36.24h-167.55v-20h167.55zm-166.55-.99h165.53v-18h-165.53z"/><path d="m18.89 16.37-.73.7-3.67-3.68.73-.69z"/><path d="m15.22 39.77-.73-.7 3.67-3.67.73.69z"/><path d="m185.41 17.07-.73-.7 3.66-3.67.73.69z"/><path d="m189.07 39.07-.73.7-3.66-3.68.72-.69z"/><path d="m178.93 31.54a7.74 7.74 0 0 1 -5.41 2.2 7.51 7.51 0 1 1 7.66-7.51 7.41 7.41 0 0 1 -2.25 5.31zm-10.11-9.91a6.41 6.41 0 0 0 -1.95 4.6 6.65 6.65 0 1 0 6.65-6.51 6.68 6.68 0 0 0 -4.7 1.91z"/><path d="m188.26 266.43h-173.34v-56.93h173.34zm-172.32-1h171.3v-54.93h-171.3z"/><path d="m20.21 254.02h162.96v1h-162.96z"/><path d="m92.74 109.9c-1.58-4.12-2.58-8.11-.63-12.19a14.69 14.69 0 0 1 6.13-6.33 13.69 13.69 0 0 1 15.11 1.49c4.86 4 5.93 9.49 3.17 16.94.71 0 1.37.09 2 .09 7.32 0 14.63-.06 22 0a5 5 0 0 1 3.33 1.21c1 1.14.09 2.44-.74 3.55-11.85 15.79-23.8 31.5-35.43 47.45-2.88 4-4.71 3.27-7.2-.21-11.28-15.73-22.72-31.34-34.1-47-.22-.3-.46-.6-.67-.92-1.38-2.17-.38-4.09 2.22-4.13 3.91-.05 7.83 0 11.74 0zm11.63 8.31c-1 .16-2.31.3-3.56.56-5.09 1-8.62 4.5-12.23 7.79-.32.28-.16 1.65.24 2a47.86 47.86 0 0 0 6.21 5c9.55 6 18.61 2.19 25.45-5.09a2.13 2.13 0 0 0 0-2.09c-4.2-4.68-9.35-7.7-16.11-8.17zm.34-21.5a6.69 6.69 0 0 0 -6.71 6.35 6.7 6.7 0 0 0 13.39-.06c-.03-3.25-3.23-6.28-6.68-6.29z"/><path d="m104.7 121.2a6.24 6.24 0 1 0 6.32 6.24 6.21 6.21 0 0 0 -6.32-6.24zm0 9.49a3.26 3.26 0 1 1 3.31-3.25 3.26 3.26 0 0 1 -3.34 3.25z"/></g></svg>